<?xml version="1.0" encoding="UTF-8" standalone="no"?>
<svg
   xmlns:dc="http://purl.org/dc/elements/1.1/"
   xmlns:cc="http://creativecommons.org/ns#"
   xmlns:rdf="http://www.w3.org/1999/02/22-rdf-syntax-ns#"
   xmlns:svg="http://www.w3.org/2000/svg"
   xmlns="http://www.w3.org/2000/svg"
   viewBox="0 0 1600 1600"
   height="1600"
   width="1600"
   xml:space="preserve"
   id="svg2"
   version="1.1"><metadata
     id="metadata8"><rdf:RDF><cc:Work
         rdf:about=""><dc:format>image/svg+xml</dc:format><dc:type
           rdf:resource="http://purl.org/dc/dcmitype/StillImage" /></cc:Work></rdf:RDF></metadata><defs
     id="defs6" /><g
     transform="matrix(1.3333333,0,0,-1.3333333,0,1600)"
     id="g10"><g
       transform="scale(0.1)"
       id="g12"><path
         id="path14"
         style="fill:#82acdc;fill-opacity:1;fill-rule:nonzero;stroke:none"
         d="M 0,0 H 12000 V 12000 H 0 Z" /><path
         id="path16"
         style="fill:#ffffff;fill-opacity:1;fill-rule:nonzero;stroke:none"
         d="m 9963.41,3140.98 -35,60.62 47.45,27.39 v 54.8 h 70.04 v -95.21 l -82.49,-47.6" /><path
         id="path18"
         style="fill:#ffffff;fill-opacity:1;fill-rule:nonzero;stroke:none"
         d="m 9699.55,2988.64 -35,60.63 131.93,76.17 35,-60.62 -131.93,-76.18 m -263.86,-152.34 -35,60.62 131.94,76.18 35,-60.63 -131.94,-76.17 m -263.86,-152.34 -35,60.63 131.93,76.17 35,-60.62 -131.93,-76.18 m -263.86,-152.34 -35,60.63 131.93,76.17 35,-60.63 -131.93,-76.17 m -263.87,-152.34 -35,60.62 131.93,76.17 35,-60.62 -131.93,-76.17 m -263.86,-152.34 -35,60.63 131.94,76.17 35,-60.63 -131.94,-76.17 m -263.86,-152.34 -35,60.63 131.93,76.17 35,-60.63 -131.93,-76.17 m -263.86,-152.3 -35,60.6 131.93,76.15 35,-60.65 -131.93,-76.1 m -263.86,-152.4 -35,60.6 131.93,76.2 35,-60.6 -131.93,-76.2 m -263.86,-152.3 -35,60.6 131.93,76.2 35,-60.7 -131.93,-76.1 m -263.86,-152.4 -35,60.7 131.92,76.1 35,-60.6 -131.92,-76.2 m -263.87,-152.3 -35,60.6 131.93,76.2 35,-60.6 -131.93,-76.2 m -263.86,-152.3 -35,60.6 131.93,76.2 35,-60.7 -131.93,-76.1 m -263.87,-152.4 -35,60.6 131.94,76.2 35,-60.6 -131.94,-76.2" /><path
         id="path20"
         style="fill:#ffffff;fill-opacity:1;fill-rule:nonzero;stroke:none"
         d="m 6054.96,884.398 -82.45,47.602 35,60.699 47.45,-27.398 47.45,27.398 35,-60.699 -82.45,-47.602" /><path
         id="path22"
         style="fill:#ffffff;fill-opacity:1;fill-rule:nonzero;stroke:none"
         d="m 2410.37,2988.64 -131.93,76.18 35,60.62 131.93,-76.17 -35,-60.63 m 263.86,-152.33 -131.93,76.16 35,60.63 131.93,-76.17 -35,-60.62 m 263.87,-152.35 -131.94,76.18 35,60.62 131.94,-76.17 -35,-60.63 m 263.86,-152.34 -131.94,76.17 35,60.63 131.94,-76.17 -35,-60.63 m 263.86,-152.34 -131.93,76.17 35,60.62 131.93,-76.17 -35,-60.62 m 263.86,-152.34 -131.93,76.17 35,60.63 131.93,-76.17 -35,-60.63 m 263.86,-152.34 -131.93,76.17 35,60.63 131.94,-76.17 -35.01,-60.63 m 263.87,-152.3 -131.94,76.1 35.01,60.65 131.93,-76.15 -35,-60.6 m 263.85,-152.4 -131.93,76.2 35.01,60.6 131.92,-76.2 -35,-60.6 m 263.87,-152.3 -131.93,76.1 35,60.7 131.93,-76.2 -35,-60.6 m 263.86,-152.4 -131.93,76.2 35,60.6 131.93,-76.1 -35,-60.7 m 263.86,-152.3 -131.93,76.2 35,60.6 131.93,-76.2 -35,-60.6 m 263.86,-152.3 -131.92,76.1 34.99,60.7 131.93,-76.2 -35,-60.6 m 263.87,-152.4 -131.93,76.2 35,60.6 131.93,-76.2 -35,-60.6" /><path
         id="path24"
         style="fill:#ffffff;fill-opacity:1;fill-rule:nonzero;stroke:none"
         d="m 2146.51,3140.98 -82.45,47.6 v 95.21 h 70 v -54.8 l 47.45,-27.39 -35,-60.62" /><path
         id="path26"
         style="fill:#ffffff;fill-opacity:1;fill-rule:nonzero;stroke:none"
         d="m 2134.06,7396.99 h -70 v 152.35 h 70 z m 0,-304.68 h -70 v 152.34 h 70 z m 0,-304.68 h -70 v 152.34 h 70 z m 0,-304.68 h -70 v 152.34 h 70 z m 0,-304.68 h -70 v 152.34 h 70 z m 0,-304.69 h -70 v 152.35 h 70 z m 0,-304.67 h -70 v 152.33 h 70 z m 0,-304.69 h -70 v 152.34 h 70 z m 0,-304.68 h -70 v 152.34 h 70 z m 0,-304.68 h -70 v 152.34 h 70 z m 0,-304.68 h -70 v 152.34 h 70 z m 0,-304.68 h -70 v 152.33 h 70 z m 0,-304.69 h -70 v 152.34 h 70 z m 0,-304.68 h -70 v 152.35 h 70 v -152.35" /><path
         id="path28"
         style="fill:#ffffff;fill-opacity:1;fill-rule:nonzero;stroke:none"
         d="m 2134.06,7701.68 h -70 v 95.2 l 82.45,47.61 35,-60.63 -47.45,-27.39 v -54.79" /><path
         id="path30"
         style="fill:#ffffff;fill-opacity:1;fill-rule:nonzero;stroke:none"
         d="m 5743.65,9840.47 -35,60.62 131.93,76.17 35,-60.62 z m -263.86,-152.35 -35,60.63 131.93,76.17 35,-60.62 z m -263.87,-152.33 -35,60.62 131.94,76.17 35,-60.63 z m -263.86,-152.35 -35,60.63 131.93,76.17 35,-60.63 z m -263.86,-152.34 -35,60.63 131.93,76.17 35,-60.63 z m -263.86,-152.34 -35,60.62 131.93,76.18 35,-60.63 z m -263.87,-152.34 -35,60.63 131.94,76.17 35,-60.63 z m -263.86,-152.34 -35,60.63 131.93,76.16 35,-60.62 z m -263.86,-152.34 -35,60.62 131.93,76.17 35,-60.62 z m -263.86,-152.34 -35,60.62 131.93,76.17 35,-60.62 z m -263.86,-152.34 -35,60.62 131.93,76.17 35,-60.62 z m -263.86,-152.34 -35,60.62 131.93,76.17 35,-60.62 z m -263.87,-152.35 -35,60.63 131.93,76.17 35,-60.63 z m -263.86,-152.34 -35,60.63 131.93,76.17 35,-60.62 -131.93,-76.18" /><path
         id="path32"
         style="fill:#ffffff;fill-opacity:1;fill-rule:nonzero;stroke:none"
         d="m 6102.41,9992.8 -47.45,27.4 -47.45,-27.4 -35,60.6 82.45,47.6 82.45,-47.6 -35,-60.6" /><path
         id="path34"
         style="fill:#ffffff;fill-opacity:1;fill-rule:nonzero;stroke:none"
         d="m 6366.28,9840.46 -131.93,76.18 35,60.62 131.93,-76.17 z m 263.86,-152.34 -131.94,76.18 35,60.62 131.94,-76.17 z m 263.86,-152.34 -131.93,76.17 35,60.63 131.93,-76.17 z m 263.86,-152.34 -131.93,76.17 35,60.63 131.93,-76.17 z m 263.87,-152.34 -131.94,76.17 35,60.63 131.94,-76.18 z m 263.86,-152.34 -131.94,76.17 35,60.63 131.94,-76.18 z m 263.85,-152.34 -131.92,76.17 35,60.62 131.92,-76.16 z m 263.87,-152.34 -131.93,76.17 35,60.62 131.93,-76.17 z m 263.86,-152.34 -131.93,76.16 35,60.63 131.93,-76.17 z m 263.87,-152.34 -131.94,76.17 35,60.62 131.94,-76.17 z m 263.85,-152.34 -131.93,76.17 35,60.62 131.93,-76.17 z m 263.87,-152.35 -131.93,76.17 35,60.63 131.93,-76.17 z m 263.86,-152.34 -131.94,76.17 35,60.63 131.94,-76.17 z m 263.85,-152.34 -131.92,76.17 35,60.63 131.92,-76.18 -35,-60.62" /><path
         id="path36"
         style="fill:#ffffff;fill-opacity:1;fill-rule:nonzero;stroke:none"
         d="m 10045.9,7701.68 h -70.04 v 54.79 l -47.45,27.39 35,60.63 82.49,-47.61 v -95.2" /><path
         id="path38"
         style="fill:#ffffff;fill-opacity:1;fill-rule:nonzero;stroke:none"
         d="m 10045.9,7397 h -70.04 v 152.34 h 70.04 z m 0,-304.69 h -70.04 v 152.34 h 70.04 z m 0,-304.68 h -70.04 v 152.34 h 70.04 z m 0,-304.68 h -70.04 v 152.34 h 70.04 z m 0,-304.68 h -70.04 v 152.34 h 70.04 z m 0,-304.69 h -70.04 v 152.35 h 70.04 z m 0,-304.67 h -70.04 v 152.34 h 70.04 z m 0,-304.68 h -70.04 v 152.33 h 70.04 z m 0,-304.69 h -70.04 v 152.34 h 70.04 z m 0,-304.68 h -70.04 v 152.34 h 70.04 z m 0,-304.68 h -70.04 v 152.34 h 70.04 z m 0,-304.68 h -70.04 v 152.34 h 70.04 z m 0,-304.68 h -70.04 v 152.33 h 70.04 z m 0,-304.69 h -70.04 v 152.35 h 70.04 v -152.35" /><path
         id="path40"
         style="fill:#585d61;fill-opacity:1;fill-rule:nonzero;stroke:none"
         d="m 2253.63,4280.97 0.05,196.07 2045.18,542.26 -0.11,-194.78 -0.03,-0.01 c 1.53,-65.22 -37.02,-127.7 -117.48,-174.15 L 3099.73,4025.95 c -174.22,-100.59 -478.53,-87.97 -679.7,28.17 v 0 C 2307.67,4119 2251.31,4202.44 2253.75,4281 l -0.12,-0.03" /><path
         id="path42"
         style="fill:#6b7076;fill-opacity:1;fill-rule:nonzero;stroke:none"
         d="m 3099.73,4231.37 1081.51,624.41 c 174.22,100.58 152.37,276.28 -48.8,392.43 -201.17,116.14 -505.48,128.76 -679.7,28.17 L 2371.23,4651.97 c -174.22,-100.58 -152.37,-276.28 48.8,-392.43 v 0 c 201.17,-116.14 505.48,-128.76 679.7,-28.17" /><path
         id="path44"
         style="fill:#585d61;fill-opacity:1;fill-rule:nonzero;stroke:none"
         d="m 2799.07,5621.43 954.33,250.94 -0.01,-967.98 h -0.12 c 0.31,-15.48 -8.76,-30.31 -27.86,-41.33 l -600.45,-346.67 c -41.45,-23.93 -113.85,-20.93 -161.72,6.7 l -124.6,76.51 c -26.25,15.16 -39.58,34.58 -39.5,52.97 h -0.06 l 0.01,1.29 v 0.18 l -0.02,967.39" /><path
         id="path46"
         style="fill:#ffffff;fill-opacity:1;fill-rule:nonzero;stroke:none"
         d="m 3427.49,6009.33 -600.45,-346.66 c -41.45,-23.94 -36.25,-65.74 11.61,-93.37 l 124.6,-76.51 c 47.87,-27.64 120.27,-30.64 161.72,-6.71 l 600.45,346.67 c 41.45,23.93 36.25,65.74 -11.61,93.37 l -124.6,76.51 c -47.86,27.64 -120.27,30.64 -161.72,6.7" /><path
         id="path48"
         style="fill:#eae9ef;fill-opacity:1;fill-rule:nonzero;stroke:none"
         d="m 5595.1,10347.1 -132.09,75.3 c -26.63,19 -63.29,23.4 -95.6,4.7 L 987.395,7898.32 C 932.598,7866.68 898.84,7808.21 898.84,7744.93 V 4131.45 l 153.38,-86.69 4448.02,2739.78 v 3529.86 l 94.86,32.7" /><path
         id="path50"
         style="fill:#44494d;fill-opacity:1;fill-rule:nonzero;stroke:none"
         d="m 1052.22,4041.23 v 3617.02 c 0,63.28 33.76,121.74 88.55,153.38 l 4380.02,2528.77 c 59.04,34.1 132.83,-8.5 132.83,-76.6 V 6697.85 L 1052.22,4041.23" /><path
         id="path52"
         style="fill:#a5a9b5;fill-opacity:1;fill-rule:nonzero;stroke:none"
         d="M 1358.98,7583.39 5346.86,9885.8 V 6874.96 L 1358.98,4572.56 v 3010.83" /><path
         id="path54"
         style="fill:#7e828b;fill-opacity:1;fill-rule:nonzero;stroke:none"
         d="M 1356.05,7585.2 5364.27,9899.34 V 6873.16 L 1356.05,4559.01 V 7585.2" /><path
         id="path56"
         style="fill:#b7bbc6;fill-opacity:1;fill-rule:nonzero;stroke:none"
         d="M 1356.05,7585.2 V 7274.05 L 5364.27,9588.2 v 311.14 L 1356.05,7585.2" /><path
         id="path58"
         style="fill:#9397a0;fill-opacity:1;fill-rule:nonzero;stroke:none"
         d="m 1883.1,7578.34 4.78,-2712.28 -531.83,-307.05 v 2715.04 l 527.05,304.29" /><path
         id="path60"
         style="fill:#a5a9b5;fill-opacity:1;fill-rule:nonzero;stroke:none"
         d="M 4564.75,9126.6 V 6411.56 l 799.52,461.6 V 9588.2 l -799.52,-461.6" /><path
         id="path62"
         style="fill:#a5a9b5;fill-opacity:1;fill-rule:nonzero;stroke:none"
         d="m 4564.75,8508.4 799.52,463.65 v 616.15 l -799.52,-461.6 v -618.2" /><path
         id="path64"
         style="fill:#9397a0;fill-opacity:1;fill-rule:nonzero;stroke:none"
         d="m 5364.27,8351.8 -798.42,-461.6 -1.1,618.2 799.52,463.65 V 8351.8" /><path
         id="path66"
         style="fill:#9397a0;fill-opacity:1;fill-rule:nonzero;stroke:none"
         d="m 4564.75,7272.01 799.52,465.69 v -864.54 l -799.52,-461.6 v 860.45" /><path
         id="path68"
         style="fill:#a5a9b5;fill-opacity:1;fill-rule:nonzero;stroke:none"
         d="m 4297.07,8662.95 -2141.5,-1236.4 v -152.5 l 2141.5,1234.35 v 154.55" /><path
         id="path70"
         style="fill:#9397a0;fill-opacity:1;fill-rule:nonzero;stroke:none"
         d="m 2155.57,5262.86 2141.5,1236.4 V 8508.4 L 2155.57,7274.05 V 5262.86" /><path
         id="path72"
         style="fill:#fdb813;fill-opacity:1;fill-rule:nonzero;stroke:none"
         d="m 3593.09,7089.98 173.06,215.29 -173.06,-215.29 z" /><path
         id="path74"
         style="fill:#fdb813;fill-opacity:1;fill-rule:nonzero;stroke:none"
         d="m 2900.85,6690.32 -173.06,15.45 173.06,-15.45" /><path
         id="path76"
         style="fill:#fdb813;fill-opacity:1;fill-rule:nonzero;stroke:none"
         d="m 3420.03,6874.7 173.06,-15.46 v 230.74 z" /><path
         id="path78"
         style="fill:#fdb813;fill-opacity:1;fill-rule:nonzero;stroke:none"
         d="m 3073.91,7136.34 -173.06,15.46 346.12,430.56 346.12,-30.9 -346.12,-430.57 z m 173.06,676.76 -692.23,-861.13 692.23,-61.82 692.24,861.14 -692.24,61.81" /><path
         id="path80"
         style="fill:#fdb813;fill-opacity:1;fill-rule:nonzero;stroke:none"
         d="m 2900.85,6690.32 v -230.74 l 173.06,215.29 z" /><path
         id="path82"
         style="fill:#fdb813;fill-opacity:1;fill-rule:nonzero;stroke:none"
         d="m 3420.03,6640.28 v -227.06 l 346.12,430.57 -173.06,15.45 -173.06,-218.96" /><path
         id="path84"
         style="fill:#fdb813;fill-opacity:1;fill-rule:nonzero;stroke:none"
         d="m 3073.91,6213.39 v 230.74 l -173.06,15.45 -173.06,-215.28 346.12,-30.91" /><path
         id="path86"
         style="fill:#f8981d;fill-opacity:1;fill-rule:nonzero;stroke:none"
         d="m 2727.79,6705.77 173.06,-15.45 173.06,-15.45 v -461.48 l -346.12,30.91 z m -173.05,-676.76 692.23,-61.81 v 922.95 l -692.23,61.82 v -922.96" /><path
         id="path88"
         style="fill:#f8981d;fill-opacity:1;fill-rule:nonzero;stroke:none"
         d="m 3593.09,7089.98 v -230.74 l 173.06,-15.45 v 461.48 l -173.06,-215.29" /><path
         id="path90"
         style="fill:#f8981d;fill-opacity:1;fill-rule:nonzero;stroke:none"
         d="m 3593.09,7551.46 -346.12,30.9 v -230.73 l 173.06,-15.46 173.06,215.29" /><path
         id="path92"
         style="fill:#f8981d;fill-opacity:1;fill-rule:nonzero;stroke:none"
         d="m 3246.97,7120.89 v 230.74 l -173.06,-215.29 z" /><path
         id="path94"
         style="fill:#f8981d;fill-opacity:1;fill-rule:nonzero;stroke:none"
         d="m 3420.03,6640.28 173.06,218.96 -173.06,15.46 z" /><path
         id="path96"
         style="fill:#d66f2a;fill-opacity:1;fill-rule:nonzero;stroke:none"
         d="m 3766.15,6843.79 -346.12,-430.57 v 461.48 l 173.06,215.28 v 0 l 173.06,215.29 z m -519.18,46.36 V 5967.2 l 692.24,861.14 v 922.95 l -692.24,-861.14" /><path
         id="path98"
         style="fill:#d66f2a;fill-opacity:1;fill-rule:nonzero;stroke:none"
         d="m 3420.03,7336.17 -173.06,15.46 v -230.74 z" /><path
         id="path100"
         style="fill:#d66f2a;fill-opacity:1;fill-rule:nonzero;stroke:none"
         d="m 3246.97,7582.36 -346.12,-430.56 173.06,-15.46 173.06,215.29 v 230.73" /><path
         id="path102"
         style="fill:#d66f2a;fill-opacity:1;fill-rule:nonzero;stroke:none"
         d="M 2727.79,6705.77 V 6244.3 l 173.06,215.28 v 230.74 l -173.06,15.45" /><path
         id="path104"
         style="fill:#d66f2a;fill-opacity:1;fill-rule:nonzero;stroke:none"
         d="m 3073.91,6444.13 v 230.74 l -173.06,-215.29 z" /><path
         id="path106"
         style="fill:#f8981d;fill-opacity:1;fill-rule:nonzero;stroke:none"
         d="m 4964.51,9247.4 -149.33,-185.77 v -199.1 l 149.33,-13.33 149.33,185.76 v 199.11 l -149.33,13.33" /><path
         id="path108"
         style="fill:#b7bbc6;fill-opacity:1;fill-rule:nonzero;stroke:none"
         d="m 1605.66,7131.17 -165.56,-95.59 v 191.17 l 165.56,95.59 v -191.17" /><path
         id="path110"
         style="fill:#b7bbc6;fill-opacity:1;fill-rule:nonzero;stroke:none"
         d="m 1811.01,7247.19 -165.56,-95.59 v 191.17 l 165.56,95.58 v -191.16" /><path
         id="path112"
         style="fill:#b7bbc6;fill-opacity:1;fill-rule:nonzero;stroke:none"
         d="m 4776.6,8383.33 -165.56,-95.58 v 191.17 l 165.56,95.58 v -191.17" /><path
         id="path114"
         style="fill:#7e828b;fill-opacity:1;fill-rule:nonzero;stroke:none"
         d="m 4776.6,8096.58 -165.56,-95.59 v 191.17 l 165.56,95.59 v -191.17" /><path
         id="path116"
         style="fill:#b7bbc6;fill-opacity:1;fill-rule:nonzero;stroke:none"
         d="m 5047.29,8526.71 -165.56,-95.59 v 191.17 l 165.56,95.59 v -191.17" /><path
         id="path118"
         style="fill:#7e828b;fill-opacity:1;fill-rule:nonzero;stroke:none"
         d="m 5047.29,8239.96 -165.56,-95.59 v 191.17 l 165.56,95.58 v -191.16" /><path
         id="path120"
         style="fill:#b7bbc6;fill-opacity:1;fill-rule:nonzero;stroke:none"
         d="m 5307.92,8670.09 -165.56,-95.59 v 191.17 l 165.56,95.59 v -191.17" /><path
         id="path122"
         style="fill:#7e828b;fill-opacity:1;fill-rule:nonzero;stroke:none"
         d="m 5307.92,8383.33 -165.56,-95.58 v 191.17 l 165.56,95.58 v -191.17" /><path
         id="path124"
         style="fill:#b7bbc6;fill-opacity:1;fill-rule:nonzero;stroke:none"
         d="m 1605.66,6869.72 -165.56,-95.58 v 191.16 l 165.56,95.59 v -191.17" /><path
         id="path126"
         style="fill:#b7bbc6;fill-opacity:1;fill-rule:nonzero;stroke:none"
         d="m 1811.01,6985.74 -165.56,-95.59 v 191.17 l 165.56,95.58 v -191.16" /><path
         id="path128"
         style="fill:#b7bbc6;fill-opacity:1;fill-rule:nonzero;stroke:none"
         d="m 1605.66,6608.27 -165.56,-95.58 v 191.16 l 165.56,95.59 v -191.17" /><path
         id="path130"
         style="fill:#b7bbc6;fill-opacity:1;fill-rule:nonzero;stroke:none"
         d="m 1811.01,6724.29 -165.56,-95.59 v 191.17 l 165.56,95.59 v -191.17" /><path
         id="path132"
         style="fill:#b7bbc6;fill-opacity:1;fill-rule:nonzero;stroke:none"
         d="m 1605.66,6346.82 -165.56,-95.58 v 191.17 l 165.56,95.58 v -191.17" /><path
         id="path134"
         style="fill:#b7bbc6;fill-opacity:1;fill-rule:nonzero;stroke:none"
         d="m 1811.01,6462.84 -165.56,-95.59 v 191.17 l 165.56,95.59 v -191.17" /><path
         id="path136"
         style="fill:#b7bbc6;fill-opacity:1;fill-rule:nonzero;stroke:none"
         d="m 1605.66,6085.38 -165.56,-95.59 v 191.17 l 165.56,95.59 v -191.17" /><path
         id="path138"
         style="fill:#b7bbc6;fill-opacity:1;fill-rule:nonzero;stroke:none"
         d="m 1811.01,6201.39 -165.56,-95.58 v 191.16 l 165.56,95.59 v -191.17" /><path
         id="path140"
         style="fill:#b7bbc6;fill-opacity:1;fill-rule:nonzero;stroke:none"
         d="m 1605.66,5823.93 -165.56,-95.59 v 191.17 l 165.56,95.59 v -191.17" /><path
         id="path142"
         style="fill:#b7bbc6;fill-opacity:1;fill-rule:nonzero;stroke:none"
         d="m 1811.01,5939.95 -165.56,-95.59 v 191.17 l 165.56,95.58 v -191.16" /><path
         id="path144"
         style="fill:#b7bbc6;fill-opacity:1;fill-rule:nonzero;stroke:none"
         d="m 1605.66,5562.48 -165.56,-95.59 v 191.17 l 165.56,95.59 v -191.17" /><path
         id="path146"
         style="fill:#b7bbc6;fill-opacity:1;fill-rule:nonzero;stroke:none"
         d="m 1811.01,5678.5 -165.56,-95.59 v 191.17 l 165.56,95.59 V 5678.5" /><path
         id="path148"
         style="fill:#b7bbc6;fill-opacity:1;fill-rule:nonzero;stroke:none"
         d="m 5300.62,7442.17 -672.21,-383.65 v 143.98 l 672.21,383.65 v -143.98" /><path
         id="path150"
         style="fill:#b7bbc6;fill-opacity:1;fill-rule:nonzero;stroke:none"
         d="m 5300.62,7194.46 -672.21,-383.65 v 143.99 l 672.21,383.65 v -143.99" /><path
         id="path152"
         style="fill:#b7bbc6;fill-opacity:1;fill-rule:nonzero;stroke:none"
         d="m 5313.83,7932.93 -672.2,-383.65 v 143.98 l 672.2,383.65 v -143.98" /><path
         id="path154"
         style="fill:#fdb813;fill-opacity:1;fill-rule:nonzero;stroke:none"
         d="m 10577.8,7751.29 261.7,151.08 -261.7,-151.08 z" /><path
         id="path156"
         style="fill:#fdb813;fill-opacity:1;fill-rule:nonzero;stroke:none"
         d="m 9531.03,7751.29 -261.69,151.08 261.69,-151.08 z" /><path
         id="path158"
         style="fill:#fdb813;fill-opacity:1;fill-rule:nonzero;stroke:none"
         d="m 10316.1,7600.2 261.7,-151.09 v 302.18 z" /><path
         id="path160"
         style="fill:#fdb813;fill-opacity:1;fill-rule:nonzero;stroke:none"
         d="m 9792.72,8204.54 -261.69,151.09 523.37,302.17 523.4,-302.17 -523.4,-302.17 z m 261.68,755.43 -1046.75,-604.34 1046.75,-604.34 1046.8,604.34 -1046.8,604.34" /><path
         id="path162"
         style="fill:#fdb813;fill-opacity:1;fill-rule:nonzero;stroke:none"
         d="m 9531.03,7751.29 v -302.18 l 261.69,151.09 z" /><path
         id="path164"
         style="fill:#fdb813;fill-opacity:1;fill-rule:nonzero;stroke:none"
         d="m 10316.1,7293.21 v -297.35 l 523.4,302.17 -261.7,151.08 -261.7,-155.9" /><path
         id="path166"
         style="fill:#fdb813;fill-opacity:1;fill-rule:nonzero;stroke:none"
         d="m 9792.72,6995.86 v 302.17 l -261.69,151.08 -261.69,-151.08 523.38,-302.17" /><path
         id="path168"
         style="fill:#f8981d;fill-opacity:1;fill-rule:nonzero;stroke:none"
         d="m 9269.34,7902.37 261.69,-151.08 v 0 l 261.69,-151.09 v -302.17 -302.17 l -523.38,302.17 z M 9007.65,7146.94 10054.4,6542.6 V 7751.29 L 9007.65,8355.63 V 7146.94" /><path
         id="path170"
         style="fill:#f8981d;fill-opacity:1;fill-rule:nonzero;stroke:none"
         d="m 10577.8,7751.29 v -302.18 l 261.7,-151.08 v 604.34 l -261.7,-151.08" /><path
         id="path172"
         style="fill:#f8981d;fill-opacity:1;fill-rule:nonzero;stroke:none"
         d="m 10577.8,8355.63 -523.4,302.17 v -302.17 l 261.7,-151.08 261.7,151.08" /><path
         id="path174"
         style="fill:#f8981d;fill-opacity:1;fill-rule:nonzero;stroke:none"
         d="m 10054.4,8053.46 v 302.17 l -261.68,-151.09 z" /><path
         id="path176"
         style="fill:#f8981d;fill-opacity:1;fill-rule:nonzero;stroke:none"
         d="m 10316.1,7293.21 261.7,155.9 -261.7,151.09 z" /><path
         id="path178"
         style="fill:#d66f2a;fill-opacity:1;fill-rule:nonzero;stroke:none"
         d="m 10839.5,7298.03 -523.4,-302.17 v 604.34 l 261.7,151.09 v 0 l 261.7,151.08 z m -785.1,453.26 V 6542.6 l 1046.8,604.34 v 1208.69 l -1046.8,-604.34" /><path
         id="path180"
         style="fill:#d66f2a;fill-opacity:1;fill-rule:nonzero;stroke:none"
         d="m 10316.1,8204.55 -261.7,151.08 v -302.17 z" /><path
         id="path182"
         style="fill:#d66f2a;fill-opacity:1;fill-rule:nonzero;stroke:none"
         d="m 10054.4,8657.8 -523.37,-302.17 261.69,-151.09 261.68,151.09 v 302.17" /><path
         id="path184"
         style="fill:#d66f2a;fill-opacity:1;fill-rule:nonzero;stroke:none"
         d="m 9269.34,7902.37 v -604.34 l 261.69,151.08 v 302.18 l -261.69,151.08" /><path
         id="path186"
         style="fill:#d66f2a;fill-opacity:1;fill-rule:nonzero;stroke:none"
         d="M 9792.72,7298.03 V 7600.2 L 9531.03,7449.11 Z" /><path
         id="path188"
         style="fill:#44494d;fill-opacity:1;fill-rule:nonzero;stroke:none"
         d="m 9791.05,2980.73 c 0,-151.62 -32.31,-277.45 -93.46,-363.91 -55.31,-78.24 -132.14,-119.57 -222.14,-119.57 h -0.03 c -67.38,0 -140.23,22.33 -216.53,66.38 l -1551.73,870.14 -609.08,301.48 22.36,1552.31 c 0,293.71 123.89,483.46 315.61,483.46 67.38,0 140.24,-22.33 216.55,-66.38 l 1551.73,-870.13 c 323.25,-186.64 586.72,-692.27 586.72,-1126.79 v -726.99 m -559.74,1906.32 -1551.13,869.8 c -159.09,91.85 -304.07,94.99 -413.24,25.84 v 0.01 l -3622.81,-2059.3 0.14,-0.19 h 0.01 C 3514.36,3647.9 3432.09,3473.8 3432.09,3226.44 V 1690.4 l 614.9,-365.8 1551.13,-869.799 C 5750.68,366.699 5890.16,360.402 5997.64,421 l 0.15,-0.199 3636.64,2067.549 -0.13,0.21 c 129.75,75.41 211.91,249.43 211.91,496.61 v 727 c 0,452.8 -275.3,978.81 -614.9,1174.88" /><path
         id="path190"
         style="fill:#585d61;fill-opacity:1;fill-rule:nonzero;stroke:none"
         d="M 5156.17,1157.3 V 995 l 2954.08,1698.29 v 162.27 L 5156.17,1157.3" /><path
         id="path192"
         style="fill:#6b7076;fill-opacity:1;fill-rule:nonzero;stroke:none"
         d="M 5156.17,1157.3 3980.88,1835.8 6934.96,3534.11 8110.25,2855.56 5156.17,1157.3" /><path
         id="path194"
         style="fill:#9397a0;fill-opacity:1;fill-rule:nonzero;stroke:none"
         d="M 4165.05,1835.6 6934.88,3428.01 7926.1,2855.73 5156.27,1263.4 4165.05,1835.6" /><path
         id="path196"
         style="fill:#585d61;fill-opacity:1;fill-rule:nonzero;stroke:none"
         d="m 5156.17,995 -1175.29,678.5 v 162.3 L 5156.17,1157.3 V 995" /><path
         id="path198"
         style="fill:#5d7fa4;fill-opacity:1;fill-rule:nonzero;stroke:none"
         d="m 5842.24,381.102 c -1.22,0 -2.45,0 -3.67,0 1.1,0 2.2,0 3.3,0 56.89,0 109.32,13.699 155.77,39.898 l 0.09,-0.102 c -46.37,-26.097 -98.71,-39.796 -155.49,-39.796 M 4042.28,1327.4 3432.09,1673.5 v 16.9 l 610.19,-363 m -610.19,1899.04 v 0.13 c 0,254.48 86.92,431.67 223.38,503.27 l -11.34,-6.44 0.14,-0.19 C 3514.36,3647.9 3432.09,3473.8 3432.09,3226.44" /><path
         id="path200"
         style="fill:#313a40;fill-opacity:1;fill-rule:nonzero;stroke:none"
         d="m 5841.87,381.102 c -1.1,0 -2.2,0 -3.3,0 -73.86,0.796 -155.14,24.5 -240.45,73.8 l -1551.14,869.798 -4.7,2.7 -610.19,363 v 1536.04 c 0,247.36 82.27,421.46 212.19,496.77 l -0.15,0.19 11.34,6.44 c 44.34,23.26 93.89,35.38 147.4,35.38 74.82,0 157.39,-23.72 244.11,-73.79 l 1551.14,-869.8 c 15.69,-9.06 31.25,-18.83 46.64,-29.25 L 3980.88,1835.8 5156.17,1157.3 3980.88,1835.8 V 1673.5 L 5156.17,995 6213.02,1602.6 V 919.801 c 0,-249.5 -83.49,-424.602 -215.29,-498.903 l -0.09,0.102 c -46.45,-26.199 -98.88,-39.898 -155.77,-39.898" /><path
         id="path202"
         style="fill:#3f484e;fill-opacity:1;fill-rule:nonzero;stroke:none"
         d="m 5156.17,995 v 162.3 l 1051.2,604.3 c 3.72,-38.6 5.65,-77 5.65,-114.8 v -44.2 L 5156.17,995" /><path
         id="path204"
         style="fill:#4d555d;fill-opacity:1;fill-rule:nonzero;stroke:none"
         d="m 5156.17,1157.3 v 0 l -1175.29,678.5 1663.88,956.58 c 26.91,-18.23 53.32,-38.47 79.15,-60.55 L 4165.05,1835.6 5156.27,1263.4 6194.14,1860 c 5.65,-32.9 10.08,-65.7 13.23,-98.4 l -1051.2,-604.3" /><path
         id="path206"
         style="fill:#68717a;fill-opacity:1;fill-rule:nonzero;stroke:none"
         d="m 5156.27,1263.4 -991.22,572.2 1558.86,896.23 c 229.93,-196.48 412.8,-536.98 470.23,-871.83 L 5156.27,1263.4" /><path
         id="path208"
         style="fill:#3f484e;fill-opacity:1;fill-rule:nonzero;stroke:none"
         d="m 5156.17,995 -1175.29,678.5 v 162.3 L 5156.17,1157.3 V 995" /><path
         id="path210"
         style="fill:#7e828b;fill-opacity:1;fill-rule:nonzero;stroke:none"
         d="m 6823.46,3943.04 v -588.73 l 151.83,83.97 v 588.73 l -151.83,-83.97" /><path
         id="path212"
         style="fill:#a5a9b5;fill-opacity:1;fill-rule:nonzero;stroke:none"
         d="m 6823.46,3943.04 -385.65,222.66 151.82,83.96 385.66,-222.65 -151.83,-83.97" /><path
         id="path214"
         style="fill:#9397a0;fill-opacity:1;fill-rule:nonzero;stroke:none"
         d="m 6823.46,3354.31 -385.65,222.66 v 588.73 l 385.65,-222.66 v -588.73" /><path
         id="path216"
         style="fill:#b7bbc6;fill-opacity:1;fill-rule:nonzero;stroke:none"
         d="m 6673.49,3541.51 c 0,28.54 -20.03,63.23 -44.74,77.5 -12.35,7.13 -23.54,7.81 -31.64,3.13 l -762.01,-440 c -8.09,-4.68 -13.1,-14.7 -13.1,-28.97 0,-28.53 20.03,-63.22 44.74,-77.49 12.35,-7.13 23.54,-7.81 31.64,-3.13 l 762.01,440 v 0 c 8.09,4.67 13.1,14.7 13.1,28.96" /><path
         id="path218"
         style="fill:#c8cbd4;fill-opacity:1;fill-rule:nonzero;stroke:none"
         d="m 6628.75,3991.74 c -12.35,7.13 -23.54,7.8 -31.64,3.13 l -858.91,-495.4 c -8.1,-4.68 -13.1,-14.7 -13.1,-28.97 0,-28.53 20.03,-63.23 44.74,-77.49 12.35,-7.13 23.54,-7.81 31.63,-3.14 l 858.92,495.41 c 8.09,4.67 13.1,14.69 13.1,28.96 0,28.53 -20.03,63.23 -44.74,77.5" /><path
         id="path220"
         style="fill:#7e828b;fill-opacity:1;fill-rule:nonzero;stroke:none"
         d="m 6036.08,3499.47 v -588.73 l 303.65,179.44 v 588.73 l -303.65,-179.44" /><path
         id="path222"
         style="fill:#a5a9b5;fill-opacity:1;fill-rule:nonzero;stroke:none"
         d="m 6036.08,3499.47 -385.66,222.66 303.66,179.43 385.65,-222.65 -303.65,-179.44" /><path
         id="path224"
         style="fill:#9397a0;fill-opacity:1;fill-rule:nonzero;stroke:none"
         d="m 6036.08,2910.74 -385.66,222.66 v 588.73 l 385.66,-222.66 v -588.73" /><path
         id="path226"
         style="fill:#b7bbc6;fill-opacity:1;fill-rule:nonzero;stroke:none"
         d="m 5836.7,3176.03 c -12.35,7.13 -23.54,7.81 -31.64,3.13 L 5315.69,2893.77 4214.72,2240.62 c -8.1,-4.67 -13.1,-14.69 -13.1,-28.96 0,-28.53 20.03,-63.23 44.74,-77.49 12.35,-7.14 23.54,-7.81 31.63,-3.14 l 1590.35,938.54 c 8.09,4.67 13.1,14.7 13.1,28.97 0,28.53 -20.03,63.22 -44.74,77.49" /><path
         id="path228"
         style="fill:#c8cbd4;fill-opacity:1;fill-rule:nonzero;stroke:none"
         d="m 5815.45,3540.01 c -12.36,7.14 -23.54,7.81 -31.64,3.14 L 5315.69,3266.5 4214.72,2613.35 c -8.1,-4.67 -13.1,-14.7 -13.1,-28.96 0,-28.54 20.03,-63.23 44.74,-77.5 12.35,-7.13 23.54,-7.8 31.63,-3.13 l 1569.09,929.79 c 8.1,4.68 13.11,14.7 13.11,28.97 0,28.53 -20.03,63.23 -44.74,77.49" /><path
         id="path230"
         style="fill:#7e828b;fill-opacity:1;fill-rule:nonzero;stroke:none"
         d="M 4366.54,2559.04 V 1928.3 l 151.83,83.99 V 2643 l -151.83,-83.96" /><path
         id="path232"
         style="fill:#a5a9b5;fill-opacity:1;fill-rule:nonzero;stroke:none"
         d="m 4366.54,2559.04 -385.66,222.66 151.83,83.96 385.66,-222.66 -151.83,-83.96" /><path
         id="path234"
         style="fill:#9397a0;fill-opacity:1;fill-rule:nonzero;stroke:none"
         d="m 4366.54,1928.3 -385.66,222.69 v 630.71 l 385.66,-222.66 V 1928.3" /><path
         id="path236"
         style="fill:#eae9ef;fill-opacity:1;fill-rule:nonzero;stroke:none"
         d="m 4305.32,3979.57 h -126.55 l 15.16,-1280.03 c 0,-9.35 6.18,-18.7 18.53,-25.84 24.71,-14.26 64.78,-14.26 89.49,0 12.35,7.14 18.53,16.49 18.53,25.84 l -15.16,1280.03" /><path
         id="path238"
         style="fill:#eae9ef;fill-opacity:1;fill-rule:nonzero;stroke:none"
         d="m 4286.79,3953.74 c -24.71,-14.26 -64.78,-14.26 -89.49,0 -24.71,14.27 -24.71,37.4 0,51.67 24.71,14.26 64.78,14.26 89.49,0 24.71,-14.27 24.71,-37.4 0,-51.67" /><path
         id="path240"
         style="fill:#eae9ef;fill-opacity:1;fill-rule:nonzero;stroke:none"
         d="M 6762.24,5372.54 H 6635.7 l 15.15,-1280.04 c 0,-9.35 6.18,-18.7 18.54,-25.83 24.71,-14.26 64.77,-14.26 89.48,0 12.35,7.13 18.53,16.48 18.53,25.83 l -15.16,1280.04" /><path
         id="path242"
         style="fill:#eae9ef;fill-opacity:1;fill-rule:nonzero;stroke:none"
         d="m 6743.71,5346.71 c -24.71,-14.27 -64.77,-14.27 -89.48,0 -24.71,14.27 -24.71,37.4 0,51.66 24.71,14.27 64.77,14.27 89.48,0 24.71,-14.26 24.71,-37.39 0,-51.66" /><path
         id="path244"
         style="fill:#cfd8dc;fill-opacity:1;fill-rule:nonzero;stroke:none"
         d="m 6157.86,919.801 c 0,-151.699 -32.32,-277.5 -93.46,-364 -55.31,-78.199 -132.13,-119.5 -222.14,-119.5 h -0.03 c -67.38,0 -140.23,22.301 -216.53,66.398 L 3487.25,1708 v 1518.58 c 0,293.71 123.89,483.47 315.61,483.47 67.38,0 140.23,-22.34 216.55,-66.38 l 1551.73,-870.14 c 323.25,-186.64 586.72,-692.26 586.72,-1126.83 z m -559.74,1901.829 -1551.13,869.8 c -339.6,196.07 -614.9,-12.05 -614.9,-464.85 V 1673.5 L 5598.12,454.902 c 339.6,-196.101 614.9,12.098 614.9,464.899 V 1646.8 c 0,452.75 -275.3,978.77 -614.9,1174.83" /><path
         id="path246"
         style="fill:#cfd8dc;fill-opacity:1;fill-rule:nonzero;stroke:none"
         d="m 9475.45,2497.25 h -0.03 c -67.38,0 -140.23,22.33 -216.53,66.38 L 7120.44,3760.96 v 1526.6 c 0,293.71 123.89,483.46 315.61,483.46 67.38,0 140.24,-22.33 216.55,-66.38 l 1551.73,-870.13 c 323.25,-186.64 586.72,-692.27 586.72,-1126.79 v -726.99 c 0,-151.62 -32.31,-277.45 -93.46,-363.91 -55.31,-78.24 -132.14,-119.57 -222.14,-119.57 m 370.76,483.48 v 727 c 0,452.8 -275.3,978.81 -614.9,1174.88 l -1551.13,869.8 c -84.9,49.02 -165.78,72.77 -239.35,73.75 -45.98,0.62 -89.1,-7.66 -128.56,-24.22 -15.78,-6.63 -30.98,-14.58 -45.54,-23.82 -123.76,-78.52 -201.45,-250.02 -201.45,-490.57 V 3724.27 l 2166.03,-1208.4 c 84.9,-49.02 165.78,-72.77 239.35,-73.75 220.69,-2.96 375.55,199.01 375.55,538.61" /><path
         id="path248"
         style="fill:#fdb813;fill-opacity:1;fill-rule:nonzero;stroke:none"
         d="m 6816.13,2655.1 102.24,59.02 -102.24,-59.02" /><path
         id="path250"
         style="fill:#fdb813;fill-opacity:1;fill-rule:nonzero;stroke:none"
         d="m 6407.17,2655.1 -102.24,59.02 102.24,-59.02" /><path
         id="path252"
         style="fill:#fdb813;fill-opacity:1;fill-rule:nonzero;stroke:none"
         d="m 6713.89,2596.07 102.24,-59.03 v 118.06 z" /><path
         id="path254"
         style="fill:#fdb813;fill-opacity:1;fill-rule:nonzero;stroke:none"
         d="m 6509.41,2832.18 -102.24,59.03 204.48,118.05 204.48,-118.05 -204.48,-118.06 z m 102.24,295.14 -408.96,-236.11 408.96,-236.11 408.95,236.11 -408.95,236.11" /><path
         id="path256"
         style="fill:#fdb813;fill-opacity:1;fill-rule:nonzero;stroke:none"
         d="m 6407.17,2655.1 v -118.06 l 102.24,59.03 z" /><path
         id="path258"
         style="fill:#fdb813;fill-opacity:1;fill-rule:nonzero;stroke:none"
         d="m 6713.89,2476.13 v -116.17 l 204.48,118.05 -102.24,59.03 -102.24,-60.91" /><path
         id="path260"
         style="fill:#fdb813;fill-opacity:1;fill-rule:nonzero;stroke:none"
         d="m 6509.41,2359.96 v 118.05 l -102.24,59.03 -102.24,-59.03 204.48,-118.05" /><path
         id="path262"
         style="fill:#f8981d;fill-opacity:1;fill-rule:nonzero;stroke:none"
         d="m 6304.93,2714.12 102.24,-59.02 102.24,-59.03 v -236.11 l -204.48,118.05 z m -102.24,-295.13 408.96,-236.12 v 472.23 l -408.96,236.11 v -472.22" /><path
         id="path264"
         style="fill:#f8981d;fill-opacity:1;fill-rule:nonzero;stroke:none"
         d="m 6816.13,2655.1 v -118.06 l 102.24,-59.03 v 236.11 l -102.24,-59.02" /><path
         id="path266"
         style="fill:#f8981d;fill-opacity:1;fill-rule:nonzero;stroke:none"
         d="m 6816.13,2891.21 -204.48,118.05 v -118.05 l 102.24,-59.03 102.24,59.03" /><path
         id="path268"
         style="fill:#f8981d;fill-opacity:1;fill-rule:nonzero;stroke:none"
         d="m 6611.65,2773.15 v 118.06 l -102.24,-59.03 z" /><path
         id="path270"
         style="fill:#f8981d;fill-opacity:1;fill-rule:nonzero;stroke:none"
         d="m 6713.89,2476.13 102.24,60.91 -102.24,59.03 z" /><path
         id="path272"
         style="fill:#d66f2a;fill-opacity:1;fill-rule:nonzero;stroke:none"
         d="m 6918.37,2478.01 -204.48,-118.05 v 236.11 l 102.24,59.03 102.24,59.02 z m -306.72,177.09 v -472.23 l 408.95,236.12 v 472.22 L 6611.65,2655.1" /><path
         id="path274"
         style="fill:#d66f2a;fill-opacity:1;fill-rule:nonzero;stroke:none"
         d="m 6713.89,2832.18 -102.24,59.03 v -118.06 z" /><path
         id="path276"
         style="fill:#d66f2a;fill-opacity:1;fill-rule:nonzero;stroke:none"
         d="m 6611.65,3009.26 -204.48,-118.05 102.24,-59.03 102.24,59.03 v 118.05" /><path
         id="path278"
         style="fill:#d66f2a;fill-opacity:1;fill-rule:nonzero;stroke:none"
         d="m 6304.93,2714.12 v -236.11 l 102.24,59.03 v 118.06 l -102.24,59.02" /><path
         id="path280"
         style="fill:#d66f2a;fill-opacity:1;fill-rule:nonzero;stroke:none"
         d="m 6509.41,2478.01 v 118.06 l -102.24,-59.03 z" /><path
         id="path282"
         style="fill:#5d7fa4;fill-opacity:1;fill-rule:nonzero;stroke:none"
         d="m 9587.67,2461.77 h 0.01 c 156.49,58.28 258.53,243.26 258.53,518.96 v 727 0 -727 c 0,-275.71 -102.04,-460.69 -258.54,-518.96" /><path
         id="path284"
         style="fill:#313a40;fill-opacity:1;fill-rule:nonzero;stroke:none"
         d="m 9475.43,2442.08 c -8.05,0 -16.19,0.28 -24.41,0.83 6.6,-0.44 13.15,-0.71 19.64,-0.79 1.59,-0.03 3.19,-0.04 4.77,-0.04 39.77,0 77.37,6.7 112.25,19.69 h -0.01 c -34.89,-12.99 -72.47,-19.69 -112.24,-19.69 m -24.8,0.86 c -0.09,0 -0.18,0.01 -0.27,0.01 0.09,0 0.18,-0.01 0.27,-0.01 m -0.92,0.06 c -0.01,0 -0.05,0 -0.07,0 0.02,0 0.05,0 0.07,0 m -0.9,0.06 c -0.02,0.01 0.01,0 -0.01,0.01 0,-0.01 0.01,-0.01 0.01,-0.01" /><path
         id="path286"
         style="fill:#5d7fa4;fill-opacity:1;fill-rule:nonzero;stroke:none"
         d="m 9475.45,2497.25 h -0.03 c -67.38,0 -140.23,22.33 -216.53,66.38 l -1551.73,870.14 -20.27,10.03 -566.45,317.16 v 1526.6 c 0,293.71 123.89,483.46 315.61,483.46 67.38,0 140.24,-22.33 216.55,-66.38 l 1551.73,-870.13 c 323.25,-186.64 586.72,-692.27 586.72,-1126.79 V 3122.3 l -126.5,-73.03 35,-60.63 91.5,52.83 v -60.74 c 0,-17.77 -0.45,-35.18 -1.33,-52.22 -6.64,-128.35 -38.15,-235.37 -92.13,-311.69 -50.77,-71.82 -119.68,-112.54 -200.26,-118.74 -7.2,-0.55 -14.5,-0.83 -21.88,-0.83 m -206.69,323.51 -131.93,-76.17 35,-60.63 131.93,76.18 -35,60.62 m 263.87,152.34 -131.94,-76.18 35,-60.62 131.94,76.17 -35,60.63" /><path
         id="path288"
         style="fill:#b4b9bc;fill-opacity:1;fill-rule:nonzero;stroke:none"
         d="m 9171.83,2683.96 -35,60.63 131.93,76.17 35,-60.62 -131.93,-76.18 m 263.86,152.34 -35,60.62 131.94,76.18 35,-60.63 -131.94,-76.17 m 263.86,152.34 -35,60.63 126.5,73.03 v -80.83 l -91.5,-52.83" /><path
         id="path290"
         style="fill:#313a40;fill-opacity:1;fill-rule:nonzero;stroke:none"
         d="m 9475.45,2497.25 h -0.03 c -67.38,0 -140.23,22.33 -216.53,66.38 l -1572,880.17 20.27,-10.03 1551.73,-870.14 c 76.3,-44.05 149.15,-66.38 216.53,-66.38 h 0.03 c 7.38,0 14.68,0.28 21.88,0.83 -7.2,-0.55 -14.5,-0.83 -21.88,-0.83 m -227.91,9.53 c -0.02,0.01 -0.01,0.01 -0.03,0.02 0.01,-0.01 0.02,-0.01 0.03,-0.02 m -1.01,0.55 c -0.02,0.01 -0.01,0.01 -0.03,0.02 0.01,-0.01 0.02,-0.01 0.03,-0.02 m -0.95,0.52 c -0.04,0.02 -0.08,0.04 -0.12,0.06 0.04,-0.02 0.08,-0.04 0.12,-0.06 m -1.01,0.55 c -0.04,0.03 -0.07,0.04 -0.11,0.06 0.03,-0.01 0.07,-0.04 0.11,-0.06 m -0.99,0.54 c -0.06,0.04 -0.08,0.05 -0.14,0.09 0.05,-0.03 0.09,-0.06 0.14,-0.09 m -1.02,0.57 c -0.04,0.02 -0.08,0.05 -0.13,0.07 0.05,-0.02 0.09,-0.05 0.13,-0.07 m -0.98,0.54 c -0.06,0.04 -0.11,0.06 -0.17,0.1 0.06,-0.03 0.12,-0.07 0.17,-0.1 m -1,0.56 c -0.04,0.02 -0.14,0.08 -0.18,0.1 0.06,-0.03 0.12,-0.07 0.18,-0.1 m -0.97,0.54 c -0.08,0.05 -0.14,0.08 -0.23,0.13 0.08,-0.04 0.15,-0.08 0.23,-0.13 m -1.01,0.57 c -0.06,0.03 -0.16,0.09 -0.22,0.12 0.07,-0.04 0.14,-0.08 0.22,-0.12 m -0.96,0.54 c -0.1,0.06 -0.18,0.1 -0.28,0.16 0.09,-0.05 0.19,-0.11 0.28,-0.16 m -1,0.56 c -0.1,0.06 -0.19,0.11 -0.29,0.17 0.09,-0.05 0.2,-0.11 0.29,-0.17 m -1.02,0.58 c -0.08,0.05 -0.19,0.11 -0.28,0.16 0.1,-0.05 0.19,-0.11 0.28,-0.16 m -1.06,0.61 c -0.06,0.03 -0.16,0.09 -0.22,0.12 0.07,-0.04 0.15,-0.08 0.22,-0.12 m -1.02,0.58 c -0.08,0.04 -0.13,0.07 -0.21,0.12 0.07,-0.04 0.14,-0.08 0.21,-0.12 m -1.22,0.7 v 0 0 m 613.04,1236.43 c -16.94,441.92 -284.86,940.13 -613.06,1130.31 328.21,-190.18 596.12,-688.39 613.06,-1130.31 M 7065.28,5287.55 c 0,0.42 0,0.85 0,1.26 0,-0.42 0,-0.83 0,-1.26 m 0,1.59 c 0,0.36 0,0.72 0,1.08 0,-0.37 0,-0.71 0,-1.08 m 0,1.28 c 0,0.41 0,0.83 0,1.25 0,-0.43 0,-0.83 0,-1.25 m 0.01,1.54 c 0,0.36 0,0.69 0,1.05 0,-0.35 0,-0.69 0,-1.05 m 0,1.31 c 0,0.44 0.01,0.83 0.01,1.27 0,-0.42 -0.01,-0.85 -0.01,-1.27 m 0.01,1.43 c 0,0.38 0.01,0.74 0.01,1.12 0,-0.36 -0.01,-0.76 -0.01,-1.12 m 0.01,1.41 c 0.01,0.85 0.01,1.71 0.02,2.56 -0.01,-0.85 -0.01,-1.7 -0.02,-2.56 m 0.03,2.8 c 0,0.38 0,0.82 0.01,1.2 -0.01,-0.41 -0.01,-0.8 -0.01,-1.2 m 0.01,1.28 c 0,0.44 0.01,0.87 0.01,1.31 0,-0.44 -0.01,-0.87 -0.01,-1.31 m 0.02,1.51 c 0,0.35 0.01,0.75 0.01,1.11 0,-0.38 -0.01,-0.73 -0.01,-1.11 m 0.02,1.35 c 0,0.44 0.01,0.85 0.01,1.29 0,-0.44 -0.01,-0.85 -0.01,-1.29 m 0.02,1.34 c 0,0.38 0.01,0.84 0.01,1.22 0,-0.4 -0.01,-0.81 -0.01,-1.22 m 0.02,1.46 c 0.01,0.87 0.03,1.71 0.04,2.58 -0.01,-0.85 -0.03,-1.73 -0.04,-2.58 m 0.05,2.78 c 0.02,0.89 0.03,1.73 0.05,2.62 -0.02,-0.86 -0.04,-1.76 -0.05,-2.62 m 0.05,2.71 c 0.01,0.44 0.02,0.87 0.03,1.3 -0.01,-0.43 -0.02,-0.86 -0.03,-1.3 m 0.03,1.34 c 0.03,0.92 0.05,1.8 0.07,2.72 -0.02,-0.91 -0.05,-1.82 -0.07,-2.72 m 0.07,2.76 c 0.02,0.92 0.05,1.81 0.07,2.72 -0.02,-0.9 -0.05,-1.81 -0.07,-2.72 m 0.08,2.75 c 8.42,298.66 140.57,483.69 331.2,505.77 -29.72,-3.44 -58.01,-10.84 -84.64,-22.02 -15.78,-6.63 -30.98,-14.58 -45.54,-23.82 -118.44,-75.15 -194.69,-235.43 -201.02,-459.93 m 331.23,505.78 c 0.16,0.02 0.32,0.04 0.47,0.05 -0.16,-0.02 -0.31,-0.03 -0.47,-0.05 m 0.51,0.06 c 0.64,0.07 1.29,0.14 1.92,0.21 -0.64,-0.07 -1.28,-0.14 -1.92,-0.21 m 2,0.22 c 0.13,0.01 0.26,0.03 0.4,0.04 -0.13,-0.01 -0.27,-0.03 -0.4,-0.04 m 0.56,0.06 c 0.14,0.01 0.25,0.03 0.38,0.04 -0.13,-0.01 -0.25,-0.03 -0.38,-0.04 m 0.53,0.06 c 0.42,0.04 0.83,0.08 1.24,0.12 -0.41,-0.04 -0.82,-0.08 -1.24,-0.12 m 1.43,0.14 c 0.12,0.01 0.21,0.02 0.33,0.04 -0.1,-0.02 -0.22,-0.03 -0.33,-0.04 m 0.57,0.06 c 0.1,0.01 0.21,0.02 0.31,0.03 -0.1,-0.01 -0.21,-0.02 -0.31,-0.03 m 0.55,0.05 c 0.1,0.01 0.23,0.02 0.33,0.03 -0.11,-0.01 -0.22,-0.02 -0.33,-0.03 m 0.44,0.04 c 0.23,0.03 0.45,0.05 0.67,0.07 -0.22,-0.02 -0.44,-0.04 -0.67,-0.07 m 0.95,0.09 c 0.11,0.01 0.17,0.02 0.27,0.03 -0.09,-0.01 -0.18,-0.02 -0.27,-0.03 m 0.59,0.06 c 0.07,0 0.17,0.01 0.24,0.02 -0.08,-0.01 -0.16,-0.01 -0.24,-0.02 m 0.61,0.05 c 0.06,0.01 0.13,0.01 0.19,0.02 -0.07,-0.01 -0.12,-0.01 -0.19,-0.02 m 0.72,0.07 c 0.02,0 0.02,0 0.04,0 -0.01,0 -0.02,0 -0.04,0 m 0.61,0.05 c 0.06,0 0.13,0.01 0.18,0.01 -0.06,0 -0.12,-0.01 -0.18,-0.01 m 0.57,0.05 c 0.07,0 0.14,0.01 0.21,0.01 -0.07,0 -0.14,-0.01 -0.21,-0.01 m 0.62,0.05 c 0.06,0 0.1,0.01 0.15,0.01 -0.05,0 -0.1,-0.01 -0.15,-0.01 m 0.72,0.05 h 0.01 c -0.01,0 -0.01,0 -0.01,0 m 0.61,0.05 c 0.03,0 0.05,0.01 0.09,0.01 -0.03,0 -0.06,-0.01 -0.09,-0.01 m 0.58,0.05 c 0.06,0 0.09,0 0.14,0.01 -0.04,-0.01 -0.09,-0.01 -0.14,-0.01 m 0.63,0.04 c 0.03,0.01 0.05,0.01 0.09,0.01 -0.03,0 -0.06,0 -0.09,-0.01 m 0.64,0.05 c 0.02,0 0.03,0 0.05,0 -0.02,0 -0.03,0 -0.05,0 m 1.27,0.09 c 0.01,0 0.03,0 0.05,0 -0.02,0 -0.03,0 -0.05,0 m 0.62,0.04 c 0.01,0 0.03,0 0.04,0 -0.01,0 -0.03,0 -0.04,0 m 28.06,0.71 v 0 0" /><path
         id="path292"
         style="fill:#929ea4;fill-opacity:1;fill-rule:nonzero;stroke:none"
         d="m 9475.43,2442.08 c -1.58,0 -3.18,0.01 -4.77,0.04 -6.49,0.08 -13.04,0.35 -19.64,0.79 -0.12,0.01 -0.26,0.02 -0.39,0.03 -0.09,0 -0.18,0.01 -0.27,0.01 -0.22,0.02 -0.43,0.03 -0.65,0.05 -0.02,0 -0.05,0 -0.07,0 -0.28,0.02 -0.56,0.04 -0.83,0.06 0,0 -0.01,0 -0.01,0.01 -62.8,4.59 -130.59,25.35 -201.26,63.71 -0.01,0.01 -0.02,0.01 -0.03,0.02 -0.31,0.16 -0.67,0.36 -0.98,0.53 -0.01,0.01 -0.02,0.01 -0.03,0.02 -0.31,0.17 -0.61,0.33 -0.92,0.5 -0.04,0.02 -0.08,0.04 -0.12,0.06 -0.29,0.16 -0.61,0.34 -0.89,0.49 -0.04,0.02 -0.08,0.05 -0.11,0.06 -0.29,0.16 -0.59,0.33 -0.88,0.48 -0.05,0.03 -0.09,0.06 -0.14,0.09 -0.29,0.16 -0.59,0.32 -0.88,0.48 -0.04,0.02 -0.08,0.05 -0.13,0.07 -0.26,0.15 -0.58,0.32 -0.85,0.47 -0.05,0.03 -0.11,0.07 -0.17,0.1 -0.29,0.16 -0.54,0.3 -0.83,0.46 -0.06,0.03 -0.12,0.07 -0.18,0.1 -0.27,0.15 -0.52,0.29 -0.79,0.44 -0.08,0.05 -0.15,0.09 -0.23,0.13 -0.27,0.15 -0.51,0.29 -0.78,0.44 -0.08,0.04 -0.15,0.08 -0.22,0.12 -0.25,0.14 -0.49,0.28 -0.74,0.42 -0.09,0.05 -0.19,0.11 -0.28,0.16 -0.23,0.13 -0.49,0.28 -0.72,0.4 -0.09,0.06 -0.2,0.12 -0.29,0.17 -0.25,0.14 -0.48,0.27 -0.73,0.41 -0.09,0.05 -0.18,0.11 -0.28,0.16 -0.27,0.15 -0.51,0.29 -0.78,0.45 -0.07,0.04 -0.15,0.08 -0.22,0.12 -0.27,0.16 -0.53,0.3 -0.8,0.46 -0.07,0.04 -0.14,0.08 -0.21,0.12 -0.33,0.19 -0.67,0.39 -1.01,0.58 v 0 c -0.33,0.19 -0.68,0.39 -1.01,0.58 v 0 l -1551.13,869.8 -614.9,338.61 v 1563.27 0 c 0,0.43 0,0.84 0,1.26 0,0.11 0,0.22 0,0.33 0,0.37 0,0.71 0,1.08 0,0.08 0,0.11 0,0.2 0,0.42 0,0.82 0,1.25 0.01,0.08 0.01,0.21 0.01,0.29 0,0.36 0,0.7 0,1.05 0,0.08 0,0.18 0,0.26 0,0.42 0.01,0.85 0.01,1.27 0,0.03 0,0.13 0,0.16 0,0.36 0.01,0.76 0.01,1.12 0,0.11 0,0.18 0,0.29 0.01,0.86 0.01,1.71 0.02,2.56 0,0.09 0,0.15 0.01,0.24 0,0.4 0,0.79 0.01,1.2 0,0.03 0,0.06 0,0.08 0,0.44 0.01,0.87 0.01,1.31 0.01,0.08 0.01,0.12 0.01,0.2 0,0.38 0.01,0.73 0.01,1.11 0,0.08 0,0.16 0.01,0.24 0,0.44 0.01,0.85 0.01,1.29 0,0.03 0,0.03 0.01,0.05 0,0.41 0.01,0.82 0.01,1.22 0.01,0.08 0.01,0.16 0.01,0.24 0.01,0.85 0.03,1.73 0.04,2.58 0.01,0.05 0.01,0.14 0.01,0.2 0.01,0.86 0.03,1.76 0.05,2.62 0,0.03 0,0.07 0,0.09 0.01,0.44 0.02,0.87 0.03,1.3 v 0.04 c 0.02,0.9 0.05,1.81 0.07,2.72 v 0.04 c 0.02,0.91 0.05,1.82 0.07,2.72 l 0.01,0.03 c 6.33,224.5 82.58,384.78 201.02,459.93 14.56,9.24 29.76,17.19 45.54,23.82 26.63,11.18 54.92,18.58 84.64,22.02 0.02,0.01 0.02,0.01 0.03,0.01 0.16,0.02 0.31,0.03 0.47,0.05 0.02,0 0.02,0.01 0.04,0.01 0.64,0.07 1.28,0.14 1.92,0.21 0.02,0 0.06,0.01 0.08,0.01 0.13,0.01 0.27,0.03 0.4,0.04 0.05,0.01 0.11,0.01 0.16,0.02 0.13,0.01 0.25,0.03 0.38,0.04 0.06,0.01 0.1,0.01 0.15,0.02 0.42,0.04 0.83,0.08 1.24,0.12 0.06,0.01 0.14,0.02 0.19,0.02 0.11,0.01 0.23,0.02 0.33,0.04 0.07,0 0.17,0.01 0.24,0.02 0.1,0.01 0.21,0.02 0.31,0.03 0.09,0.01 0.15,0.01 0.24,0.02 0.11,0.01 0.22,0.02 0.33,0.03 0.04,0.01 0.08,0.01 0.11,0.01 0.23,0.03 0.45,0.05 0.67,0.07 0.09,0.01 0.19,0.02 0.28,0.02 0.09,0.01 0.18,0.02 0.27,0.03 0.11,0.01 0.21,0.02 0.32,0.03 0.08,0.01 0.16,0.01 0.24,0.02 0.14,0.01 0.23,0.02 0.37,0.03 0.07,0.01 0.12,0.01 0.19,0.02 0.17,0.01 0.36,0.03 0.53,0.05 0.02,0 0.03,0 0.04,0 0.19,0.02 0.38,0.03 0.57,0.05 0.06,0 0.12,0.01 0.18,0.01 0.14,0.01 0.25,0.02 0.39,0.04 0.07,0 0.14,0.01 0.21,0.01 0.13,0.01 0.27,0.03 0.41,0.04 0.05,0 0.1,0.01 0.15,0.01 0.19,0.01 0.38,0.03 0.57,0.04 0,0 0,0 0.01,0 0.19,0.02 0.4,0.04 0.6,0.05 0.03,0 0.06,0.01 0.09,0.01 0.16,0.01 0.34,0.02 0.49,0.04 0.05,0 0.1,0 0.14,0.01 0.16,0.01 0.33,0.02 0.49,0.03 0.03,0.01 0.06,0.01 0.09,0.01 0.19,0.01 0.36,0.03 0.55,0.04 0.02,0 0.03,0 0.05,0 0.4,0.03 0.81,0.06 1.22,0.09 0.02,0 0.03,0 0.05,0 0.19,0.02 0.37,0.03 0.57,0.04 0.01,0 0.03,0 0.04,0 7.49,0.5 15.09,0.75 22.75,0.75 1.75,0 3.51,-0.02 5.27,-0.04 v 0 c 73.42,-1.1 154.15,-24.86 238.85,-73.76 l 1551.13,-869.79 c 0.33,-0.19 0.66,-0.38 0.99,-0.58 328.2,-190.18 596.12,-688.39 613.06,-1130.31 0.56,-14.73 0.85,-29.4 0.85,-43.99 v -727 c 0,-275.7 -102.04,-460.68 -258.53,-518.96 -34.88,-12.99 -72.48,-19.69 -112.25,-19.69 m -1788.54,1001.72 1572,-880.17 c 76.3,-44.05 149.15,-66.38 216.53,-66.38 h 0.03 c 7.38,0 14.68,0.28 21.88,0.83 80.58,6.2 149.49,46.92 200.26,118.74 53.98,76.32 85.49,183.34 92.13,311.69 0.88,17.04 1.33,34.45 1.33,52.22 v 726.99 0 c 0,434.52 -263.47,940.15 -586.72,1126.79 L 7652.6,5704.64 c -76.31,44.05 -149.17,66.38 -216.55,66.38 -191.72,0 -315.61,-189.75 -315.61,-483.46 v -1526.6 l 566.45,-317.16" /><path
         id="path294"
         style="fill:#eceff1;fill-opacity:1;fill-rule:nonzero;stroke:none"
         d="m 9662.35,2985.31 c 0,-165.09 -46.15,-294.47 -120.45,-337.65 L 9520.03,2634.95 6395.36,858.5 c 1.02,20.102 1.53,40.5 1.53,61.301 V 1646.7 c 0,519.32 -310.48,1105.34 -706.84,1334.17 l -1500.29,841.32 3171.85,1802.96 3.68,2.33 c 20.65,13.07 43.8,19.42 70.78,19.42 43.87,0 96.48,-17 152.16,-49.15 l 1552.08,-870.34 c 283.08,-164.16 522.04,-628.64 522.04,-1015.1 z m -431.04,1901.88 -1551.14,869.8 c -159.08,91.84 -304.05,94.99 -413.23,25.83 v 0.01 l -3622.81,-2059.3 0.14,-0.19 c 107.9,62.56 248.63,57.05 402.72,-31.91 l 1551.13,-869.8 c 339.6,-196.06 614.9,-722.08 614.9,-1174.83 V 919.801 c 0,-249.399 -83.61,-424.399 -215.37,-498.699 l 0.14,-0.204 3636.64,2067.592 -0.13,0.21 c 129.76,75.4 211.91,249.43 211.91,496.6 v 727.01 c 0,452.8 -275.3,978.81 -614.9,1174.88" /><path
         id="path296"
         style="fill:#7e828b;fill-opacity:1;fill-rule:nonzero;stroke:none"
         d="m 5465.55,4203.22 v -272.17 l 506.69,292.54 0.01,272.17 -506.7,-292.54" /><path
         id="path298"
         style="fill:#a5a9b5;fill-opacity:1;fill-rule:nonzero;stroke:none"
         d="m 5465.55,4203.22 -218.07,123.93 506.7,292.55 218.07,-123.94 -506.7,-292.54" /><path
         id="path300"
         style="fill:#9397a0;fill-opacity:1;fill-rule:nonzero;stroke:none"
         d="m 5465.55,3931.05 -218.07,123.94 v 272.16 l 218.07,-123.93 v -272.17" /><path
         id="path302"
         style="fill:#fdb813;fill-opacity:1;fill-rule:nonzero;stroke:none"
         d="m 5902.47,3613.91 v 0 c -20.31,0 -36.77,16.46 -36.77,36.77 v 137.91 c 0,105.44 -74.71,234.85 -166.03,287.58 l -93.96,54.24 c -17.58,10.16 -23.61,32.65 -13.46,50.24 10.16,17.58 32.65,23.61 50.24,13.46 l 93.95,-54.25 c 111.54,-64.4 202.81,-222.47 202.81,-351.27 v -137.91 c 0,-20.31 -16.47,-36.77 -36.78,-36.77" /><path
         id="path304"
         style="fill:#f8981d;fill-opacity:1;fill-rule:nonzero;stroke:none"
         d="m 6075.86,3723.88 v 0 c -20.3,0 -36.77,16.47 -36.77,36.78 v 137.91 c 0,105.44 -74.71,234.85 -166.03,287.58 l -93.96,54.24 c -17.58,10.16 -23.61,32.65 -13.45,50.23 10.15,17.59 32.64,23.62 50.23,13.46 l 93.95,-54.24 c 111.55,-64.41 202.81,-222.48 202.81,-351.28 v -137.9 c 0,-20.31 -16.47,-36.78 -36.78,-36.78" /><path
         id="path306"
         style="fill:#ffffff;fill-opacity:1;fill-rule:nonzero;stroke:none"
         d="m 4414.28,10948.4 c -21.24,25.1 -31.85,60.1 -31.85,104.9 v 14.5 h 51.39 v -12.3 c 0.47,-32.8 6.75,-57.9 18.81,-75.3 12.06,-17.3 32.09,-26 60.07,-26 28.47,0 49.82,9.6 64.06,28.9 14.23,19.3 21.35,50.7 21.35,94.1 0,81.1 -29.2,122.6 -87.57,124.5 h -14.48 v 50.7 h 14.48 c 31.35,0 53.79,8.7 67.31,26 13.5,17.4 20.26,45.9 20.26,85.4 0,32.8 -6.04,58.3 -18.1,76.4 -12.06,18.1 -32.56,27.1 -61.52,27.1 -29.43,0 -50.78,-8.2 -64.04,-24.6 -13.28,-16.4 -20.16,-42.2 -20.63,-77.4 v -10.2 h -51.39 v 13.8 c 0,94.1 45.11,141.1 135.35,141.1 44.87,0 78.52,-13.1 100.96,-39.4 22.44,-26.3 33.65,-61.9 33.65,-106.8 0,-39.5 -7.6,-70.8 -22.79,-93.7 -15.21,-22.9 -35.6,-37.5 -61.16,-43.8 24.12,-6.3 44.15,-21.7 60.07,-46.3 15.92,-24.6 23.88,-58.6 23.88,-102.1 0,-52.1 -11.34,-93 -34.01,-122.6 -22.69,-29.7 -57.9,-44.5 -105.68,-44.5 -44.39,0 -77.19,12.5 -98.42,37.6" /><path
         id="path308"
         style="fill:#ffffff;fill-opacity:1;fill-rule:nonzero;stroke:none"
         d="m 4866.62,10959.3 c 29.43,0 51.5,6.1 66.23,18.4 14.71,12.3 24.24,28.7 28.58,49.2 4.35,20.5 6.52,47.4 6.52,80.7 v 218.6 c 0,31.8 -2.66,57.3 -7.96,76.4 -5.32,19 -15.45,33.6 -30.4,43.7 -14.96,10.2 -36.68,15.2 -65.14,15.2 h -71.65 v -502.2 z m -128.83,544.9 h 127.38 c 57.91,0 98.91,-14.8 123.04,-44.5 24.12,-29.6 36.19,-72.2 36.19,-127.7 v -233.1 c 0,-58.4 -11.7,-103.1 -35.1,-134.2 -23.41,-31.1 -63.09,-46.7 -119.06,-46.7 h -132.45 v 586.2" /><path
         id="path310"
         style="fill:#ffffff;fill-opacity:1;fill-rule:nonzero;stroke:none"
         d="m 5387.73,11236.4 c 36.19,0 61.88,8.4 77.08,25 15.19,16.7 22.79,45.7 22.79,87.2 0,30.4 -2.88,53.7 -8.68,69.9 -5.78,16.1 -15.68,27.6 -29.67,34.3 -14,6.8 -34.27,10.2 -60.8,10.2 h -70.93 v -226.6 z m -125.22,267.8 h 140.42 c 49.68,0 85.27,-13.5 106.75,-40.5 21.46,-27 32.2,-65.4 32.2,-115.1 0,-45.3 -11.21,-82.2 -33.65,-110.7 -22.43,-28.5 -57.3,-42.7 -104.58,-42.7 h -86.13 V 10918 h -55.01 v 586.2" /><path
         id="path312"
         style="fill:#ffffff;fill-opacity:1;fill-rule:nonzero;stroke:none"
         d="m 5741.64,11246.6 c 35.22,0 59.83,8.7 73.82,26 14,17.4 20.99,44.9 20.99,82.5 0,38.2 -6.64,65.7 -19.91,82.6 -13.27,16.8 -37.75,25.3 -73.46,25.3 h -75.99 v -216.4 z m -129.56,257.6 h 132.45 c 52.59,0 89.99,-12.6 112.19,-38 22.19,-25.3 33.28,-62.3 33.28,-111.1 0,-37.1 -6.03,-67.8 -18.09,-91.9 -12.06,-24.1 -33.05,-39.3 -62.96,-45.6 l 89.75,-299.6 h -53.57 l -86.12,288 h -91.92 v -288 h -55.01 v 586.2" /><path
         id="path314"
         style="fill:#ffffff;fill-opacity:1;fill-rule:nonzero;stroke:none"
         d="m 5984.09,11504.2 h 55 V 10918 h -55 v 586.2" /><path
         id="path316"
         style="fill:#ffffff;fill-opacity:1;fill-rule:nonzero;stroke:none"
         d="m 6143.31,11504.2 h 39.8 l 186.74,-455.2 v 455.2 h 47.77 V 10918 h -39.09 l -187.45,460.3 V 10918 h -47.77 v 586.2" /><path
         id="path318"
         style="fill:#ffffff;fill-opacity:1;fill-rule:nonzero;stroke:none"
         d="m 6582.62,11461.5 h -117.97 v 42.7 h 288.06 v -42.7 H 6637.63 V 10918 h -55.01 v 543.5" /><path
         id="path320"
         style="fill:#ffffff;fill-opacity:1;fill-rule:nonzero;stroke:none"
         d="m 6801.91,11504.2 h 55.01 V 10918 h -55.01 v 586.2" /><path
         id="path322"
         style="fill:#ffffff;fill-opacity:1;fill-rule:nonzero;stroke:none"
         d="m 6961.12,11504.2 h 39.82 l 186.72,-455.2 v 455.2 h 47.77 V 10918 h -39.09 l -187.44,460.3 V 10918 h -47.78 v 586.2" /><path
         id="path324"
         style="fill:#ffffff;fill-opacity:1;fill-rule:nonzero;stroke:none"
         d="m 7358.1,10958.2 c -21.96,32 -32.93,78.2 -32.93,138.6 v 228.7 c 0,60.8 10.86,106.7 32.57,137.8 21.71,31.2 60.3,46.7 115.8,46.7 50.66,0 86.97,-14.1 108.93,-42.3 21.94,-28.2 32.92,-70.3 32.92,-126.3 v -20.3 h -52.1 v 20.3 c 0,43.9 -6.28,75.6 -18.83,95.2 -12.54,19.5 -35.95,29.3 -70.19,29.3 -25.59,0 -45.24,-5.6 -59,-16.7 -13.74,-11.1 -22.92,-26.1 -27.49,-45.2 -4.6,-19.1 -6.88,-43.3 -6.88,-72.7 v -241.1 c 0,-45.8 6.62,-79.8 19.89,-102 13.28,-22.2 38.01,-33.3 74.2,-33.3 34.25,0 58.13,11.2 71.65,33.7 13.5,22.4 20.26,56.8 20.26,103.1 v 68.8 h -86.85 v 41.2 h 137.52 V 10918 h -35.47 l -6.51,66.6 c -8.22,-23.7 -20.75,-42 -37.64,-55 -16.89,-13.1 -39.57,-19.6 -68.03,-19.6 -52.6,0 -89.87,16.1 -111.82,48.2" /></g></g></svg>