<?xml version="1.0" encoding="utf-8"?>
<!-- Generator: Adobe Illustrator 19.1.0, SVG Export Plug-In . SVG Version: 6.00 Build 0)  -->
<svg version="1.1" id="Layer_1" xmlns="http://www.w3.org/2000/svg" xmlns:xlink="http://www.w3.org/1999/xlink" x="0px" y="0px"
	 viewBox="0 0 1025 536" style="enable-background:new 0 0 1025 536;" xml:space="preserve">
<style type="text/css">
	.st0{fill:#0F4872;}
	.st1{fill:#1D85DB;}
	.st2{fill:#1F6C93;}
	.st3{fill:#42D3CC;}
	.st4{fill:#FFFFFF;}
	.st5{fill:#4AB7BA;}
	.st6{fill:#FAA91E;}
	.st7{fill:#F98B4E;}
	.st8{fill:#6FB72A;}
	.st9{fill:#91370A;}
	.st10{fill:#52B0B2;}
	.st11{fill:#EC6918;}
	.st12{clip-path:url(#SVGID_2_);fill:#FAA91E;}
	.st13{clip-path:url(#SVGID_4_);fill:#FAA91E;}
	.st14{fill:#A02784;}
	.st15{fill:#84195C;}
	.st16{fill:#B73091;}
	.st17{fill:#155656;}
	.st18{fill:#39C4BA;}
	.st19{clip-path:url(#SVGID_6_);fill:#FAA91E;}
	.st20{fill:#FEDB37;}
	.st21{fill:#66C1C9;}
	.st22{clip-path:url(#SVGID_8_);fill:#FAA91E;}
	.st23{fill:#FCEBD4;}
	.st24{clip-path:url(#SVGID_10_);fill:#FAA91E;}
	.st25{clip-path:url(#SVGID_12_);fill:#FAA91E;}
	.st26{clip-path:url(#SVGID_14_);fill:#FAA91E;}
	.st27{clip-path:url(#SVGID_16_);fill:#FAA91E;}
	.st28{fill:#117BB7;}
	.st29{fill:#185E89;}
</style>
<rect y="0" class="st0" width="1025" height="536"/>
<polygon class="st1" points="326.5,536 449.5,346.3 1025,346.3 1025,536 "/>
<g>
	<path class="st2" d="M537.2,67.7c0,0-1.4,2.8-3.8,4.1c0.1-0.9,0.2-2.1,0.2-2.1s-2.1,1.4-2.7,1.7c0-1,0-1.9,0-1.9l-2.3,1.3
		c0,0,0.1-1.8,0.3-2.4c-2.1,1.7-3,1.7-3,1.7l-0.1-1.1l-2.4,1.6l0.3-2.2c0,0-2.2,1-3.2,1.4c-0.7-0.9-0.2-2.2-0.2-2.2
		c-2,1.1-2.1,0.7-2.1,0.7s0.3-1,0.8-2.2c0.5-1.1,0.8-1.6,0.8-1.6s-1.4,0.8-2.4,1.4c-0.9,0.7-1.1,0-0.9-1.1c0.3-1.1,0.7-3,0.7-3
		s-1.2,1-1.8,1.4c-0.6,0.4-0.8-0.5-0.7-1.3c0.1-0.9-0.1-1.3-0.1-1.3s-0.8,1.3-1.4,1.1c-0.7-0.2-0.4-1.4-0.5-2.1
		c-0.1-0.7-0.2-1.2-0.2-1.2l-1.2,0.2l-0.5-2.6l3.9-1.4c0,0,16.5,4.6,16.1,4.7c-0.4,0.1,7.1,4.8,7.1,4.8L537.2,67.7z"/>
	<path class="st2" d="M527.3,83.9c0,0,0.7-3.8-0.4-6.3c-0.8,1.1-2.1,3.2-2.1,3.2c0.3-3.3,0.3-4.2-0.1-4.9c-0.7,1.5-1.8,4.2-1.8,4.2
		c0.3-3.4-0.1-4.2-0.5-4.8c-0.9,1.2-1.9,2.9-2.5,3.2c0.9-3.2,0.6-4.4,0.6-4.4c-1.7,1-2.6,2.3-2.6,2.3l0.5-4l-1.8,1.7v-3.2l-1.9,0.8
		l0.4-2.6l-2-0.4l-0.5-2l-2.3,0.1l-2.6,6l1.4,3.2l4.7,5l7.3,3.5L527.3,83.9z"/>
	<path class="st2" d="M391.8,86.5c0,0,0.7,9.3,0.7,13c0,3.7-0.4,4.1-0.8,5.4c-0.4,1.4,0.1,1.8,1,2c0.8,0.1,2-0.3,2.8-3
		c0.8-2.7,4.4-14.9,4.1-19.3c-0.3-4.4-2-3.8-2-3.8S391.5,83.4,391.8,86.5z"/>
	<path class="st2" d="M401,106.8c0,0,1.1-4.2,1.5-6.6c0.4-2.4,2.4-8.3,1.7-11.1c-0.7-2.8-1.7-5.9-1.7-5.9l2.3-4.5l3.9,2.1
		c0,0,0.4,8.4-0.7,13.2c-1.1,4.8-2.9,12.1-3.9,13.8C402.4,110.6,399.6,110,401,106.8z"/>
	<path class="st2" d="M426.6,116.8c0,0,2.4-13.6,2.4-24.6c3.4,0.1,4.6,0.1,4.6,0.1s-0.8,15.5-2.8,20.7c-2,5.2-3.1,5.8-3.7,6.1
		C426.6,119.3,426.2,119,426.6,116.8z"/>
	<path class="st2" d="M418.4,116.5c0,0,1.3-7,1.7-9.6c2.5,0,3.7,0.4,3.7,0.4s-0.7,9-2.8,11C418.8,120.3,417.4,119.4,418.4,116.5z"/>
	<path class="st2" d="M409.4,111.8c0,0,3.8-9.7,4.6-16.9c0.8-7.2,0.7-14.2,0-15.5c0.7-2.8,2-3.7,2-3.7l3.9,5.3c0,0-0.4,9.9-2.3,16.8
		c-1.8,6.9-4.4,13.2-5.8,15.2C410.5,115.1,408.6,114.2,409.4,111.8z"/>
	<g>
		<path class="st2" d="M380.2,131c-1.9-4.1-6.7-9.6-6.7-9.6l-4.8,5.6l2,4.1c0,0,3.3,7.9,4.4,12.5c1.1,4.6-0.6,9.7-0.6,9.7l-0.4,3
			l2.6-0.3l4.5-4.7l1.8-4.6c0,0,0.5-3.6-0.6-7.4c-1-3.8-2.5-8.8-2.5-8.8"/>
	</g>
	<path class="st2" d="M361.4,111c-2.9,2.7-2.9,9.2-2.8,12.4c0.1,3.1,0,7.1-2.1,12c-2.1,5-12,16.5-15.5,19.8
		c-3.5,3.3-2.7,4.7-1.2,6.5c1.5,1.8,3,0.6,6.6-4.8c3.6-5.4,5.2-6.6,11.9-11.5c6.8-4.8,8.2-7.2,10.4-11.3c2.1-4,4.4-5.5,4.4-5.5
		l1.4-10.4l-8-8.9L361.4,111z"/>
	<path class="st2" d="M360.6,166.6c-2.9-0.3-4.4,2.9-6.3,7.8c-1.9,4.8-5.3,7.8-7.5,9.7c-2.2,1.9-4.2,0.7-4.3,2.9
		c-0.1,2.3,1.6,2.5,3,4c1.5,1.6,1.6,2.5,3.7,2.7c2.1,0.2,2.6-2.1,2.6-2.1s0,0,4.5-7.6c4.5-7.6,11.3-9.9,11.3-9.9l1.7-4.2l-3.4-4.8
		L360.6,166.6z"/>
	<path class="st2" d="M406.5,139.6c0,0,5.1,1,8.5,1c3.4,0,2.6,1.4,0.8,2.4c-1.9,1-6.5,3.9-14.6,3.4c-0.1-2.5-0.4-4-0.6-4.5l0.6-4.3
		L406.5,139.6z"/>
	<g>
		<path class="st2" d="M459.5,142.6c0,0-2.6-2.8-5.1-5.2c-2.5-2.4-5-3.9-5-3.9c1-1.9,2.5-10.9,2.5-10.9c0.1-0.5,0.4-2.8,0.3-3.8
			c-0.1-0.9-0.3-2.4-0.3-2.4l-0.9,0.6l-1.8,1.9l-1,1.7l-0.4,2c0,0-0.9,6.9-1.5,9.7c-0.6,2.8,1,3.4,1,3.4s4.4,3.6,5.8,5
			c1.4,1.4,0.9,3,0.9,3s1.9-0.7,2.9,0.8C457.2,143.1,459.1,142.8,459.5,142.6z"/>
	</g>
	<path class="st2" d="M456.5,144.3c0,0,1.4-2.8,3-1.8c2.1,4.3,2.8,7.4,0.3,9.9c-2.5,2.5-5.5,2.8-5.5,2.8c2-2.1,4.3-3.9,3.6-6.3
		C457.3,146.6,456.5,144.3,456.5,144.3z"/>
	<path class="st2" d="M457.6,147.4c0,0-2.6,4.4-7.2,3c3.1-2.3,3.4-5.5,3.4-6.8c1-0.5,2-0.3,2.8,0.6
		C457,145.6,457.6,147.4,457.6,147.4z"/>
	<g>
		<path class="st2" d="M351.5,116.4c0,0-0.8,7.9-2.8,12.6c-2,4.7-1.5-0.5-1.2-2.3c0.3-1.7,0.6-7.7,0.6-9.1l1.2-6L351.5,116.4z"/>
		<path class="st2" d="M344.5,120c0,0,0.3,4.3-0.2,7.3c-0.5,3-0.3,2.5-1.6,4.4c-1.3,1.9-3.1,2.5-2.5,0c0.6-2.5,1.3-4.3,1.3-6.5
			c0-2.2-0.2-4.8-0.2-4.8l0.7-4.4L344.5,120z"/>
		<path class="st2" d="M338.8,123.3c0,0-0.2,5.1-2.3,8.2c-2,3.1-2.3,3.8-3.3,5c-1.1,1.2-1.9,0.3-1-1.9c1-2.3,3.4-9.4,3.9-11l1-4.1
			L338.8,123.3z"/>
		<path class="st2" d="M332.5,126.1c0,0-0.9,5.2-3.1,8.4c-2.3,3.2-3.4,5-4.8,6.7c-1.4,1.7-0.8-1-0.4-2.2c0.3-1.2,1.4-4.8,2.9-7.5
			c1.5-2.7,2.2-4.5,2.2-4.5l0.4-4.3L332.5,126.1z"/>
		<path class="st2" d="M324.4,128.9c0,0-3.8,11.5-6,15.5c-2.3,4-4.8,4.7-3.1,0.2c1.7-4.5,6-15.6,6-16.1l0.2-3.5L324.4,128.9z"/>
		<path class="st2" d="M317.3,132.6c0,0-3.1,8.3-5.1,12.1c-1.9,3.8-1.9,4-3.8,6c-1.8,2-2.7,1.1-1.6-1.4c1.1-2.5,5.9-14.2,6.7-15.9
			l1-3.6L317.3,132.6z"/>
		<path class="st2" d="M308.3,135.3c0,0-0.5,5.7-2.9,9.8c-2.5,4.1-3.6,5.3-5.2,7.3c-1.6,2-1.1-0.5-1-1.8c0.1-1.3,1-4.1,2.5-6.9
			c1.5-2.8,2.4-4.2,2.4-4.2l-0.1-4.9L308.3,135.3z"/>
		<path class="st2" d="M298.7,141.4c0,0-0.4,3.3-2.5,6.9c-2,3.6-1.5,3.1-2.8,5c-1.3,1.8-1.2,0.5-1.2-0.6c0-1.2-0.2-3,0.8-5.1
			c1-2,2.6-5.7,2.6-5.7l-0.1-3L298.7,141.4z"/>
		<path class="st2" d="M292.5,142.5c0,0-1.2,3.8-2.7,6.8c-1.5,3-1.1,3.5-2.7,5.9c-1.6,2.3-2.4,1.5-2.2-0.5c0.2-2,2.2-9,3.7-11.4
			l1.3-4.1L292.5,142.5z"/>
		<path class="st2" d="M285.1,144.5c0,0-2,4.8-4.1,7.9c-2.1,3.1-2.6,3.9-3.2,3.5c-0.6-0.4-0.9-1.2,0.1-3.3c1-2,3.2-6.9,3.2-6.9
			l0.7-4.6L285.1,144.5z"/>
		<path class="st2" d="M277.6,145.6c0,0-1.9,3.3-3.9,6.3c-2,3-2.4,4.1-3.1,3.9c-0.7-0.2-0.7-1.1-0.1-2.8c0.6-1.7,1.7-4.1,2.9-6.2
			l1.8-4.5L277.6,145.6z"/>
		<path class="st2" d="M269.4,147.4c0,0-2,3.8-4.4,6.5c-2.4,2.7-2.9,2.1-2-0.3c0.9-2.4,1.8-5.3,1.8-5.3l2.7-4.5L269.4,147.4z"/>
		<path class="st2" d="M261.4,148.8c0,0-2.1,4-4,6.2c-1.9,2.2-1.5-0.2-1-1.2c0.5-1,2.1-4.8,2.1-4.8l1.6-2.8L261.4,148.8z"/>
		<path class="st2" d="M254.5,150c0,0-1.5,2.7-3.3,5c-1.8,2.3-0.9-0.2-0.6-1.2c0.3-1,1.4-3.8,1.4-3.8l1.6-2.9L254.5,150z"/>
		<path class="st2" d="M249.4,151.2c-0.2,0-2.3,3.2-3.7,4.8c-1.4,1.6-0.5-1-0.2-1.9c0.3-0.9,0.9-2.4,0.9-2.4l1.3-2.8L249.4,151.2z"
			/>
		<path class="st2" d="M244.8,151.9c0,0-1.7,2.6-2.7,3.8c-0.9,1.3-0.8-1.4,0.2-3.1l1.3-3.3L244.8,151.9z"/>
		<path class="st2" d="M240.5,153.2c0,0-1.6,1.9-2.5,2.8c-0.9,0.9-0.5-0.3-0.3-1c0.2-0.7,0.3-1.6,0.3-1.6l1-2.3L240.5,153.2z"/>
		<path class="st2" d="M237.1,153.2c0,0-0.2,2.1-1.2,3c-1,0.9-1.5,0-1-0.7c0.5-0.7,0.5-1.7,0.5-1.7l0.3-1.7L237.1,153.2z"/>
		<path class="st2" d="M233.8,154.4c0,0-1,1.7-2.2,2.4c-1.2,0.7-0.5-1-0.4-1.6l0.5-2.8L233.8,154.4z"/>
		<path class="st2" d="M230.3,155.4c0,0-0.8,2-1.5,2c-0.7,0.1-0.4-1.2-0.3-1.6l-0.5-2.1L230.3,155.4z"/>
		<path class="st2" d="M338.4,106.9c0,0-1.6-1.9-2.4-3.3c-0.8-1.4-1.9-3.2-3.7-2.3c-1.8,1-1.9,1.6-1.9,1.6s-0.8,1.3,0.3,2.3
			c1.6,1.5,2.8,3.4,2.8,4.4l0.5,2.5l2.1-0.4l1.4-1l1.2-1.3l0.3-0.6L338.4,106.9z"/>
		<path class="st2" d="M329.6,111.2c0,0-0.7-3.4-2.3-5.4c-1.6-2-2.7-2.1-3.5-1.4c-0.8,0.7-1.2,1.6-1.2,1.6s-0.7,1,0.1,2.4
			c0.9,1.4,2,3.6,1.8,4.7l1,1.8l2.2,0.1l1.8-0.6l1.1-0.9L329.6,111.2z"/>
		<path class="st2" d="M323.3,115c0,0-1.7-0.9-1.9-3.1c-0.3-2.2-0.6-2.6-1.4-3.4c-0.9-0.9-2.2-1.3-3-0.3c-0.8,1-1.3,1.8-1.3,1.8
			s-0.9,0.9,0.6,3c1.5,2.1,1.8,2.9,1.8,2.9l2.4,2.4l2.6-0.5l1.4-1.2L323.3,115z"/>
		<path class="st2" d="M315.3,117.6c0,0-1.6,0-1.9-2.2c-0.4-2.2-0.4-2.7-1.5-3.6c-1.1-1-2-0.9-2.8-0.4c-0.8,0.5-1.4,1.2-1.4,1.2
			s-1.5,1.1-0.2,2.9c1.3,1.8,2.5,2.9,2.3,4.9c0,0,0.4,2.3,0.6,2.4c0.2,0.1,3-0.9,3-0.9l2.4-1.7l0.4-1.2L315.3,117.6z"/>
		<path class="st2" d="M307.3,121.1c0,0-0.8-0.3-1.4-2.1c-0.6-1.9-1.2-2.8-1.9-3.6c-0.8-0.8-1.4-0.7-2.3-0.3
			c-0.9,0.4-1.9,1.3-2.5,1.9c-0.5,0.6-0.7,1.2,0.2,2.5c0.9,1.3,2.2,3.3,1.9,4.5l1.1,2.7l2.3-0.4l2.3-1.3l0.7-0.9L307.3,121.1z"/>
		<path class="st2" d="M298.6,125c0,0-0.1,0-0.2-0.1c-0.2-0.1-0.6-0.5-0.8-1.5c-0.3-1.4-0.3-1.6-0.3-2.5c0-0.9-0.3-1.6-1.3-2.1
			c-1-0.5-2.6-0.7-3.5,0.1c-0.9,0.8-0.7,1.5-0.1,2.5c0.9,1.5,1.9,2.7,1.5,3.8c-0.4,1.1-1,2.4-1,2.4l0.3,2.3l2.8-0.3l2.8-1.8l0.9-1.1
			L298.6,125z"/>
		<path class="st2" d="M291.1,128.2c0,0,0.2-2-0.3-3.9c-0.5-1.9-1.3-2.6-2.1-2.3c-0.7,0.3-2.5,0.9-2.5,0.9s-1.2,0.3-0.5,1.9
			c0.6,1.6,1.3,3.3,0.8,4.5l0.6,2.2l1.6,0.7l2.3-0.8L291.1,128.2z"/>
		<path class="st2" d="M283.9,130.2c0,0-0.5-0.9-0.8-2.1c-0.1-0.3-0.2-1.1-0.1-2.2c0.1-1.1-0.7-1.9-1.8-1.6c-1,0.3-2.5,0.6-1.7,2.8
			c0.8,2.2,1.1,3.1,1,4.1l1.2,2.7l1.3,0.2l1.8-1.1L283.9,130.2z"/>
		<path class="st2" d="M278.1,132.7c0,0-1.6-0.1-1.7-1.6c-0.2-1.4-0.3-1.7-0.4-2.6c-0.2-0.9-1-1.9-2.1-1.3c-1.1,0.5-1.9,1.1-1.3,2.6
			c0.6,1.4,1.1,2.8,0.8,4.2l0.8,2.8l3.2-0.7l1.6-1.2L278.1,132.7z"/>
		<path class="st2" d="M270,135.2c0,0-0.7-0.4-0.7-1.9c-0.1-1.5-0.6-2.4-1.5-3c-0.9-0.6-1.6-0.3-2.2,0.2c-0.6,0.5-0.9,1.5-0.2,2.5
			c0.6,1,1.4,2.3,1.2,3.4l1.3,3l2.2-0.7l1-1L270,135.2z"/>
		<path class="st2" d="M263.5,137.6c0,0,0-1.1,0.1-2.1c0.1-1-0.1-1.5-1.1-2c-1-0.6-2.4-1.1-2.4-1.1s-0.9-0.4-1.2,0.2
			c-0.3,0.6-0.3,0.8,0.3,1.8c0.6,1,1.1,1.8,1.1,2.7c0,0.9-0.6,1.8-0.8,2.2l0.6,1.8l1.2,0.9l3-1.4
			C264.3,140.5,263.3,137.4,263.5,137.6z"/>
		<path class="st2" d="M258,139.8c0,0-1.1,0-1.5-1.4c-0.4-1.3-0.7-2.2-1.6-3.2c-0.9-1-1.6-1.2-2.4-0.4c-0.8,0.8-0.2,1.5,0.3,2.3
			c0.5,0.8,1,1.9,0.7,2.8c-0.3,0.9-0.7,1.6-0.7,1.6l0.7,2l1.8-0.4l2.1-0.7l1.2-0.6L258,139.8z"/>
		<path class="st2" d="M250.6,141.9c0,0,0-1.2,0-2.1c0-0.9-0.4-1.3-1.1-1.8c-0.7-0.5-2.2-1.3-2.2-1.3s-0.9-0.5-1.3,0
			c-0.5,0.5-0.2,1.1,0,2c0.3,0.9,0.8,1.9,0.8,2.6c0,0.7-0.2,1.6-0.6,2.1l0.5,2l1.5,0.5l2.1-1L250.6,141.9z"/>
		<path class="st2" d="M243.6,144.9c0,0,0.2-1.2-0.5-2.6c-0.7-1.4-1.4-1.9-2.1-2.3c-0.7-0.4-1.5,0-1,1c0.5,0.9,1.1,2.1,1.2,2.8
			c0.1,0.7-0.3,1.8-0.3,1.8l0.9,2.3l2.1-0.9L243.6,144.9z"/>
		<path class="st2" d="M239.2,145.9c0,0,0.4-0.9-1-2.4c-1.4-1.5-2-2.3-2.7-1.8c-0.7,0.5,0,1.2,0.3,1.9c0.3,0.8,0.6,2.8,0.4,3.3
			l1.2,1.8l1.1-0.3l1.2-0.5L239.2,145.9z"/>
		<path class="st2" d="M234.8,148.3c0,0,0.2-1.2-0.6-2.4c-0.8-1.2-2-2.2-2.8-1.8c-0.8,0.4-0.6,0.9-0.3,1.9c0.3,0.9,0.7,3.1,0.7,3.1
			l0.7,1.3l1.6-0.3l1.6-0.6L234.8,148.3z"/>
		<path class="st2" d="M230.9,149.4c0,0-0.9-0.9-1.9-1.9c-1-1.1-1.6-0.7-1.6,0c0,0.8,0.5,1.6,0.6,2.3c0.1,0.6,0,1.3,0,1.3l0.4,1.2
			h1.6l1-1.7L230.9,149.4z"/>
		<path class="st2" d="M226,151.4c0-0.1-0.5-1.2-1.3-2.2c-0.9-1-1.5-0.7-1.6,0.1c-0.1,0.8-0.2,3.6-0.3,3.9l0.7,1.3l0.8,0.5l1.8-1.2
			L226,151.4z"/>
		<path class="st2" d="M221.7,153.2c0,0-0.3-1.5-0.8-2c-0.5-0.5-1.1-0.4-1.3,0.4c-0.2,0.8-0.2,2.4-0.2,2.4l1.5,1.5l1.6-0.6
			L221.7,153.2z"/>
		<path class="st2" d="M218.9,154.3c0,0-0.6-1.6-1.5-1.4c-0.9,0.2-0.6,0.8-0.6,1.4c0,0.7,0,1,0,1l0.8,1.4l1.4-0.4l0.8-0.7
			L218.9,154.3z"/>
		<path class="st2" d="M215.3,156c0,0-0.7-1.1-1.4-0.6c-0.7,0.5-0.5,2.2-0.6,3l1.2,1.2l1.9-2L215.3,156z"/>
	</g>
	<path class="st2" d="M360.3,112.5c0,0-1.9-0.9-3.8,1.3c-1.9,2.1-4,2.8-6.2,2.3c-2,3-6.5,4.9-9.2,4.4c-1.1,3.4-4.8,3.1-6.5,2.6
		c-0.3,2.5-4,4.8-6.2,3.5c-2.5,2.3-6.2,2.8-7.3,2c-1.1,2.3-3.9,5.1-6.7,3.8c-1.5,3.8-4.6,3.9-6.3,2.9c-0.6,3.1-4.4,4.9-6.4,3.8
		c-2.3,2.3-4.5,3.3-7,2.4c-2.9,1.9-7,1.9-7.5,2c0,0-3.6,1.9-6,2.1c-2.4,0.2-3.6,0-3.6,0c-1.6,1-3,1-5.5,1.3
		c-2.5,0.3-4.9,0.4-4.9,0.4c-1.1,0.9-4.3,1.5-6.7,1.6c-2.4,0.1-3.1,0.2-3.1,0.2s-2.3,0.8-3.9,0.9c-1.6,0.1-3.1,0.8-3.1,0.8
		c-2.5,1.1-5,1.1-6.4,1.1c-2.1,1.1-5.4,1.8-6.9,1.4c-2.8,0.9-5.1,1.9-6.3,1.9c-2.9,0.8-4.6,0.6-5.7,1.6c-1.6,1.3-2.9,0.9-4,0.9
		c-1.8,1.9-2.5,2.3-4.4,3.1c-1.9,0.9-2.1,2-3.3,2.4c-1.1,0.4-0.5-0.3-1.1,0.4c-0.6,0.6-0.9,1.5-1.6,2.5c-0.8,1-1.4,2.3-1.4,2.3
		s-1.5-2-0.9-4c0.6-2,2.3-4.3,3-4.8c0.8-0.5,1.9-0.6,2.3-1.9c0.4-1.3,3.4-2.8,4.4-2.4c1.8-2,4.3-2.1,5.5-1.9
		c1.4-2.1,4.1-2.4,5.3-2.3c2.1-2.4,4.9-2.8,5.9-2.8c1.8-2,2.4-2,3.6-2.1c1.3-0.1,3.6-1,3.6-1l1.5-0.2c0,0,3-1.6,3.8-2
		c0.8-0.4,5-1.3,6.4-1.8c1.4-0.5,2.9-0.5,2.9-0.5c2.6-1.5,6.5-2.9,7.8-3.3c3.1-2.1,6-1.9,7-2.4c2.6-1.9,6.7-2.3,6.7-2.3
		c2.4-2,5.8-2.5,5.8-2.5c1.1-0.9,4.9-1.5,6.4-1.8c1.5-0.3,1.5-0.3,1.5-0.3s3.9-1.9,5.9-2.3c2.6-2.3,7.2-2.4,7.2-2.4
		c0.6-1.6,3.9-3.5,6.5-3.1c1.4-2.5,4.6-3.3,6.3-3c0.1-2.6,1.9-2.1,3.5-2c1.6,0.1,2.6-0.2,3.1-1.8c0.5-1.5,3.6-1.6,4.5-1.4
		c1.1-2.3,4-2.8,5.3-2.4c0,0,2-2.8,4.3-3c2-3.4,3.1-4.6,3.1-4.6s8.3-8,14.8-2.9c6.5,5.1,7.3,10.7,7.3,10.7L360.3,112.5z"/>
	<path class="st2" d="M384.3,84.2c-4.5,1.1-5.2-1.9-6.7-3.6c-1.5-1.8-3.9-1.1-4.4,2.1c-0.2,1.5-2.1,2.1-4.3,2.5
		c-2.1,0.4-8.9-0.6-18.8,2.8c-9.9,3.4-12.1,10.7-12.9,12.9c-0.9,2.3-0.8,3.9,1.5,2.4c2.3-1.5,10.7-1.9,14.6-1.3
		c3.9,0.6,5.8,3,6.9,5.3c1.1,2.3,2,7,4,8.4c0.1-1,1.3-2.5,5.2-5.3c3.9-2.8,10.3,1.8,12.3,2.8c2,1,2.8,2.6,4.6,0.5
		c1.9-2.1,3-2.3,3-2.3s-0.6-2.3-4.1-3.9c-3.5-1.6-7.2-3.4-7.2-5.7c0-2.3,3.2-5.9,8.8-3.8C386.8,98.2,387.6,89.4,384.3,84.2z"/>
	<path class="st2" d="M455.5,114.8c0,0-10.9,16.8-34.4,13.8c-0.6-0.1-1.4-0.9,0.1-1.3c1.5-0.4,29.5-4.6,31.7-25.1l2.7,0.9
		L455.5,114.8z"/>
	<path class="st2" d="M436.5,115.9c0,0,1.8-10,1.8-16.5c0-9.3-2-20.2-2-20.2c2.8,0.2,8-0.5,8-0.5s1.3,13.9-0.8,25.3
		c-1.5,8.3-2.3,11.7-3.2,13.8C439.1,120,435.5,120.2,436.5,115.9z"/>
	<path class="st2" d="M492.1,46.3c0,0-5.7-1.9-7.2,1.4c-3.7-1.3-3.8-1.3-4.1,0.3c-0.3,1.6-0.5,2-2.5,0.9c-2-1-5.6-2.4-6.5-0.7
		c-0.9,1.8,0.9,4.3,0.9,4.3c-3.3-1-6.1-1.4-7.1-0.8c-0.9,0.6,0.5,3.4,1.8,4.4c-4-1.1-7.3-0.4-4.1,3.7c-5.4-0.8-7,0.6-3.2,4.3
		c-4.3-1.4-5.8,1-4,3.1c-2.9-0.5-3.1,0.6-2.8,1.4c0.3,0.8,0.3,2.3,0.3,2.3s0.7,1.8-1.6,2.9c-2.3,1.1-6-0.1-7.6-0.8
		c-1.6-0.7-3.2-2.4-4.3-5.5c-1.1-3-3-4.9-4.7-5c-1.7-0.1-2.4,0.4-1.9,2.7c0.5,2.4,0.6,3.8,0.7,5.1c0.1,1.3-1.2,2.2-2.6,1
		c-1.4-1.1-2.2-2.8-2.6-4.2c-0.5-1.4-1.2-3.2-2.7-4c-1.5-0.8-4.2-0.5-3.4,2.1c0.8,2.5,2.1,4.1,2.4,5.6c0.3,1.5-0.6,3.3-2.3,2.7
		c-1.7-0.6-3-2-4.1-4.9c-1.1-2.9-3.1-5.6-5.4-4.4c-2.3,1.1-2.7,3.2-0.9,5.4c1.8,2.2,2.3,4.6,1.2,5.2c-1,0.6-3.1,0.7-4.7-1.8
		c-1.6-2.4-2.3-2.9-3.6-4.9c-1.3-2-2.9-2.6-4.1-1.4c-1.2,1.2-2,3.7-0.6,5.7c1.4,2.1,2.7,3.4,2.6,4.3c-0.1,0.9-1.6,1.9-3.7,1.1
		c-2.1-0.8-3.1-2.7-3.8-4.3c-0.7-1.6-1.6-3-3.4-2.6c-1.8,0.4-2.9,2.3-2.7,4.1c0.2,1.8,0.4,2.3,1.7,3.4c1.3,1.1,1.5,2.4,1.9,3
		c-1.1,1-2.8,1.1-4.2-1c-1.4-2.2-1.8-3.1-3-4.1c-1.2-1-2.4-1.1-3.4-0.3c-1,0.8-1.3,2-0.5,3.7c0.9,1.7,3.4,7.3,3.8,13
		c0.4,5.7,0.5,11.2,2.6,13.5c2.2,2.3,3.5,0.2,3-2.1c-0.5-2.3-0.6-8.7-0.2-10.9c0.4-2.3,2.1-10,4.2-7c0.8,1.1-0.1,6.6-1.3,10.7
		c-1.1,4.1-0.4,7.4,0.3,9.5c0.6,2.1,3.1,3.6,4.4,2.8c1.3-0.9,1-4.5,0.9-7.4c-0.1-2.9,0.6-6.4,2-9.8c1.4-3.4,1.8-6.9,1.8-9
		c0-2.1,1.4-3.1,2.1-1.1c0.8,2-0.1,6.7-0.5,9.8c-0.4,3.1-1.5,7.9-2.1,13.1c-0.6,5.2,1,7.5,2,8.5c1,1,1.9,1.9,2.5,0.6
		c0.6-1.3,0.3-2.8-0.1-6.4c-0.4-3.6,0.6-9.2,1.4-11.8c0.8-2.6,4.5-13.7,5.1-15.5c0.6-1.8,0.9-2.5,1.8-1.6c0.9,0.9,0.9,4.4,0.4,9.3
		c-0.5,4.9-2.5,12.2-4.1,19.6c-1.6,7.4,1.8,10.3,2.8,11.2c1,0.9,3.1,2.6,2.1-1.3c-1-3.9,0.9-13.9,2.6-17.8c0,0-0.5,4.5-0.5,8.4
		c0,3.9,1.4,9.4,3.6,12.2c2.3,2.8,3.5,0.4,2.9-2.1c-0.6-2.5-0.9-3.9-0.5-9.4c0.4-5.5,1.6-9.8,3.8-16.5c0,1.1-0.1,7.5-0.1,11.2
		c0,3.6,0.8,12.8,1.8,15.7c1,2.9,3.9,3.8,4.9,3c1-0.8,1.4-1.8,0.9-3.1c-0.5-1.4-1.3-2.8-2.4-6.3c-1.1-3.5-0.6-7.2,0.5-15.2
		c1.1-8,1.7-18.2,1.7-18.2c0.4-4.1,4.4-2.7,5.8-1.6c1.4,1.1,2.5,2.9,4,6c1.8,4,5.7,6.7,7,6.7c1.2,0,2.8-0.2,4.8-2.2
		c0.9,0.7,3.3,0,5.1-2.2c0.8,0.8,3.4-0.8,5.4-2.5c1.1,0,2.8-0.8,4.4-3.2c0.7,0.1,2.8-0.8,3.8-2.5c1.4,0.1,3.9-1.7,4.3-4.1
		c2.5-1,2.8-4.9,2.8-4.9c2.7-0.8,2.7-5.6,2.9-8.8c0.2-3.1,3.1-2.2,4.5-1.7c0,0-1.4,2.4-1.3,5.7c0.1,3.3,4.5,5.9,4.5,5.9l1.8-8.2
		l-1.9-5.8l0.4-3.8l1.3-3.1c0,0,0.5-2.6,0.1-2.7C495.5,46.4,492.1,46.3,492.1,46.3z"/>
	<path class="st2" d="M460.8,109.4c0,0,1.1-1.1,2.8-3.5c1.6-2.4,2.8-4.5,0.4-6.5c-2.4-2-9.8-6.8-13.2-10.2c-3.4-3.4-3.1-5-3-8.2
		c0.1-3.1-0.9-8.8-6.7-7.7c-5.8,1.1-5.3,4.3-5.2,5.3c0.1,1,1.3,3,3.1,4.9c1.9,1.9,7,8.5,8.8,10.7c1.8,2.1,5,5.5,5.7,11.1
		c0.6,5.5,0.1,8.5,2,9.5C457.4,115.8,460.3,113.6,460.8,109.4z"/>
	<path class="st2" d="M408,139.3c0,0-2.5,0.4-5.3,1.8c-2.8,1.4-4.5,2.4-6.4-0.8c-1.9-3.1-5.3-5.5-11.6-7.9
		c-6.3-2.4-12.2-3.3-15.3-6.7c-3.1-3.4-5.5-6.8-5.3-9.9c0.3-3.1,4.3-7.5,9.5-4.3c5.3,3.3,8.9,8.9,11.4,11.2
		c2.5,2.3,9.9,6.8,16.1,8.3c6.2,1.5,9.8,2.6,10,4.5C411.5,137.4,410.8,138.9,408,139.3z"/>
	<path class="st2" d="M401.2,146.4c0,0-1.3,3-5.9,3.3c-4.6,0.3-9,0.3-12.7,4.1c-3.6,3.9-7.5,7.4-10.4,10.5c-2.9,3.1-6.5,5.3-6.5,5.3
		s-0.6-1.4-2.8-2c-2.1-0.6-4.9-2.9-4.8-6.4c0.1-3.5,2.1-5.8,5.9-4.9c3.8,0.9,6.2-0.1,9-2c2.9-1.9,9.7-6.5,12.1-10
		c2.4-3.5,4-8.2,10.4-5l5.9,1.7L401.2,146.4z"/>
	<path class="st2" d="M372.6,164c2.5,0.8,1.8,3,0.8,4.8c-1,1.8,1.5,2.9,1.5,2.9s10.7,6.5,12.7,7.8c2,1.3,2.1,2.8,1,6.3
		c-1.1,3.5,1.9,8.9,4.8,12.8c2-0.4,4.4,1.3,4.1,3.5c1.6-0.8,2.9-0.5,2.4,2.5c1.3-0.5,2.4-1.1,4.1,1.1c10.6-1.1,7.8,8.9,7.8,8.9
		c-0.5-4.4-7.3-6.2-8.9-5.9c-2.3,1-5.3,0.1-5.8-1.1c-0.6,0-2.5,0.8-3-0.4c-0.5-0.2-5.1-3.6-5.1-3.6l-2.3-1.8c0,0,0,0-0.1,0.8
		c0.8,0.4,2.6,1.9,1.9,4c2,0,3.9,1.8,4.4,3.8c0.9,0.3,4,2.5,5.3,4.6c1.3,2.1,1,6.7,0.1,7c-0.9-2.9-4.9-5.9-6.9-6
		c-2-0.1-3,0.1-3.3-1.3c-2.1,0-3.6-2-3.4-5.3c-1.5-0.1-3.5-2.5-2.8-4.9c-0.5-0.1-1.3-1-1.9-2.6c-0.6-1.6-1.9-5.5-1.9-5.5
		c-0.8-2.3-1-3.9-0.2-6.2c0,0-0.9-0.4-1.4-1.1c-0.5-0.8-2.8-5.4-4.6-7.9c0,0,0.4,2.1,0.8,5.4c0.4,3.3,0.8,8.2-1,9.6
		c0-2-1.4-6.2-2.9-8.7c-1.5-2.5-1.1-4.1-0.5-6.8c0.6-2.6,2-5.3,1-6.8c-6.5,0.6-3.5-4.3-3.5-4.3l3.6-5.9L372.6,164z"/>
	<path class="st2" d="M384.6,186.1c1.8,0.3,3.2,0,4.2-1c-1.4,0.3-3.6-0.2-5.3-0.4c0.7,2.1,0.4,3.4-0.3,4.5c-0.9,1.6-5.3,1-5.3,1
		s3.5,1,5.8-0.3c3.8,4.9,3,11.8,3,11.8s1.1-7.8-2.1-13.1C384.9,187.8,384.7,186.7,384.6,186.1z"/>
	<path class="st2" d="M373.3,223.8c2.4-0.2,8.3,0.5,8.3,0.5s-0.9-1.7-2.5-3.8c-1.6-2.1-5-2.1-7.5-2.6c-1.4-1.6-2.9-1.8-6-1.5
		c-3,0.3-6.3,0.5-6.3,0.5l-2.4,3.9L373.3,223.8z"/>
	<path class="st2" d="M343.9,189.6c-2.1,1.5-1,3.9-0.3,7.8c0.7,3.8,1,11.7,0.8,14.7c-0.2,3,0.8,4.2,2,5.1c1.2,0.9,2.8,2.4,5.1,3.5
		c2.2,1.1,3.7,2.7,3.7,2.7c0.6,1.5,3.5,1.1,5.8,0.6c0.8,0.8,3.1,0.8,5.2,0.2c0.3-0.1,4.5,0.2,7.5,0.2c-1.3-2.5-4.6-3.7-6.7-3.8
		s-2.1-0.1-4.2-1.1c-1.2-1-3.4-1.4-3.4-1.4s0.1-2.8-1.5-3.1c-1.6-0.3-3.4-2.1-3.5-3.7c-0.1-1.6-1-14.2-3.7-17.8l-3.8-4.9
		L343.9,189.6z"/>
	<path class="st2" d="M460.8,127.1c-0.6-0.8-2.5-3.4-5-4.9c-4.6,1-7.5-0.5-8.9-2.1c-1.4-1.6-0.6-4.3,0.8-8.2c1.4-3.9,0.9-9,0.9-11.9
		c0-2.9-2.5-2.8-4.9-3.1c-2.4-0.4-2.4-3,0-5.3c2.4-2.3,4.9,0.1,6.2,0.8c2.4,1.3,3.3,5.4,2.6,8.4c-0.7,3-0.9,3.3-1.5,6.7
		c-0.6,3.4-1,8.9-0.1,10.8c0.9,1.9,3.5,1.6,5.3,1c1.8-0.6,2.8-0.1,3.5,0.5c0.8,0.6,1.3,1.9,2.3,3c1,1.1,5.6,4.2,5.6,4.2l-0.2,1.3
		l-0.3,0.7l-2.3,0.7l-0.8,0.7l-1.3-0.8L460.8,127.1z"/>
	<path class="st2" d="M542.9,58.6c-0.1-3.2-2.7-4.5-2.7-4.5l-12.6-6.9c0,0-4.8-2.6-5.8-6.8c-1-2.9-3.6-4.6-3.6-4.6L511,31
		c0,0-1.9-1.6-3.8,0c-1.9,1.6-5.3,3.4-8.2,3.3c-2.9-0.1-9,0.4-9.9,4.3c-0.9,4,2.5,7.5,4.1,8.8c1.7,1.2,0.9,2.4-0.2,3
		c-1.1,0.7-3.1,3.3-1.2,5.7c1.9,2.4,2.5,3.9,2.3,5.8c-0.3,2-0.6,6.1-0.6,6.1s-1.1,5.4,4.8,8.2c5.9,2.8,11.6,7.1,13.3,8.8
		c1.7,1.7,6.1,5.3,6.1,5.3s2.4,2.1,5.5,0.9c3.1-1.1,4.1-2.4,4.9-4c0.8-1.7-0.2-3.4-2-3.4c-1.8,0-6.9-2.4-9.7-6.5
		c-2.8-4.1-4-7.3-5.2-10.6c-1.2-3.2-5.8-13.2-14.1-15.2c1.7-1.6,3.4-2.5,6.2-0.1c2.8,2.5,15.7,12.2,33.4,16.1l1.6,0.5
		c0,0,1.4,0.8,2.8,0.5c2-0.4,2-3.2,2-3.2S543,61.8,542.9,58.6z M506,47.6c0,0-3.5-2.4-6-3.4c-2.5-0.9-3.4-3-2-4.3
		c1.4-1.3,2.5-2.1,4.2-1.9c1.7,0.2,3.8,1,4.1,3.4c0.3,2.4,0.4,2.4,0.8,3.7C507.6,46.4,507.7,48.5,506,47.6z M519.8,53.8
		c0,0-4-1.2-6.8-2.4c-2.5-1.1-2.4-3-2.4-4.5c0.1-1.5-0.5-3.3-0.7-5.2c-0.2-1.9,1.1-2.9,2.5-2.4c1.3,0.5,2.5,2.9,2.7,5.4
		c0.3,2.4,1,3.4,3,5.2C520.2,51.6,519.8,53.8,519.8,53.8z M527.9,57.2c0,0-5.3-6.1-6.9-8.2c-1.6-2.1-0.5-4.6,2.1-2.8
		c2.5,1.8,4.7,4.6,5.4,6.8C529.1,55.1,527.9,57.2,527.9,57.2z M537,58.4c-0.9,0.6-1.2,0.7-1.2,0.7s-0.9,0.7-1.9-0.8
		c-1.1-1.4-2.5-4-2.5-4s-0.6-0.9,0-1.4c0.6-0.5,1.9-0.1,2.7,0.6c0.8,0.7,3,2.7,3,2.7S538.5,57.4,537,58.4z"/>
	<path class="st2" d="M465.7,138.4c0,0,3-0.4,3.8-3.6c0.8-3.3,0-6.8-1.5-7.7c-0.8-0.9-2.8,1.1-3.4,2.3
		C466.2,132,467.2,135.5,465.7,138.4z"/>
	<path class="st2" d="M458.2,136.6c0,0,3.8,1,5.2-1.5c1.4-2.5,2-4.6,2-4.6s-1.4-4.3-4.5-3.4c0.1,2.5,0.8,4,0.8,4L458.2,136.6z"/>
</g>
<g>
	<path class="st2" d="M198.4,174.6c-10.6-9.1-15.4-23.6-14.1-33.2c1.3-9.7,2.1-26.6-5.2-41.4c-6.3-12.6-9.4-18.9-9.4-39.5
		c0-16.8,0-29.7,0-29.7H155c0,0,0,12.9,0,29.7c0,20.7-3.1,27-9.4,39.5c-7.4,14.8-6.5,31.7-5.2,41.4c1.3,9.7-3.6,24.2-14.1,33.2
		c-18.6,16-15.2,38.7-15.2,38.7l0,0c0.1,8.8,23,15.9,51.3,15.9c28.3,0,51.3-7.2,51.3-16c0,0,0-0.1,0-0.1
		C213.8,211.5,216.2,189.9,198.4,174.6z"/>
	<ellipse class="st2" cx="162.3" cy="30.9" rx="7.3" ry="3"/>
</g>
<path class="st3" d="M280,267.7h-20v-94.6c-0.3-4.1-1.2-28.1,14.7-45.6c10.8-11.8,26.3-17.8,46.3-17.8h199v20H321
	c-14,0-24.6,3.8-31.4,11.2c-11.1,12.1-9.7,30.7-9.7,30.9l0,0.9V267.7z"/>
<path class="st1" d="M210,267.7h-20v-50.6c-0.3-4.1-1.2-28.1,14.7-45.6c10.8-11.8,26.3-17.8,46.3-17.8c55.3,0,262.9-1,265-1l0.1,20
	c-2.1,0-209.7,1-265,1c-14.1,0-24.7,3.8-31.5,11.3c-11,12.1-9.6,30.6-9.6,30.8l0,0.9V267.7z"/>
<g>
	<rect x="504.5" y="428.7" class="st4" width="74" height="32"/>
	<rect x="898.5" y="428.7" class="st4" width="74" height="32"/>
	<polygon class="st5" points="972.5,442.3 504.5,442.3 504.5,92.7 514.5,62.8 962.5,62.8 972.5,92.7 	"/>
	<polygon class="st3" points="504.5,92.7 514.5,62.8 962.5,62.8 972.5,92.7 	"/>
	<polygon class="st0" points="946,198.2 905.5,157.7 573.2,157.7 531,196.5 531,359.8 532.7,358.2 573.7,399.2 573.2,399.7 
		905.5,399.7 905,399.2 946,358.2 946,358.2 946,198.2 	"/>
	<rect x="691" y="213.2" class="st1" width="95" height="19.5"/>
	<rect x="531" y="208" class="st4" width="415" height="11.3"/>
	<polygon class="st4" points="531,328.7 531,359.8 573.7,399.2 573.2,399.7 905.5,399.7 905,399.2 946,358.2 946,358.2 946,328.7 	
		"/>
	<rect x="802.6" y="62.8" class="st4" width="113.9" height="45"/>
	<rect x="802.6" y="91.2" class="st6" width="113.9" height="16.6"/>
	<polygon class="st7" points="802.6,62.8 802.6,107.8 816.7,90.9 816.7,62.8 	"/>
	<circle class="st1" cx="899.7" cy="76.9" r="10.3"/>
	<circle class="st0" cx="899.7" cy="76.9" r="7.3"/>
	<rect x="822.3" y="71.6" class="st0" width="5.3" height="3"/>
	<rect x="837.3" y="71.6" class="st8" width="5.3" height="3"/>
	<rect x="867.4" y="71.6" class="st0" width="5.3" height="3"/>
	<rect x="852.4" y="71.6" class="st9" width="5.3" height="3"/>
	<rect x="822.3" y="78.8" class="st9" width="5.3" height="3"/>
	<rect x="837.3" y="78.8" class="st8" width="5.3" height="3"/>
	<rect x="867.4" y="78.8" class="st0" width="5.3" height="3"/>
	<rect x="852.4" y="78.8" class="st8" width="5.3" height="3"/>
	<g>
		<g>
			<polygon class="st10" points="839.1,332.1 852.2,321.9 872.7,321.9 872.7,328.9 855,328.9 845,337.1 			"/>
			<g>
				<circle class="st11" cx="795.6" cy="316.4" r="31.2"/>
				<g>
					<defs>
						<circle id="SVGID_1_" cx="795.6" cy="316.4" r="31.2"/>
					</defs>
					<clipPath id="SVGID_2_">
						<use xlink:href="#SVGID_1_"  style="overflow:visible;"/>
					</clipPath>
					<circle class="st12" cx="799.4" cy="319.8" r="29.5"/>
				</g>
			</g>
			<g>
				<circle class="st11" cx="646.4" cy="326.9" r="18"/>
				<g>
					<defs>
						<circle id="SVGID_3_" cx="646.4" cy="326.9" r="18"/>
					</defs>
					<clipPath id="SVGID_4_">
						<use xlink:href="#SVGID_3_"  style="overflow:visible;"/>
					</clipPath>
					<path class="st13" d="M665.6,328.8c0,9.4-7.6,17-17,17c-9.4,0-17-7.6-17-17c0-9.4,7.6-17,17-17
						C658,311.8,665.6,319.4,665.6,328.8z"/>
				</g>
			</g>
			<g>
				<polygon class="st14" points="775.2,315.8 775.2,324 775.2,334.2 795.4,334.2 798.9,327.2 781.1,316.4 				"/>
				<path class="st14" d="M651,344.2l-14.5,9.6v10.4c0,0,130.9,0,136.4,0c5.5,0,18.4-0.9,26.1,7.8c41.7,0,48.9,0,48.9,0v-20.3
					l-7.6-7.5H651z"/>
				<polygon class="st15" points="637.6,324 623.4,331.3 636.5,353.8 651,344.2 				"/>
				<polygon class="st16" points="623.4,331.3 623.4,341.4 636.5,364.2 636.5,353.8 				"/>
				<path class="st16" d="M816.4,315.8h-41.3c0,0,7.1,0.1,8.5,6.4c0.3,1.5-0.7,1.7-1.8,1.7c-1.2,0-144.2,0-144.2,0l13.3,20.3h135.3
					c5.7,0,10.9,1.7,12.7,7.5h48.9L816.4,315.8z"/>
				<rect x="799" y="351.8" class="st15" width="48.9" height="20.3"/>
			</g>
			<g>
				<path class="st3" d="M681,316.3h-10.1v16.4h0c0,0,0,0,0,0c0,1,2.3,1.9,5.1,1.9c2.8,0,5.1-0.8,5.1-1.9c0,0,0,0,0,0h0V316.3z"/>
				<ellipse class="st17" cx="675.9" cy="316.4" rx="5.1" ry="1.9"/>
			</g>
			<g>
				<path class="st3" d="M765.7,316.3h-10.1v16.4h0c0,0,0,0,0,0c0,1,2.3,1.9,5.1,1.9c2.8,0,5.1-0.8,5.1-1.9c0,0,0,0,0,0h0V316.3z"/>
				<ellipse class="st17" cx="760.6" cy="316.4" rx="5.1" ry="1.9"/>
			</g>
			<circle class="st18" cx="760.6" cy="310.1" r="13.5"/>
			<g>
				<circle class="st11" cx="666.4" cy="358.8" r="19.3"/>
				<g>
					<defs>
						<circle id="SVGID_5_" cx="666.4" cy="358.8" r="19.3"/>
					</defs>
					<clipPath id="SVGID_6_">
						<use xlink:href="#SVGID_5_"  style="overflow:visible;"/>
					</clipPath>
					<circle class="st19" cx="668.7" cy="360.9" r="18.2"/>
				</g>
				<circle class="st20" cx="668.1" cy="361.3" r="8.1"/>
			</g>
			<polygon class="st21" points="796.7,316 826.2,291.5 852.2,321.9 819.2,348.6 			"/>
			<g>
				<circle class="st11" cx="827.5" cy="360.1" r="32.3"/>
				<g>
					<defs>
						<circle id="SVGID_7_" cx="827.5" cy="360.1" r="32.3"/>
					</defs>
					<clipPath id="SVGID_8_">
						<use xlink:href="#SVGID_7_"  style="overflow:visible;"/>
					</clipPath>
					<path class="st22" d="M861.9,363.6c0,16.8-13.6,30.5-30.5,30.5c-16.8,0-30.5-13.6-30.5-30.5c0-16.8,13.6-30.5,30.5-30.5
						C848.2,333.1,861.9,346.8,861.9,363.6z"/>
				</g>
				<path class="st20" d="M844,364.3c0,7.5-6.1,13.5-13.5,13.5c-7.5,0-13.5-6.1-13.5-13.5c0-7.5,6.1-13.5,13.5-13.5
					C837.9,350.8,844,356.8,844,364.3z"/>
			</g>
			<polygon class="st3" points="826.2,291.5 845.3,291.5 872.7,321.9 852.2,321.9 			"/>
		</g>
	</g>
	<path class="st18" d="M744.9,262.9c0,10.3-3.8,8.6-6.4,12.4c-3.7-3.7-6.4-2.5-6.4-12.4v-28.4c0-3.5,2.9-6.4,6.4-6.4l0,0
		c3.5,0,6.4,2.9,6.4,6.4V262.9z"/>
	<rect x="706.5" y="178.7" class="st6" width="64" height="64"/>
</g>
<g>
	<rect y="257.4" class="st6" width="450" height="278.6"/>
	<rect x="24.8" y="278.2" class="st4" width="400.5" height="233.1"/>
	<rect x="130.9" y="278.2" class="st23" width="294.3" height="233.1"/>
	<g>
		<g>
			<polygon class="st10" points="372.6,397.6 385.7,387.5 406.2,387.5 406.2,394.4 388.6,394.4 378.5,402.7 			"/>
			<g>
				<circle class="st11" cx="329.1" cy="382" r="31.2"/>
				<g>
					<defs>
						<circle id="SVGID_9_" cx="329.1" cy="382" r="31.2"/>
					</defs>
					<clipPath id="SVGID_10_">
						<use xlink:href="#SVGID_9_"  style="overflow:visible;"/>
					</clipPath>
					<circle class="st24" cx="332.9" cy="385.4" r="29.5"/>
				</g>
			</g>
			<g>
				<circle class="st11" cx="179.9" cy="392.4" r="18"/>
				<g>
					<defs>
						<circle id="SVGID_11_" cx="179.9" cy="392.4" r="18"/>
					</defs>
					<clipPath id="SVGID_12_">
						<use xlink:href="#SVGID_11_"  style="overflow:visible;"/>
					</clipPath>
					<path class="st25" d="M199.1,394.3c0,9.4-7.6,17-17,17c-9.4,0-17-7.6-17-17s7.6-17,17-17C191.5,377.3,199.1,384.9,199.1,394.3z
						"/>
				</g>
			</g>
			<g>
				<polygon class="st14" points="308.7,381.4 308.7,389.5 308.7,399.7 328.9,399.7 332.4,392.7 314.6,381.9 				"/>
				<path class="st14" d="M184.5,409.7l-14.5,9.6v10.4c0,0,130.9,0,136.4,0c5.5,0,18.4-0.9,26.1,7.8c41.7,0,48.9,0,48.9,0v-20.3
					l-7.6-7.5H184.5z"/>
				<polygon class="st15" points="171.2,389.5 157,396.9 170,419.3 184.5,409.7 				"/>
				<polygon class="st16" points="157,396.9 157,406.9 170,429.7 170,419.3 				"/>
				<path class="st16" d="M350,381.4h-41.3c0,0,7.1,0.1,8.5,6.4c0.3,1.5-0.7,1.7-1.8,1.7c-1.2,0-144.2,0-144.2,0l13.3,20.3h135.3
					c5.7,0,10.9,1.7,12.7,7.5h48.9L350,381.4z"/>
				<rect x="332.5" y="417.3" class="st15" width="48.9" height="20.3"/>
			</g>
			<g>
				<path class="st3" d="M214.5,381.8h-10.1v16.4h0c0,0,0,0,0,0c0,1,2.3,1.9,5.1,1.9c2.8,0,5.1-0.8,5.1-1.9c0,0,0,0,0,0h0V381.8z"/>
				<ellipse class="st17" cx="209.4" cy="381.9" rx="5.1" ry="1.9"/>
			</g>
			<g>
				<path class="st3" d="M299.2,381.8h-10.1v16.4h0c0,0,0,0,0,0c0,1,2.3,1.9,5.1,1.9c2.8,0,5.1-0.8,5.1-1.9c0,0,0,0,0,0h0V381.8z"/>
				<ellipse class="st17" cx="294.1" cy="381.9" rx="5.1" ry="1.9"/>
			</g>
			<circle class="st18" cx="294.1" cy="375.6" r="13.5"/>
			<g>
				<circle class="st11" cx="199.9" cy="424.3" r="19.3"/>
				<g>
					<defs>
						<circle id="SVGID_13_" cx="199.9" cy="424.3" r="19.3"/>
					</defs>
					<clipPath id="SVGID_14_">
						<use xlink:href="#SVGID_13_"  style="overflow:visible;"/>
					</clipPath>
					<circle class="st26" cx="202.2" cy="426.4" r="18.2"/>
				</g>
				<circle class="st20" cx="201.6" cy="426.8" r="8.1"/>
			</g>
			<polygon class="st21" points="330.3,381.5 359.7,357 385.7,387.4 352.7,414.1 			"/>
			<g>
				<circle class="st11" cx="361" cy="425.6" r="32.3"/>
				<g>
					<defs>
						<circle id="SVGID_15_" cx="361" cy="425.6" r="32.3"/>
					</defs>
					<clipPath id="SVGID_16_">
						<use xlink:href="#SVGID_15_"  style="overflow:visible;"/>
					</clipPath>
					<path class="st27" d="M395.4,429.1c0,16.8-13.6,30.5-30.5,30.5c-16.8,0-30.5-13.6-30.5-30.5c0-16.8,13.6-30.5,30.5-30.5
						C381.8,398.6,395.4,412.3,395.4,429.1z"/>
				</g>
				<path class="st20" d="M377.5,429.8c0,7.5-6.1,13.5-13.5,13.5c-7.5,0-13.5-6.1-13.5-13.5c0-7.5,6.1-13.5,13.5-13.5
					C371.4,416.3,377.5,422.3,377.5,429.8z"/>
			</g>
			<polygon class="st3" points="359.7,357 378.8,357 406.2,387.5 385.7,387.5 			"/>
		</g>
	</g>
	<g>
		<polygon class="st0" points="147,376.7 145,376.7 145,347.7 176,347.7 176,349.7 147,349.7 		"/>
		<polygon class="st0" points="401.5,444.2 403.5,444.2 403.5,473.2 372.5,473.2 372.5,471.2 401.5,471.2 		"/>
	</g>
	<rect x="34.7" y="302" class="st16" width="17.3" height="17.3"/>
	<rect x="58.7" y="302" class="st23" width="64" height="17.3"/>
	<rect x="34.7" y="337" class="st0" width="17.3" height="17.3"/>
	<rect x="58.7" y="337" class="st23" width="64" height="17.3"/>
	<rect x="34.7" y="476.7" class="st16" width="17.3" height="17.3"/>
	<rect x="58.7" y="476.7" class="st23" width="64" height="17.3"/>
	<rect x="34.7" y="441.8" class="st3" width="17.3" height="17.3"/>
	<rect x="58.7" y="441.8" class="st23" width="64" height="17.3"/>
	<rect x="34.7" y="406.8" class="st0" width="17.3" height="17.3"/>
	<rect x="58.7" y="406.8" class="st23" width="64" height="17.3"/>
	<rect x="34.7" y="371.9" class="st3" width="17.3" height="17.3"/>
	<rect x="58.7" y="371.9" class="st23" width="64" height="17.3"/>
	<polygon class="st1" points="299.5,453.7 281.3,446.2 282.9,465.8 288.3,461.8 300.4,478.5 306.1,474.3 294,457.7 	"/>
</g>
<path class="st2" d="M0,196.4l17,19.3l24.7,10.2l0.3-8.3l-17.2-6.6l10.1-14.1l5.8,4.1h5.8h0.6h5.8l6-4.3l9.9,14.3l-17.3,6.7l0.3,8.3
	l24.7-10.2l18-20.5l-7.2-3.2L75,206.4l-10.2-13.9l5.8-4.1l3.8-13.2l-0.9-2.7l13.8-4.9l1.8,16.1l8.1,3.6l-3-25l-13.5-23.7l-5.3,5.8
	l10,17l-13.9,5.1l-1-3.1L52.8,151v-13.3l13.4,2.2l7.3-6.7l-26.7-3.9l-26.7,3.9l7.3,6.7l13.4-2.2V151l-17.7,12.2l-1,3.1l-13.9-5
	l10-17l-5.3-5.8L0,161.3 M0,196.4 M0,194.9 M0,185.6l4.5-2l1.8-16.1l13.8,4.9l-0.9,2.8l3.8,13.2l6,4.3l-10.3,13.8L6.3,192.2L0,194.9
	 M47.1,195h-0.6H32.3l-1-0.7L31,194l-7.1-23.2l22.9-14.9l22.9,14.9l-7.1,23.1l-1.4,1L47.1,195z"/>
<path class="st2" d="M0,190.2l9.1-3.8l14.6-44l-9.5-9.5L0,158.9 M0,161.3l12.9-22.8l7.4,8.1L8.5,181.7L0,185.6"/>
<path class="st2" d="M95.3,162l-15.9-29l-9.5,9.5l14.6,44l14.9,6.2L95.3,162z M73.3,146.5l7.4-8.1l13.5,23.7l3,25l-12-5.5
	L73.3,146.5z"/>
<path class="st2" d="M46.8,213.8l37.7-27.4l-14.6-44H23.7l-14.6,44L46.8,213.8z M28,148.4h37.5l11.7,35.4L46.8,205l-30.5-21.2
	L28,148.4z"/>
<path class="st2" d="M0,199l16.1,17.7l30.8,12.9l30.6-12.9l21.9-24.1l-14.9-6.2l-37.7,27.4L9.1,186.4L0,190.2 M0,194.9l11.4-4.8
	L42,212.5l-0.4,13.5L17,215.8L0,196.4 M76.6,215.8l-24.7,10.2l-0.4-13.5L82.2,190l12.4,5.3L76.6,215.8z"/>
<path class="st2" d="M46.8,128.2L14.2,133l9.5,9.5h46.2l9.5-9.5L46.8,128.2z M65.4,140.6H28.1l-7.7-7.4l26.4-3.9l26.4,3.9
	L65.4,140.6z"/>
<polygon class="st28" points="504.5,460.7 563,536 1025,536 1025,502.7 972.5,460.7 898.5,460.7 920,483.7 600.1,483.7 578.5,460.7 
	"/>
<rect x="0.1" y="217.8" class="st29" width="513.4" height="21"/>
</svg>
