<?xml version="1.0" encoding="UTF-8" standalone="no"?>
<!-- Created with Inkscape (http://www.inkscape.org/) -->

<svg
   version="1.1"
   id="svg2"
   width="1666.6667"
   height="1000"
   viewBox="0 0 1666.6667 1000"
   sodipodi:docname="37606.eps"
   xmlns:inkscape="http://www.inkscape.org/namespaces/inkscape"
   xmlns:sodipodi="http://sodipodi.sourceforge.net/DTD/sodipodi-0.dtd"
   xmlns="http://www.w3.org/2000/svg"
   xmlns:svg="http://www.w3.org/2000/svg">
  <defs
     id="defs6" />
  <sodipodi:namedview
     id="namedview4"
     pagecolor="#ffffff"
     bordercolor="#000000"
     borderopacity="0.25"
     inkscape:showpageshadow="2"
     inkscape:pageopacity="0.0"
     inkscape:pagecheckerboard="0"
     inkscape:deskcolor="#d1d1d1" />
  <g
     id="g8"
     inkscape:groupmode="layer"
     inkscape:label="ink_ext_XXXXXX"
     transform="matrix(1.3333333,0,0,-1.3333333,0,1000)">
    <g
       id="g10"
       transform="scale(0.1)">
      <path
         d="M 2.35938,2.58203 H 12499.959 V 7500.002 H 2.35938 Z"
         style="fill:#131c2f;fill-opacity:1;fill-rule:nonzero;stroke:none"
         id="path12" />
      <path
         d="M 7471.05,7500 H 5766.9 l 1.79,1.79 h 1704.15 l -1.79,-1.79"
         style="fill:#5a616e;fill-opacity:1;fill-rule:nonzero;stroke:none"
         id="path14" />
      <path
         d="M 4.72266,28.4492 7.0625,1727.85 5766.9,7500 H 7471.05 L 4.72266,28.4492"
         style="fill:#060b14;fill-opacity:1;fill-rule:nonzero;stroke:none"
         id="path16" />
      <path
         d="M 2734.36,7500 H 1037.01 l 2.57,2.58 4729.11,-0.79 H 2736.15 l -1.79,-1.79"
         style="fill:#ffffff;fill-opacity:1;fill-rule:nonzero;stroke:none"
         id="path18" />
      <path
         d="m 4.72266,1725.5 v 4740 L 1037.01,7500 H 2734.36 L 11.2617,4774.99 7.0625,1727.85 4.72266,1725.5"
         style="fill:#3d516e;fill-opacity:1;fill-rule:nonzero;stroke:none"
         id="path20" />
      <path
         d="M 5766.9,7500 H 2734.36 l 1.79,1.79 h 3032.54 l -1.79,-1.79"
         style="fill:#78869a;fill-opacity:1;fill-rule:nonzero;stroke:none"
         id="path22" />
      <path
         d="M 7.0625,1727.85 11.2617,4774.99 2734.36,7500 H 5766.9 L 7.0625,1727.85"
         style="fill:#16273f;fill-opacity:1;fill-rule:nonzero;stroke:none"
         id="path24" />
      <path
         d="M 12500,4037.93 V 7500 H 8393.97 l 1.79,1.79 h 4106.64 l -1.9,-3463.34 -0.5,-0.52"
         style="fill:#131c2f;fill-opacity:1;fill-rule:nonzero;stroke:none"
         id="path26" />
      <path
         d="M 8470.05,5.16016 914.148,14.9414 8393.97,7500 H 12500 V 4037.93 L 8470.05,5.16016"
         style="fill:#010309;fill-opacity:1;fill-rule:nonzero;stroke:none"
         id="path28" />
      <path
         d="m 7469.8,4945.68 h -44.99 v 244.87 h 44.99 v -244.87"
         style="fill:#8ce6b2;fill-opacity:1;fill-rule:nonzero;stroke:none"
         id="path30" />
      <path
         d="m 10591,6131.17 -21.9,208.52 200.6,-16.57 z"
         style="fill:#ce4339;fill-opacity:1;fill-rule:nonzero;stroke:none"
         id="path32" />
      <path
         d="m 3151.72,1616.77 h -49.99 v 237.26 h 764.1 v -49.98 h -714.11 v -187.28"
         style="fill:#444e78;fill-opacity:1;fill-rule:nonzero;stroke:none"
         id="path34" />
      <path
         d="M 5753.39,884.441 H 4164.21 v 679.369 h 49.99 V 934.422 h 1539.19 v -49.981"
         style="fill:#444e78;fill-opacity:1;fill-rule:nonzero;stroke:none"
         id="path36" />
      <path
         d="m 7862.29,1648.9 45.3,-34.96 45.3,34.96 -45.29,169.92 z m -15.35,-57.61 -8.1,-30.4 23.75,18.33 z m 105.66,-12.07 23.76,-18.33 -8.11,30.41 z m -112.4,-86.73 67.39,-40.04 67.4,40.04 -67.4,52 z m -31.64,-45.16 -17.02,-63.82 62.23,36.97 z m 152.86,-26.85 62.23,-36.97 -17.02,63.82 z m -158.91,-94.42 105.08,-53.48 105.09,53.48 -105.08,62.44 z m -37.62,-42.53 -25.78,-96.69 107.87,54.9 z m 203.31,-41.79 107.88,-54.91 -25.78,96.7 z m -212.09,-107.95 151.49,-80.94 151.47,80.94 -151.48,77.1 z m 209.82,-112.11 179.79,-96.071 -44.84,168.191 z m -251.62,72.12 -44.84,-168.191 179.79,96.071 z m -25.36,-220.128 218.65,-98.141 218.64,98.141 -218.64,116.84 z m -44.12,-40.473 -53.18,-199.488 248.82,111.68 z m 329.9,-87.808 248.81,-111.68 -53.19,199.488 z M 7624.99,588.41 7907.6,491.57 8190.2,588.41 7907.6,715.262 Z M 7992.4,462.512 8297,358.129 8246.01,549.398 Z m -423.22,86.886 -51,-191.269 304.6,104.383 z m 758.75,-259.976 -420.34,144.027 -420.33,-144.027 -35.48,33.09 429.25,1610.128 h 53.13 l 429.25,-1610.128 -35.48,-33.09"
         style="fill:#e7a629;fill-opacity:1;fill-rule:nonzero;stroke:none"
         id="path38" />
      <path
         d="m 10856.9,5485.88 270.7,-144.67 -66.3,248.71 z m -96.4,-417.64 484.1,-165.9 -91.2,342.26 z m 516.5,-237.74 -604,206.96 -2.5,53.4 436.8,196.05 -326.1,174.24 0.5,50.96 264.5,134.6 -21.1,79.27 55.5,14.81 233.5,-875.7 -37.1,-34.59"
         style="fill:#e7a629;fill-opacity:1;fill-rule:nonzero;stroke:none"
         id="path40" />
      <path
         d="m 10851,5590.49 -66.2,-249.81 271.7,145.2 z m -91.6,-345.62 -90.7,-342.57 484.2,165.94 z m -122.9,-414.37 -37.2,34.54 197.8,746.43 52.6,-13.94 23.5,46.14 258.5,-131.56 0.5,-50.96 -326.1,-174.24 436.8,-196.05 -2.5,-53.4 -603.9,-206.96"
         style="fill:#e7a629;fill-opacity:1;fill-rule:nonzero;stroke:none"
         id="path42" />
      <path
         d="m 2022.65,3145.71 -51.26,51.26 c 118.72,118.69 118.72,311.83 0,430.53 l 51.26,51.25 c 146.97,-146.96 146.97,-386.07 0,-533.04"
         style="fill:#ffffff;fill-opacity:1;fill-rule:nonzero;stroke:none"
         id="path44" />
      <path
         d="m 2303.13,2929.15 -51.26,51.25 c 115.37,115.34 178.9,268.7 178.9,431.84 0,163.12 -63.53,316.48 -178.9,431.83 l 51.26,51.25 c 129.05,-129.04 200.13,-300.6 200.13,-483.08 0,-182.49 -71.08,-354.06 -200.13,-483.09"
         style="fill:#ffffff;fill-opacity:1;fill-rule:nonzero;stroke:none"
         id="path46" />
      <path
         d="m 2574.97,2721.2 -51.25,51.26 c 170.91,170.89 265.04,398.1 265.04,639.78 0,241.67 -94.13,468.88 -265.04,639.77 l 51.25,51.25 c 184.61,-184.58 286.28,-430 286.28,-691.02 0,-261.04 -101.67,-506.46 -286.28,-691.04"
         style="fill:#ffffff;fill-opacity:1;fill-rule:nonzero;stroke:none"
         id="path48" />
      <path
         d="m 2048.95,5835.33 -62.43,2.89 c 0.24,5.2 0.36,10.5 0.36,15.74 0,13.74 -0.84,27.68 -2.49,41.44 l 62.04,7.47 c 1.95,-16.23 2.95,-32.68 2.95,-48.91 0,-6.2 -0.15,-12.47 -0.43,-18.63 z m -21.13,-111.41 -59.14,20.16 c 6.14,18.03 10.8,36.69 13.84,55.46 l 61.68,-9.97 c -3.59,-22.23 -9.1,-44.32 -16.38,-65.65 z m -51.26,-101.11 -51.25,35.74 c 10.91,15.64 20.57,32.29 28.72,49.48 l 56.47,-26.76 c -9.63,-20.31 -21.05,-39.99 -33.94,-58.46 z m -77.13,-83 -39.4,48.5 c 14.76,12 28.64,25.33 41.24,39.63 l 46.89,-41.29 c -14.88,-16.9 -31.28,-32.66 -48.73,-46.84 z m -97.16,-58.41 -24.35,57.54 c 17.51,7.4 34.53,16.36 50.58,26.61 l 33.64,-52.65 c -19,-12.14 -39.14,-22.73 -59.87,-31.5 z m -109.54,-29.07 -7.48,62.03 c 19,2.29 37.86,6.16 56.05,11.51 l 17.63,-59.95 c -21.5,-6.32 -43.77,-10.89 -66.2,-13.59"
         style="fill:#ffffff;fill-opacity:1;fill-rule:nonzero;stroke:none"
         id="path50" />
      <path
         d="m 2377.77,5832.75 c -0.66,19.78 -2.19,39.82 -4.57,59.56 l 62.03,7.48 c 2.6,-21.53 4.28,-43.4 4.99,-64.98 z m 57.97,-107.31 -62.07,7.17 c 2.27,19.68 3.7,39.7 4.23,59.53 l 62.46,-1.67 c -0.57,-21.66 -2.13,-43.54 -4.62,-65.03 z m -20.64,-107.54 -60.32,16.31 c 5.18,19.14 9.56,38.74 13.01,58.25 l 61.54,-10.91 c -3.79,-21.32 -8.57,-42.73 -14.23,-63.65 z m -36.36,-103.32 -57.25,25.04 c 7.95,18.18 15.19,36.92 21.5,55.69 l 59.24,-19.9 c -6.9,-20.51 -14.8,-40.98 -23.49,-60.83 z m -51.21,-96.79 -52.93,33.2 c 10.54,16.79 20.46,34.26 29.48,51.93 l 55.65,-28.44 c -9.86,-19.28 -20.69,-38.35 -32.2,-56.69 z m -64.81,-88.2 -47.5,40.59 c 12.89,15.08 25.26,30.91 36.78,47.05 l 50.87,-36.28 c -12.57,-17.62 -26.08,-34.91 -40.15,-51.36 z m -77.03,-77.75 -41.03,47.12 c 14.95,13.02 29.51,26.86 43.26,41.15 l 45.02,-43.34 c -15.02,-15.6 -30.92,-30.71 -47.25,-44.93 z m -87.62,-65.58 -33.64,52.66 c 16.69,10.66 33.13,22.21 48.84,34.32 l 38.15,-49.49 c -17.16,-13.22 -35.11,-25.84 -53.35,-37.49 z m -96.35,-51.9 -25.47,57.06 c 18.11,8.07 36.06,17.06 53.37,26.7 l 30.42,-54.58 c -18.92,-10.53 -38.54,-20.35 -58.32,-29.18 z m -103.03,-37.06 -16.72,60.2 c 19.11,5.31 38.2,11.53 56.74,18.5 l 21.98,-58.49 c -20.26,-7.61 -41.11,-14.4 -62,-20.21 z m -107.29,-21.46 -7.76,62 c 19.74,2.47 39.56,5.82 58.89,9.97 l 13.11,-61.09 c -21.09,-4.52 -42.71,-8.18 -64.24,-10.88"
         style="fill:#ffffff;fill-opacity:1;fill-rule:nonzero;stroke:none"
         id="path52" />
      <path
         d="m 2754.16,5827.28 c -1.21,20.02 -3.04,40.33 -5.45,60.36 l 62.03,7.47 c 2.57,-21.26 4.51,-42.82 5.79,-64.07 z m 63.43,-104.31 -62.44,2.57 c 0.56,13.59 0.84,27.4 0.84,41.07 0,6.49 -0.06,12.98 -0.19,19.49 l 62.48,1.21 c 0.13,-6.91 0.2,-13.81 0.2,-20.7 0,-14.52 -0.3,-29.2 -0.89,-43.64 z m -9.95,-107.61 -61.85,8.91 c 2.87,19.9 5.17,40.14 6.82,60.17 l 62.28,-5.14 c -1.76,-21.29 -4.2,-42.8 -7.25,-63.94 z m -20.92,-106.16 -60.61,15.21 c 4.9,19.51 9.26,39.44 12.96,59.24 l 61.42,-11.48 c -3.93,-21.05 -8.56,-42.23 -13.77,-62.97 z m -31.68,-103.5 -58.74,21.32 c 6.86,18.91 13.24,38.29 18.94,57.58 l 59.93,-17.7 c -6.06,-20.51 -12.83,-41.1 -20.13,-61.2 z m -42.04,-99.67 -56.27,27.17 c 8.75,18.13 17.06,36.75 24.7,55.35 l 57.81,-23.72 c -8.11,-19.77 -16.94,-39.55 -26.24,-58.8 z m -51.92,-94.86 -53.23,32.74 c 10.53,17.12 20.69,34.8 30.18,52.55 l 55.1,-29.47 c -10.08,-18.85 -20.86,-37.62 -32.05,-55.82 z m -61.22,-89.08 -49.65,37.94 c 12.22,15.98 24.1,32.54 35.33,49.22 l 51.84,-34.88 c -11.92,-17.71 -24.54,-35.3 -37.52,-52.28 z m -69.86,-82.42 -45.58,42.75 c 13.77,14.66 27.26,29.94 40.11,45.39 l 48.06,-39.93 c -13.64,-16.42 -27.98,-32.64 -42.59,-48.21 z m -77.8,-74.93 -41.02,47.13 c 15.16,13.19 30.12,27.02 44.46,41.1 l 43.79,-44.57 c -15.25,-14.97 -31.13,-29.65 -47.23,-43.66 z m -84.96,-66.65 -36.03,51.05 c 16.4,11.57 32.68,23.8 48.37,36.37 l 39.05,-48.78 c -16.68,-13.35 -33.97,-26.35 -51.39,-38.64 z m -91.26,-57.66 -30.64,54.45 c 17.48,9.84 34.9,20.35 51.79,31.25 l 33.89,-52.49 c -17.94,-11.58 -36.46,-22.76 -55.04,-33.21 z m -96.71,-48.07 -24.91,57.3 c 18.41,8.01 36.84,16.7 54.77,25.83 l 28.36,-55.67 c -19.05,-9.71 -38.64,-18.95 -58.22,-27.46 z m -101.2,-37.98 -18.94,59.55 c 19.15,6.08 38.37,12.84 57.12,20.09 l 22.53,-58.28 c -19.94,-7.7 -40.37,-14.89 -60.71,-21.36 z m -104.53,-27.46 -12.8,61.15 c 19.72,4.13 39.54,8.91 58.89,14.19 l 16.46,-60.27 c -20.55,-5.62 -41.6,-10.69 -62.55,-15.07 z m -91.8,-15.09 -7.46,62.03 c 15.3,1.84 30.77,4.06 45.97,6.6 l 10.3,-61.62 c -16.14,-2.7 -32.56,-5.06 -48.81,-7.01"
         style="fill:#ffffff;fill-opacity:1;fill-rule:nonzero;stroke:none"
         id="path54" />
      <path
         d="m 8030.45,2077.79 c -15.02,6.15 -30.93,9.99 -47.3,11.44 l 5.06,57.25 c 22.11,-1.94 43.65,-7.16 64.02,-15.49 z m 69.35,-54.27 c -9.67,13.19 -21.23,24.8 -34.33,34.52 l 34.26,46.17 c 17.72,-13.15 33.34,-28.85 46.42,-46.68 z m 30.89,-82.39 c -1.34,16.25 -5.12,32.15 -11.26,47.26 l 53.28,21.59 c 8.32,-20.5 13.45,-42.07 15.27,-64.12 l -57.29,-4.73"
         style="fill:#ffffff;fill-opacity:1;fill-rule:nonzero;stroke:none"
         id="path56" />
      <path
         d="m 8077.88,2274.57 c -16.99,4.26 -34.54,7.2 -52.17,8.76 l 5.06,57.26 c 20.63,-1.83 41.17,-5.28 61.08,-10.26 z m 89.01,-36.65 c -15.13,9 -31.1,16.84 -47.44,23.3 l 21.16,53.45 c 19.17,-7.58 37.9,-16.78 55.66,-27.34 z m 74.85,-60.64 c -11.95,12.93 -25.01,25.01 -38.83,35.9 l 35.58,45.15 c 16.19,-12.75 31.49,-26.9 45.49,-42.06 z m 54.55,-79.41 c -7.76,15.77 -16.86,31.06 -27.03,45.44 l 46.93,33.19 c 11.92,-16.84 22.58,-34.75 31.67,-53.22 z m 29.58,-91.55 c -2.92,17.34 -7.27,34.57 -12.9,51.23 l 54.45,18.43 c 6.61,-19.54 11.71,-39.76 15.14,-60.1 z m 60.58,-90.2 -57.27,5.08 c 0.87,9.86 1.32,19.87 1.32,29.77 0,3.99 -0.08,7.97 -0.22,11.92 l 57.45,2.02 c 0.17,-4.63 0.26,-9.28 0.26,-13.94 0,-11.58 -0.52,-23.3 -1.54,-34.85"
         style="fill:#ffffff;fill-opacity:1;fill-rule:nonzero;stroke:none"
         id="path58" />
      <path
         d="m 8121.47,2462.93 c -17.66,3.5 -35.77,6.08 -53.8,7.68 l 5.05,57.25 c 20.08,-1.78 40.24,-4.65 59.93,-8.54 z m 94.77,-28.83 c -16.61,6.94 -33.83,13.04 -51.19,18.14 l 16.2,55.14 c 19.38,-5.68 38.61,-12.5 57.16,-20.25 z m 87.16,-47.11 c -14.94,10.12 -30.62,19.53 -46.56,27.96 l 26.85,50.82 c 17.8,-9.4 35.28,-19.9 51.96,-31.2 z m 76.13,-63.45 c -12.66,12.87 -26.16,25.19 -40.15,36.63 l 36.4,44.49 c 15.59,-12.75 30.64,-26.48 44.75,-40.82 z m 62.16,-77.18 c -9.87,15.1 -20.69,29.83 -32.15,43.8 l 44.43,36.46 c 12.78,-15.56 24.84,-31.98 35.84,-48.81 z m 45.74,-87.86 c -6.7,16.75 -14.4,33.32 -22.88,49.23 l 50.74,27.03 c 9.46,-17.76 18.04,-36.23 25.52,-54.91 z m 27.41,-95.15 c -3.23,17.73 -7.49,35.49 -12.64,52.79 l 55.09,16.44 c 5.76,-19.31 10.51,-39.13 14.12,-58.93 z m 65.43,-99.81 -57.48,1.09 c 0.06,3.17 0.1,6.36 0.1,9.53 0,14.89 -0.67,29.95 -2,44.75 l 57.24,5.15 c 1.5,-16.5 2.25,-33.29 2.25,-49.9 0,-3.54 -0.04,-7.08 -0.11,-10.62"
         style="fill:#ffffff;fill-opacity:1;fill-rule:nonzero;stroke:none"
         id="path60" />
      <path
         d="m 10413.6,6310.85 h -62.5 c 0,131.27 106.8,238.07 238.1,238.07 v -62.47 c -96.8,0 -175.6,-78.78 -175.6,-175.6"
         style="fill:#ffffff;fill-opacity:1;fill-rule:nonzero;stroke:none"
         id="path62" />
      <path
         d="m 10200.2,6338.27 h -62.5 c 0,233.8 190.3,424.03 424.1,424.03 v -62.49 c -199.4,0 -361.6,-162.19 -361.6,-361.54"
         style="fill:#ffffff;fill-opacity:1;fill-rule:nonzero;stroke:none"
         id="path64" />
      <path
         d="m 9994.23,6365.69 h -62.49 c 0,332.26 270.36,602.56 602.66,602.56 v -62.47 c -297.9,0 -540.17,-242.29 -540.17,-540.09"
         style="fill:#ffffff;fill-opacity:1;fill-rule:nonzero;stroke:none"
         id="path66" />
      <path
         d="m 4298.44,6782.85 h -57.49 c 0,74.59 -60.7,135.28 -135.3,135.28 v 57.48 c 106.3,0 192.79,-86.47 192.79,-192.76"
         style="fill:#94ff9d;fill-opacity:1;fill-rule:nonzero;stroke:none"
         id="path68" />
      <path
         d="m 4467.66,6804.59 h -57.49 c 0,155.9 -126.85,282.74 -282.78,282.74 v 57.48 c 187.63,0 340.27,-152.62 340.27,-340.22"
         style="fill:#94ff9d;fill-opacity:1;fill-rule:nonzero;stroke:none"
         id="path70" />
      <path
         d="m 4631.01,6826.34 h -57.49 c 0,233.97 -190.38,424.31 -424.38,424.31 v 57.48 c 265.7,0 481.87,-216.13 481.87,-481.79"
         style="fill:#94ff9d;fill-opacity:1;fill-rule:nonzero;stroke:none"
         id="path72" />
      <path
         d="m 1345.99,3145.71 c -146.98,146.97 -146.98,386.08 0,533.04 l 51.26,-51.25 c -118.72,-118.7 -118.72,-311.84 0,-430.53 l -51.26,-51.26"
         style="fill:#ffffff;fill-opacity:1;fill-rule:nonzero;stroke:none"
         id="path74" />
      <path
         d="m 1065.51,2929.15 c -266.412,266.37 -266.412,699.8 0,966.17 l 51.25,-51.25 c -238.147,-238.11 -238.147,-625.56 0,-863.67 l -51.25,-51.25"
         style="fill:#ffffff;fill-opacity:1;fill-rule:nonzero;stroke:none"
         id="path76" />
      <path
         d="m 793.66,2721.2 c -184.605,184.58 -286.273,430 -286.273,691.04 0,261.02 101.668,506.44 286.273,691.02 l 51.258,-51.25 C 674,3881.12 579.871,3653.91 579.871,3412.24 c 0,-241.68 94.129,-468.89 265.047,-639.78 L 793.66,2721.2"
         style="fill:#ffffff;fill-opacity:1;fill-rule:nonzero;stroke:none"
         id="path78" />
      <path
         d="m 4206.6,4983.17 -34.78,35.89 733.26,710.34 34.79,-35.89 -733.27,-710.34"
         style="fill:#444e78;fill-opacity:1;fill-rule:nonzero;stroke:none"
         id="path80" />
      <path
         d="m 1712.17,3484.44 h -49.99 v 933.4 h 1298.39 v -49.98 h -1248.4 v -883.42"
         style="fill:#444e78;fill-opacity:1;fill-rule:nonzero;stroke:none"
         id="path82" />
      <path
         d="m 896.293,692.66 -25.805,67.731 728.132,277.329 -543.55,281.46 3.3,65.85 546.69,216.96 -396.26,234 2.1,63.54 409.21,206.48 -270.45,213.33 3.31,59.21 274.34,170.58 -165.46,150.47 48.78,53.61 200.93,-182.73 -5.24,-57.58 -271.24,-168.63 274.54,-216.56 -6.11,-60.81 -400.78,-202.21 402.88,-237.89 -5.06,-64.89 -541.57,-214.92 544.86,-282.14 -3.76,-66.041 L 896.293,692.66"
         style="fill:#ce4339;fill-opacity:1;fill-rule:nonzero;stroke:none"
         id="path84" />
      <path
         d="M 927.055,745.789 1687.18,381.551 2447.3,745.789 1687.18,3267.41 Z M 1702.84,308.691 h -31.33 L 867.73,693.852 848.691,736.98 1652.48,3403.45 h 69.4 L 2525.66,736.98 2506.63,693.852 1702.84,308.691"
         style="fill:#8ce6b2;fill-opacity:1;fill-rule:nonzero;stroke:none"
         id="path86" />
      <path
         d="m 2478.06,692.66 -803.79,306.149 -3.76,66.041 544.86,282.14 -541.57,214.92 -5.05,64.89 402.87,237.89 -400.77,202.21 -6.12,60.81 274.54,216.56 -271.23,168.63 -5.25,57.58 200.94,182.73 48.77,-53.61 -165.46,-150.47 274.35,-170.58 3.3,-59.21 -270.44,-213.33 409.2,-206.48 2.1,-63.55 -396.26,-233.99 546.69,-216.96 3.3,-65.85 -543.55,-281.46 728.14,-277.329 -25.81,-67.731"
         style="fill:#8ce6b2;fill-opacity:1;fill-rule:nonzero;stroke:none"
         id="path88" />
      <path
         d="m 1723.42,357.809 h -72.49 V 3357.74 h 72.49 V 357.809"
         style="fill:#8ce6b2;fill-opacity:1;fill-rule:nonzero;stroke:none"
         id="path90" />
      <path
         d="m 5100.63,5521.82 h 637.71 c 0.28,0.39 0.7,1.17 0.7,2.49 V 6679.4 c 0,1.31 -0.42,2.1 -0.7,2.48 h -637.71 c -0.28,-0.38 -0.7,-1.17 -0.7,-2.48 V 5524.31 c 0,-1.32 0.42,-2.1 0.7,-2.49 z m 638.56,-72.47 h -639.41 c -39.88,0 -72.33,33.62 -72.33,74.96 V 6679.4 c 0,41.33 32.45,74.96 72.33,74.96 h 639.41 c 39.88,0 72.33,-33.63 72.33,-74.96 V 5524.31 c 0,-41.34 -32.45,-74.96 -72.33,-74.96"
         style="fill:#e7a629;fill-opacity:1;fill-rule:nonzero;stroke:none"
         id="path92" />
      <path
         d="m 5663.13,5661.7 h -487.29 v 951.21 h 487.29 V 5661.7"
         style="fill:#8ce6b2;fill-opacity:1;fill-rule:nonzero;stroke:none"
         id="path94" />
      <path
         d="m 5486.75,5575.71 h -134.53 v 47.13 h 134.53 v -47.13"
         style="fill:#8ce6b2;fill-opacity:1;fill-rule:nonzero;stroke:none"
         id="path96" />
      <path
         d="m 6182.39,1458.04 c -1.02,0 -2.86,-1.12 -3.76,-3.52 L 5870.02,625.121 c -0.77,-2.07 -0.3,-3.621 -0.07,-4.18 l 0.93,-1.14 459.12,-170.77 1.45,0.25 c 0.54,0.27 1.89,1.129 2.66,3.199 l 308.61,829.41 c 1.02,2.72 0.02,4.98 -0.85,5.31 l -459.12,170.78 z m 148,-1059.079 c -6.01,0 -12.02,1.07 -17.82,3.23 l -459.12,170.77 c -13.49,5.019 -24.03,15.25 -29.66,28.801 -5.38,12.929 -5.6,27.41 -0.62,40.789 l 308.61,829.389 c 10.5,28.26 41.18,43 68.4,32.88 l 459.12,-170.78 c 27.2,-10.11 40.79,-41.33 30.28,-69.58 L 6380.97,435.059 c -4.97,-13.379 -14.61,-24.2 -27.13,-30.469 -7.48,-3.75 -15.46,-5.629 -23.45,-5.629"
         style="fill:#e7a629;fill-opacity:1;fill-rule:nonzero;stroke:none"
         id="path98" />
      <path
         d="M 6313.72,572.379 5963.83,702.531 6217.97,1385.55 6567.86,1255.4 6313.72,572.379"
         style="fill:#ffffff;fill-opacity:1;fill-rule:nonzero;stroke:none"
         id="path100" />
      <path
         d="m 6164.11,557.738 -96.61,35.942 12.59,33.84 96.6,-35.938 -12.58,-33.844"
         style="fill:#8ce6b2;fill-opacity:1;fill-rule:nonzero;stroke:none"
         id="path102" />
      <path
         d="m 4830.59,2105.72 h -134.54 v 47.12 h 134.54 v -47.12"
         style="fill:#272425;fill-opacity:1;fill-rule:nonzero;stroke:none"
         id="path104" />
      <path
         d="m 3901.91,3173.85 c -2.67,0 -4.84,-2.17 -4.84,-4.85 V 2065.81 c 0,-2.68 2.17,-4.85 4.84,-4.85 h 1722.81 c 2.67,0 4.85,2.17 4.85,4.85 V 3169 c 0,2.68 -2.18,4.85 -4.85,4.85 z M 5624.72,1998.48 H 3901.91 c -37.12,0 -67.33,30.2 -67.33,67.33 V 3169 c 0,37.12 30.21,67.33 67.33,67.33 h 1722.81 c 37.13,0 67.34,-30.21 67.34,-67.33 V 2065.81 c 0,-37.13 -30.21,-67.33 -67.34,-67.33"
         style="fill:#8ce6b2;fill-opacity:1;fill-rule:nonzero;stroke:none"
         id="path106" />
      <path
         d="m 3897.07,1909.07 -1.86,-10.06 c 1.12,2.89 1.86,6.25 1.86,10.06 z m 1732.5,0 c 0,-3.81 0.73,-7.17 1.86,-10.06 z M 3778.15,1593.28 h 1970.33 l -113.1,294.85 c -2.77,0.39 -6.34,0.69 -10.66,0.69 H 3901.91 c -4.31,0 -7.89,-0.3 -10.65,-0.69 z m 1975.47,-62.48 h -1980.6 c -62.48,0 -67.34,32.32 -67.34,42.23 l 2.07,11.19 127.99,333.65 c 3.49,13.36 16.95,33.43 66.17,33.43 h 1722.81 c 49.24,0 62.69,-20.07 66.18,-33.43 l 127.98,-333.65 2.07,-11.19 c 0,-9.91 -4.85,-42.23 -67.33,-42.23"
         style="fill:#8ce6b2;fill-opacity:1;fill-rule:nonzero;stroke:none"
         id="path108" />
      <path
         d="M 5503.84,2204.99 H 4022.8 v 855.75 h 1481.04 v -855.75"
         style="fill:#e7a629;fill-opacity:1;fill-rule:nonzero;stroke:none"
         id="path110" />
      <path
         d="m 3126.73,1583.52 c -89.44,0 -162.2,-72.75 -162.2,-162.17 v -231.88 c 0,-89.41 72.76,-162.17 162.2,-162.17 89.44,0 162.2,72.76 162.2,162.17 v 231.88 c 0,89.42 -72.76,162.17 -162.2,162.17 z m 0,-618.7 c -123.89,0 -224.69,100.79 -224.69,224.65 v 231.88 c 0,123.86 100.8,224.65 224.69,224.65 123.89,0 224.68,-100.79 224.68,-224.65 v -231.88 c 0,-123.86 -100.79,-224.65 -224.68,-224.65"
         style="fill:#e7a629;fill-opacity:1;fill-rule:nonzero;stroke:none"
         id="path112" />
      <path
         d="m 3320.17,1390.11 h -386.88 v 62.48 h 386.88 v -62.48"
         style="fill:#e7a629;fill-opacity:1;fill-rule:nonzero;stroke:none"
         id="path114" />
      <path
         d="m 3157.97,1421.35 h -62.49 v 193.41 h 62.49 v -193.41"
         style="fill:#e7a629;fill-opacity:1;fill-rule:nonzero;stroke:none"
         id="path116" />
      <path
         d="m 4230.19,2737.87 c -57.9,0 -105.01,-47.1 -105.01,-105 0,-57.9 47.11,-105 105.01,-105 57.91,0 105.02,47.1 105.02,105 0,57.9 -47.11,105 -105.02,105 z m 0,-247.49 c -78.58,0 -142.51,63.92 -142.51,142.49 0,78.58 63.93,142.49 142.51,142.49 78.58,0 142.52,-63.91 142.52,-142.49 0,-78.57 -63.94,-142.49 -142.52,-142.49"
         style="fill:#ce4339;fill-opacity:1;fill-rule:nonzero;stroke:none"
         id="path118" />
      <path
         d="m 4428.66,2632.87 c 0,-8.54 -6.93,-15.47 -15.47,-15.47 -8.54,0 -15.47,6.93 -15.47,15.47 0,8.54 6.93,15.46 15.47,15.46 8.54,0 15.47,-6.92 15.47,-15.46"
         style="fill:#ffffff;fill-opacity:1;fill-rule:nonzero;stroke:none"
         id="path120" />
      <path
         d="m 4481.64,2632.87 c 0,-8.54 -6.93,-15.47 -15.47,-15.47 -8.54,0 -15.47,6.93 -15.47,15.47 0,8.54 6.93,15.46 15.47,15.46 8.54,0 15.47,-6.92 15.47,-15.46"
         style="fill:#ffffff;fill-opacity:1;fill-rule:nonzero;stroke:none"
         id="path122" />
      <path
         d="m 4534.61,2632.87 c 0,-8.54 -6.92,-15.47 -15.46,-15.47 -8.54,0 -15.47,6.93 -15.47,15.47 0,8.54 6.93,15.46 15.47,15.46 8.54,0 15.46,-6.92 15.46,-15.46"
         style="fill:#ffffff;fill-opacity:1;fill-rule:nonzero;stroke:none"
         id="path124" />
      <path
         d="m 4542.35,2579.13 c -2.56,0 -5.12,0.98 -7.07,2.93 -3.91,3.91 -3.91,10.23 0,14.13 l 36.68,36.68 -36.68,36.67 c -3.91,3.91 -3.91,10.24 0,14.14 3.9,3.91 10.23,3.91 14.14,0 l 43.74,-43.74 c 1.88,-1.87 2.93,-4.42 2.93,-7.07 0,-2.65 -1.05,-5.19 -2.93,-7.07 l -43.74,-43.74 c -1.95,-1.95 -4.51,-2.93 -7.07,-2.93"
         style="fill:#ffffff;fill-opacity:1;fill-rule:nonzero;stroke:none"
         id="path126" />
      <path
         d="m 4765.9,2737.87 c -57.91,0 -105.02,-47.1 -105.02,-105 0,-57.9 47.11,-105 105.02,-105 57.9,0 105.01,47.1 105.01,105 0,57.9 -47.11,105 -105.01,105 z m 0,-247.49 c -78.59,0 -142.52,63.92 -142.52,142.49 0,78.58 63.93,142.49 142.52,142.49 78.58,0 142.51,-63.91 142.51,-142.49 0,-78.57 -63.93,-142.49 -142.51,-142.49"
         style="fill:#ce4339;fill-opacity:1;fill-rule:nonzero;stroke:none"
         id="path128" />
      <path
         d="m 4964.36,2632.87 c 0,-8.54 -6.92,-15.47 -15.47,-15.47 -8.54,0 -15.46,6.93 -15.46,15.47 0,8.54 6.92,15.46 15.46,15.46 8.55,0 15.47,-6.92 15.47,-15.46"
         style="fill:#ffffff;fill-opacity:1;fill-rule:nonzero;stroke:none"
         id="path130" />
      <path
         d="m 5017.34,2632.87 c 0,-8.54 -6.92,-15.47 -15.47,-15.47 -8.54,0 -15.46,6.93 -15.46,15.47 0,8.54 6.92,15.46 15.46,15.46 8.55,0 15.47,-6.92 15.47,-15.46"
         style="fill:#ffffff;fill-opacity:1;fill-rule:nonzero;stroke:none"
         id="path132" />
      <path
         d="m 5070.32,2632.87 c 0,-8.54 -6.93,-15.47 -15.47,-15.47 -8.54,0 -15.47,6.93 -15.47,15.47 0,8.54 6.93,15.46 15.47,15.46 8.54,0 15.47,-6.92 15.47,-15.46"
         style="fill:#ffffff;fill-opacity:1;fill-rule:nonzero;stroke:none"
         id="path134" />
      <path
         d="m 5078.05,2579.13 c -2.56,0 -5.12,0.98 -7.07,2.93 -3.9,3.91 -3.9,10.23 0,14.13 l 36.68,36.68 -36.68,36.67 c -3.9,3.91 -3.9,10.24 0,14.14 3.9,3.91 10.24,3.91 14.14,0 l 43.75,-43.74 c 1.88,-1.87 2.93,-4.42 2.93,-7.07 0,-2.65 -1.05,-5.19 -2.93,-7.07 l -43.75,-43.74 c -1.95,-1.95 -4.51,-2.93 -7.07,-2.93"
         style="fill:#ffffff;fill-opacity:1;fill-rule:nonzero;stroke:none"
         id="path136" />
      <path
         d="m 5296.45,2737.87 c -57.91,0 -105.02,-47.1 -105.02,-105 0,-57.9 47.11,-105 105.02,-105 57.9,0 105.01,47.1 105.01,105 0,57.9 -47.11,105 -105.01,105 z m 0,-247.49 c -78.59,0 -142.52,63.92 -142.52,142.49 0,78.58 63.93,142.49 142.52,142.49 78.57,0 142.51,-63.91 142.51,-142.49 0,-78.57 -63.94,-142.49 -142.51,-142.49"
         style="fill:#ce4339;fill-opacity:1;fill-rule:nonzero;stroke:none"
         id="path138" />
      <path
         d="m 10136.2,5642.49 c 153.1,-69.51 321.5,-93.04 489.6,-68.07 186.2,27.64 355.1,112.78 488.5,246.22 133.5,133.44 218.6,302.32 246.3,488.41 25,168.13 1.4,336.47 -68.1,489.56 z m 359,-140.25 c -148,0 -293.3,35.01 -426.4,103.49 l -7.8,49.87 1218.4,1218.25 49.9,-7.8 c 89.9,-174.9 122.1,-370.68 93.1,-566.18 -29.6,-199.44 -120.9,-380.43 -263.9,-523.41 -143,-142.98 -324,-234.21 -523.5,-263.84 -46.7,-6.93 -93.4,-10.38 -139.8,-10.38"
         style="fill:#8ce6b2;fill-opacity:1;fill-rule:nonzero;stroke:none"
         id="path140" />
      <path
         d="m 4731.6,3317.98 -688.75,839.32 38.64,31.7 688.75,-839.31 -38.64,-31.71"
         style="fill:#444e78;fill-opacity:1;fill-rule:nonzero;stroke:none"
         id="path142" />
      <path
         d="m 8192.83,6124.66 h -49.99 v 175.42 H 5912.41 v 49.98 h 2280.42 v -225.4"
         style="fill:#444e78;fill-opacity:1;fill-rule:nonzero;stroke:none"
         id="path144" />
      <path
         d="m 7384.04,3977.54 h 431.29 v 931.04 h -431.29 z m 462.54,-62.48 H 7352.8 l -31.25,31.24 v 993.52 l 31.25,31.24 h 493.78 l 31.24,-31.24 V 3946.3 l -31.24,-31.24"
         style="fill:#8ce6b2;fill-opacity:1;fill-rule:nonzero;stroke:none"
         id="path146" />
      <path
         d="M 8462.71,3977.54 H 8894 v 554.65 h -431.29 z m 462.54,-62.48 h -493.78 l -31.25,31.24 v 617.13 l 31.25,31.24 h 493.78 l 31.24,-31.24 V 3946.3 l -31.24,-31.24"
         style="fill:#8ce6b2;fill-opacity:1;fill-rule:nonzero;stroke:none"
         id="path148" />
      <path
         d="m 8226.41,3946.3 h -379.83 v 1405.16 h 379.83 V 3946.3"
         style="fill:#e7a629;fill-opacity:1;fill-rule:nonzero;stroke:none"
         id="path150" />
      <path
         d="m 7877.82,3977.54 h 317.35 v 1342.67 h -317.35 z m 348.59,-62.48 h -379.83 l -31.25,31.24 v 1405.16 l 31.25,31.24 h 379.83 l 31.25,-31.24 V 3946.3 l -31.25,-31.24"
         style="fill:#e7a629;fill-opacity:1;fill-rule:nonzero;stroke:none"
         id="path152" />
      <path
         d="m 8700.85,4563.43 h -44.99 v 345.52 h 44.99 v -345.52"
         style="fill:#8ce6b2;fill-opacity:1;fill-rule:nonzero;stroke:none"
         id="path154" />
      <path
         d="m 8742.47,4908.95 c 0,-35.41 -28.7,-64.11 -64.11,-64.11 -35.41,0 -64.11,28.7 -64.11,64.11 0,35.4 28.7,64.1 64.11,64.1 35.41,0 64.11,-28.7 64.11,-64.1"
         style="fill:#373d65;fill-opacity:1;fill-rule:nonzero;stroke:none"
         id="path156" />
      <path
         d="m 8610.73,4662.17 c -112.55,30.4 -191.15,133.1 -191.15,249.75 0,142.67 116.09,258.74 258.78,258.74 142.69,0 258.78,-116.07 258.78,-258.74 0,-116.65 -78.6,-219.35 -191.15,-249.75 l -11.74,43.43 c 92.97,25.11 157.9,109.96 157.9,206.32 0,117.87 -95.91,213.75 -213.79,213.75 -117.88,0 -213.78,-95.88 -213.78,-213.75 0,-96.37 64.92,-181.21 157.89,-206.32 l -11.74,-43.43"
         style="fill:#ffffff;fill-opacity:1;fill-rule:nonzero;stroke:none"
         id="path158" />
      <path
         d="m 8604.4,4771.86 c -50.45,27.26 -81.8,79.79 -81.8,137.09 0,85.86 69.87,155.73 155.76,155.73 85.89,0 155.76,-69.87 155.76,-155.73 0,-57.3 -31.35,-109.82 -81.8,-137.09 l -21.39,39.58 c 35.9,19.39 58.2,56.76 58.2,97.51 0,61.06 -49.7,110.74 -110.77,110.74 -61.07,0 -110.77,-49.68 -110.77,-110.74 0,-40.75 22.3,-78.12 58.2,-97.51 l -21.39,-39.58"
         style="fill:#ffffff;fill-opacity:1;fill-rule:nonzero;stroke:none"
         id="path160" />
      <path
         d="M 7557.82,4703.16 H 7447.3 v 110.5 h 110.52 v -110.5"
         style="fill:#8ce6b2;fill-opacity:1;fill-rule:nonzero;stroke:none"
         id="path162" />
      <path
         d="m 7745.63,4703.16 h -110.52 v 110.5 h 110.52 v -110.5"
         style="fill:#8ce6b2;fill-opacity:1;fill-rule:nonzero;stroke:none"
         id="path164" />
      <path
         d="M 7557.82,4538.38 H 7447.3 v 110.5 h 110.52 v -110.5"
         style="fill:#8ce6b2;fill-opacity:1;fill-rule:nonzero;stroke:none"
         id="path166" />
      <path
         d="m 7745.63,4538.38 h -110.52 v 110.5 h 110.52 v -110.5"
         style="fill:#8ce6b2;fill-opacity:1;fill-rule:nonzero;stroke:none"
         id="path168" />
      <path
         d="M 8639.72,4350.21 H 8529.2 v 110.49 h 110.52 v -110.49"
         style="fill:#ffffff;fill-opacity:1;fill-rule:nonzero;stroke:none"
         id="path170" />
      <path
         d="M 8827.52,4350.21 H 8717 v 110.49 h 110.52 v -110.49"
         style="fill:#ffffff;fill-opacity:1;fill-rule:nonzero;stroke:none"
         id="path172" />
      <path
         d="M 8639.72,4181.67 H 8529.2 v 110.5 h 110.52 v -110.5"
         style="fill:#ffffff;fill-opacity:1;fill-rule:nonzero;stroke:none"
         id="path174" />
      <path
         d="M 8827.52,4181.67 H 8717 v 110.5 h 110.52 v -110.5"
         style="fill:#ffffff;fill-opacity:1;fill-rule:nonzero;stroke:none"
         id="path176" />
      <path
         d="M 7557.82,4373.6 H 7447.3 v 110.5 h 110.52 v -110.5"
         style="fill:#8ce6b2;fill-opacity:1;fill-rule:nonzero;stroke:none"
         id="path178" />
      <path
         d="m 7745.63,4373.6 h -110.52 v 110.5 h 110.52 v -110.5"
         style="fill:#8ce6b2;fill-opacity:1;fill-rule:nonzero;stroke:none"
         id="path180" />
      <path
         d="M 7557.82,4208.81 H 7447.3 v 110.5 h 110.52 v -110.5"
         style="fill:#8ce6b2;fill-opacity:1;fill-rule:nonzero;stroke:none"
         id="path182" />
      <path
         d="m 7745.63,4208.81 h -110.52 v 110.5 h 110.52 v -110.5"
         style="fill:#8ce6b2;fill-opacity:1;fill-rule:nonzero;stroke:none"
         id="path184" />
      <path
         d="M 8165.39,5123.77 H 7907.6 v 46.4 h 257.79 v -46.4"
         style="fill:#ffffff;fill-opacity:1;fill-rule:nonzero;stroke:none"
         id="path186" />
      <path
         d="M 8165.39,4991.04 H 7907.6 v 46.39 h 257.79 v -46.39"
         style="fill:#ffffff;fill-opacity:1;fill-rule:nonzero;stroke:none"
         id="path188" />
      <path
         d="M 8165.39,4847.43 H 7907.6 v 46.39 h 257.79 v -46.39"
         style="fill:#ffffff;fill-opacity:1;fill-rule:nonzero;stroke:none"
         id="path190" />
      <path
         d="M 10967.5,4440.13 H 9685.15 v 49.98 h 1232.35 v 235.32 h 50 v -285.3"
         style="fill:#444e78;fill-opacity:1;fill-rule:nonzero;stroke:none"
         id="path192" />
      <path
         d="m 1215.87,5950.5 -75.85,-75.47 -167.266,168.07 75.846,75.46 167.27,-168.06"
         style="fill:#ffffff;fill-opacity:1;fill-rule:nonzero;stroke:none"
         id="path194" />
      <path
         d="m 1302.13,6370.83 75.85,75.46 167.27,-168.06 -75.85,-75.47 -167.27,168.07"
         style="fill:#ffffff;fill-opacity:1;fill-rule:nonzero;stroke:none"
         id="path196" />
      <path
         d="m 1698.24,5691.11 -257.79,259 31.9,31.74 257.78,-259.01 -31.89,-31.73"
         style="fill:#ffffff;fill-opacity:1;fill-rule:nonzero;stroke:none"
         id="path198" />
      <path
         d="m 966.43,6252.49 382.99,-384.8 205.8,204.78 -382.98,384.8 z m 408.43,-461.73 -51.26,0.12 -434.112,436.18 0.121,51.24 257.191,255.9 51.26,-0.13 434.11,-436.17 -0.12,-51.24 -257.19,-255.9"
         style="fill:#e7a629;fill-opacity:1;fill-rule:nonzero;stroke:none"
         id="path200" />
      <path
         d="m 317.652,5537.58 308.989,-310.46 535.739,533.05 -308.997,310.45 z m 330.043,-374.12 -42.418,0.1 -351.308,352.97 0.101,42.41 578.258,575.35 42.418,-0.1 351.304,-352.97 -0.1,-42.41 -578.255,-575.35"
         style="fill:#8ce6b2;fill-opacity:1;fill-rule:nonzero;stroke:none"
         id="path202" />
      <path
         d="m 382.055,5430.36 -42.321,42.51 578.258,575.35 42.317,-42.51 -578.254,-575.35"
         style="fill:#8ce6b2;fill-opacity:1;fill-rule:nonzero;stroke:none"
         id="path204" />
      <path
         d="m 474.508,5337.47 -42.32,42.51 578.252,575.35 42.32,-42.51 -578.252,-575.35"
         style="fill:#8ce6b2;fill-opacity:1;fill-rule:nonzero;stroke:none"
         id="path206" />
      <path
         d="m 566.957,5244.58 -42.316,42.51 578.259,575.36 42.31,-42.52 -578.253,-575.35"
         style="fill:#8ce6b2;fill-opacity:1;fill-rule:nonzero;stroke:none"
         id="path208" />
      <path
         d="m 706.773,5264.54 -351.308,352.97 42.519,42.31 351.309,-352.97 -42.52,-42.31"
         style="fill:#8ce6b2;fill-opacity:1;fill-rule:nonzero;stroke:none"
         id="path210" />
      <path
         d="m 800.609,5357.91 -351.308,352.97 42.519,42.31 351.309,-352.97 -42.52,-42.31"
         style="fill:#8ce6b2;fill-opacity:1;fill-rule:nonzero;stroke:none"
         id="path212" />
      <path
         d="m 894.449,5451.28 -351.308,352.97 42.519,42.31 351.309,-352.97 -42.52,-42.31"
         style="fill:#8ce6b2;fill-opacity:1;fill-rule:nonzero;stroke:none"
         id="path214" />
      <path
         d="m 988.285,5544.64 -351.308,352.98 42.527,42.31 351.306,-352.98 -42.525,-42.31"
         style="fill:#8ce6b2;fill-opacity:1;fill-rule:nonzero;stroke:none"
         id="path216" />
      <path
         d="m 1082.13,5638.01 -351.31,352.98 42.52,42.31 351.31,-352.98 -42.52,-42.31"
         style="fill:#8ce6b2;fill-opacity:1;fill-rule:nonzero;stroke:none"
         id="path218" />
      <path
         d="m 1355.63,6561.15 308.99,-310.45 535.74,533.04 -309,310.46 z m 330.04,-374.12 -42.41,0.1 -351.31,352.97 0.1,42.42 578.26,575.35 42.42,-0.1 351.3,-352.97 -0.1,-42.42 -578.26,-575.35"
         style="fill:#8ce6b2;fill-opacity:1;fill-rule:nonzero;stroke:none"
         id="path220" />
      <path
         d="m 1600.01,6273.1 -42.31,42.52 578.25,575.35 42.32,-42.52 -578.26,-575.35"
         style="fill:#8ce6b2;fill-opacity:1;fill-rule:nonzero;stroke:none"
         id="path222" />
      <path
         d="m 1507.56,6365.99 -42.32,42.51 578.26,575.36 42.32,-42.52 -578.26,-575.35"
         style="fill:#8ce6b2;fill-opacity:1;fill-rule:nonzero;stroke:none"
         id="path224" />
      <path
         d="m 1415.11,6458.88 -42.32,42.51 578.26,575.35 42.31,-42.51 -578.25,-575.35"
         style="fill:#8ce6b2;fill-opacity:1;fill-rule:nonzero;stroke:none"
         id="path226" />
      <path
         d="m 2120.02,6661.5 -351.3,352.97 42.52,42.31 351.3,-352.97 -42.52,-42.31"
         style="fill:#8ce6b2;fill-opacity:1;fill-rule:nonzero;stroke:none"
         id="path228" />
      <path
         d="m 2026.18,6568.14 -351.31,352.97 42.53,42.3 351.31,-352.96 -42.53,-42.31"
         style="fill:#8ce6b2;fill-opacity:1;fill-rule:nonzero;stroke:none"
         id="path230" />
      <path
         d="m 1932.34,6474.77 -351.3,352.96 42.51,42.31 351.31,-352.97 -42.52,-42.3"
         style="fill:#8ce6b2;fill-opacity:1;fill-rule:nonzero;stroke:none"
         id="path232" />
      <path
         d="m 1838.5,6381.4 -351.31,352.97 42.53,42.31 351.31,-352.97 -42.53,-42.31"
         style="fill:#8ce6b2;fill-opacity:1;fill-rule:nonzero;stroke:none"
         id="path234" />
      <path
         d="m 1744.67,6288.03 -351.31,352.97 42.52,42.31 351.31,-352.97 -42.52,-42.31"
         style="fill:#8ce6b2;fill-opacity:1;fill-rule:nonzero;stroke:none"
         id="path236" />
      <path
         d="m 1702.12,5890.59 -171.51,-170.65 -86.47,86.87 171.51,170.65 86.47,-86.87"
         style="fill:#ce4339;fill-opacity:1;fill-rule:nonzero;stroke:none"
         id="path238" />
      <path
         d="m 9330.25,3949.32 h -256.72 v 944.5 h 256.72 v -944.5"
         style="fill:#e7a629;fill-opacity:1;fill-rule:nonzero;stroke:none"
         id="path240" />
      <path
         d="m 9104.78,3980.56 h 194.23 v 882.02 h -194.23 z m 225.47,-62.47 h -256.72 l -31.24,31.23 v 944.5 l 31.24,31.24 h 256.72 l 31.25,-31.24 v -944.5 l -31.25,-31.23"
         style="fill:#e7a629;fill-opacity:1;fill-rule:nonzero;stroke:none"
         id="path242" />
      <path
         d="m 7242.65,4360.13 h -268.12 v 62.48 h 268.12 v -62.48"
         style="fill:#373d65;fill-opacity:1;fill-rule:nonzero;stroke:none"
         id="path244" />
      <path
         d="m 7242.65,4253.6 h -268.12 v 62.48 h 268.12 v -62.48"
         style="fill:#373d65;fill-opacity:1;fill-rule:nonzero;stroke:none"
         id="path246" />
      <path
         d="m 7242.65,4141.91 h -268.12 v 62.48 h 268.12 v -62.48"
         style="fill:#373d65;fill-opacity:1;fill-rule:nonzero;stroke:none"
         id="path248" />
      <path
         d="m 7435.36,5228.83 -37.38,2.87 8.79,114.34 -71.91,-36.84 13.26,205.87 37.41,-2.4 -9.01,-140 72.76,37.28 -13.92,-181.12"
         style="fill:#ffffff;fill-opacity:1;fill-rule:nonzero;stroke:none"
         id="path250" />
      <path
         d="m 7516.04,5211.9 -32.21,19.17 58.64,98.55 -80.78,-1.08 103.29,178.58 32.45,-18.77 -70.23,-121.44 81.75,1.1 -92.91,-156.11"
         style="fill:#ffffff;fill-opacity:1;fill-rule:nonzero;stroke:none"
         id="path252" />
      <path
         d="M 9079.41,2681.04 H 5770.12 v 50 h 3309.29 v -50"
         style="fill:#444e78;fill-opacity:1;fill-rule:nonzero;stroke:none"
         id="path254" />
      <path
         d="M 7911.17,1885.76 H 6766.26 v 813.97 h 49.99 v -763.98 h 1094.92 v -49.99"
         style="fill:#444e78;fill-opacity:1;fill-rule:nonzero;stroke:none"
         id="path256" />
      <path
         d="m 9149.64,2566.7 h 477.65 v 278.67 h -477.65 z m 502.65,-49.98 h -527.65 l -24.99,24.99 v 328.65 l 24.99,24.99 h 527.65 l 24.99,-24.99 v -328.65 l -24.99,-24.99"
         style="fill:#8ce6b2;fill-opacity:1;fill-rule:nonzero;stroke:none"
         id="path258" />
      <path
         d="m 9034.18,2591.59 v 228.89 h 90.46 v -228.89 h -90.46"
         style="fill:#8ce6b2;fill-opacity:1;fill-rule:nonzero;stroke:none"
         id="path260" />
      <path
         d="m 9227.21,2541.71 h -49.99 v 328.65 h 49.99 v -328.65"
         style="fill:#8ce6b2;fill-opacity:1;fill-rule:nonzero;stroke:none"
         id="path262" />
      <path
         d="m 9304.21,2541.71 h -49.99 v 328.65 h 49.99 v -328.65"
         style="fill:#8ce6b2;fill-opacity:1;fill-rule:nonzero;stroke:none"
         id="path264" />
      <path
         d="m 9677.28,2616.58 h 77.67 v 178.91 h -77.67 z m 102.66,-49.98 h -127.65 l -25,24.99 v 228.89 l 25,25 h 127.65 l 25,-25 v -228.89 l -25,-24.99"
         style="fill:#8ce6b2;fill-opacity:1;fill-rule:nonzero;stroke:none"
         id="path266" />
      <path
         d="m 9779.94,2716.1 h -63.83 v 49.98 h 63.83 v -49.98"
         style="fill:#8ce6b2;fill-opacity:1;fill-rule:nonzero;stroke:none"
         id="path268" />
      <path
         d="m 9779.94,2638.77 h -63.83 v 49.99 h 63.83 v -49.99"
         style="fill:#8ce6b2;fill-opacity:1;fill-rule:nonzero;stroke:none"
         id="path270" />
      <path
         d="M 5705.8,1797.8 H 3820.83 v 62.48 H 5705.8 v -62.48"
         style="fill:#8ce6b2;fill-opacity:1;fill-rule:nonzero;stroke:none"
         id="path272" />
      <path
         d="M 5725.26,1709.81 H 3801.37 v 62.48 h 1923.89 v -62.48"
         style="fill:#8ce6b2;fill-opacity:1;fill-rule:nonzero;stroke:none"
         id="path274" />
      <path
         d="M 5753.39,1621.83 H 3773.24 v 62.47 h 1980.15 v -62.47"
         style="fill:#8ce6b2;fill-opacity:1;fill-rule:nonzero;stroke:none"
         id="path276" />
      <path
         d="M 4916.03,5962.18 H 3537.78 v 412.87 h 49.99 v -362.88 h 1328.26 v -49.99"
         style="fill:#444e78;fill-opacity:1;fill-rule:nonzero;stroke:none"
         id="path278" />
      <path
         d="m 10963,3513.3 -716.3,469.76 v 473.89 h 50 v -446.91 l 693.7,-454.94 -27.4,-41.8"
         style="fill:#444e78;fill-opacity:1;fill-rule:nonzero;stroke:none"
         id="path280" />
      <path
         d="m 11095.9,2024.18 h -164.2 v 57.51 h 164.2 v -57.51"
         style="fill:#ce4339;fill-opacity:1;fill-rule:nonzero;stroke:none"
         id="path282" />
      <path
         d="m 9962.61,3326.23 c -4.3,0 -7.81,-3.5 -7.81,-7.8 V 1972.12 c 0,-4.31 3.51,-7.8 7.81,-7.8 h 2102.49 c 4.3,0 7.8,3.49 7.8,7.8 v 1346.31 c 0,4.3 -3.5,7.8 -7.8,7.8 z M 12065.1,1891.85 H 9962.61 c -44.27,0 -80.29,36 -80.29,80.27 v 1346.31 c 0,44.27 36.02,80.28 80.29,80.28 h 2102.49 c 44.2,0 80.3,-36.01 80.3,-80.28 V 1972.12 c 0,-44.27 -36.1,-80.27 -80.3,-80.27"
         style="fill:#e7a629;fill-opacity:1;fill-rule:nonzero;stroke:none"
         id="path284" />
      <path
         d="m 11917.5,2141.98 h -1807.4 v 1044.34 h 1807.4 V 2141.98"
         style="fill:#8ce6b2;fill-opacity:1;fill-rule:nonzero;stroke:none"
         id="path286" />
      <path
         d="m 11396.1,1777.45 h -764.5 v 150.64 h 764.5 v -150.64"
         style="fill:#e7a629;fill-opacity:1;fill-rule:nonzero;stroke:none"
         id="path288" />
      <path
         d="m 10667.8,1813.69 h 692.1 v 78.16 h -692.1 z m 728.3,-72.48 h -764.5 l -36.3,36.24 v 150.63 l 36.3,36.24 h 764.5 l 36.3,-36.24 v -150.63 l -36.3,-36.24"
         style="fill:#e7a629;fill-opacity:1;fill-rule:nonzero;stroke:none"
         id="path290" />
      <path
         d="m 10469.6,1663.06 h 1088.5 v 78.15 h -1088.5 z m 1124.7,-72.47 h -1161 l -36.2,36.24 v 150.62 l 36.2,36.24 h 1161 l 36.3,-36.24 v -150.62 l -36.3,-36.24"
         style="fill:#e7a629;fill-opacity:1;fill-rule:nonzero;stroke:none"
         id="path292" />
      <path
         d="m 10627.2,2419.62 h 773.2 v 489.06 h -773.2 z m 781.7,-49.98 h -790.1 c -22.9,0 -41.6,18.63 -41.6,41.54 v 505.94 c 0,22.91 18.7,41.54 41.6,41.54 h 790.1 c 22.9,0 41.5,-18.63 41.5,-41.54 v -505.94 c 0,-22.91 -18.6,-41.54 -41.5,-41.54"
         style="fill:#ffffff;fill-opacity:1;fill-rule:nonzero;stroke:none"
         id="path294" />
      <path
         d="m 11026.7,2614.9 -25.8,0.01 -411.6,248.38 25.9,42.79 398.6,-240.59 374.9,225.97 25.8,-42.81 -387.8,-233.75"
         style="fill:#ffffff;fill-opacity:1;fill-rule:nonzero;stroke:none"
         id="path296" />
      <path
         d="m 10644.6,2380.2 -40.1,29.8 231,310.94 40.1,-29.8 -231,-310.94"
         style="fill:#ffffff;fill-opacity:1;fill-rule:nonzero;stroke:none"
         id="path298" />
      <path
         d="m 11378.5,2380.2 -230.9,310.94 40.1,29.8 231,-310.94 -40.2,-29.8"
         style="fill:#ffffff;fill-opacity:1;fill-rule:nonzero;stroke:none"
         id="path300" />
      <path
         d="m 6494.31,6313.93 -35.35,35.35 599.64,599.55 35.36,-35.35 -599.65,-599.55"
         style="fill:#444e78;fill-opacity:1;fill-rule:nonzero;stroke:none"
         id="path302" />
      <path
         d="m 6528.03,2680.21 -463.43,455.84 35.07,35.64 463.42,-455.85 -35.06,-35.63"
         style="fill:#444e78;fill-opacity:1;fill-rule:nonzero;stroke:none"
         id="path304" />
      <path
         d="m 7387.21,6313.93 -35.34,35.35 599.64,599.55 35.35,-35.35 -599.65,-599.55"
         style="fill:#444e78;fill-opacity:1;fill-rule:nonzero;stroke:none"
         id="path306" />
      <path
         d="m 7103.99,6313.93 -35.34,35.35 599.65,599.55 35.34,-35.35 -599.65,-599.55"
         style="fill:#444e78;fill-opacity:1;fill-rule:nonzero;stroke:none"
         id="path308" />
      <path
         d="m 4923.73,4367.86 h -734.52 v 49.98 h 734.52 v -49.98"
         style="fill:#444e78;fill-opacity:1;fill-rule:nonzero;stroke:none"
         id="path310" />
      <path
         d="m 6612.86,4367.86 h -700.45 v 49.98 h 700.45 v -49.98"
         style="fill:#444e78;fill-opacity:1;fill-rule:nonzero;stroke:none"
         id="path312" />
      <path
         d="m 5236.28,4309.01 c -96.58,0 -175.16,78.56 -175.16,175.16 0,96.57 78.58,175.15 175.16,175.15 96.63,0 175.21,-78.58 175.21,-175.15 0,-96.6 -78.58,-175.16 -175.21,-175.16 z m 282.32,79.65 c 7.6,22.37 12.54,45.84 14.57,70.02 l -48.31,23.41 c 0.07,7.81 -0.22,15.73 -0.93,23.63 -0.19,2.74 -0.56,5.44 -0.86,8.16 l 45.44,28.72 c -4.74,23.85 -12.25,46.63 -22.24,67.92 l -53.68,-3.89 c -5.24,9.29 -11.08,18.23 -17.44,26.69 l 24.99,47.51 c -15.79,17.94 -33.71,33.94 -53.3,47.67 l -44.51,-30.15 c -9.11,5.37 -18.59,10.2 -28.41,14.42 l -2.12,53.63 c -22.36,7.59 -45.86,12.56 -70.02,14.64 l -23.41,-48.35 c -7.82,0.07 -15.66,-0.24 -23.63,-0.93 -2.76,-0.22 -5.47,-0.57 -8.16,-0.9 l -28.68,45.48 c -23.88,-4.75 -46.67,-12.28 -68,-22.25 l 3.92,-53.68 c -9.28,-5.23 -18.23,-11.05 -26.68,-17.46 l -47.55,25.01 c -17.98,-15.81 -33.98,-33.72 -47.66,-53.32 l 30.19,-44.48 c -5.4,-9.12 -10.27,-18.6 -14.46,-28.39 l -53.65,-2.1 c -7.6,-22.36 -12.53,-45.83 -14.58,-70.05 l 48.34,-23.38 c -0.06,-7.84 0.2,-15.73 0.87,-23.66 0.26,-2.75 0.59,-5.41 0.95,-8.15 l -45.49,-28.68 c 4.78,-23.87 12.27,-46.64 22.26,-67.94 l 53.65,3.88 c 5.26,-9.28 11.09,-18.19 17.44,-26.68 l -24.98,-47.48 c 15.79,-18.01 33.74,-34.01 53.32,-47.7 l 44.48,30.17 c 9.14,-5.43 18.59,-10.26 28.42,-14.46 l 2.11,-53.63 c 22.36,-7.6 45.8,-12.54 70,-14.59 l 23.46,48.32 c 7.79,-0.05 15.7,0.22 23.64,0.9 2.72,0.22 5.4,0.6 8.1,0.94 l 28.7,-45.52 c 23.91,4.78 46.67,12.26 68,22.24 l -3.89,53.68 c 9.27,5.28 18.18,11.09 26.68,17.45 l 47.51,-24.98 c 17.96,15.81 33.97,33.7 47.67,53.31 l -30.13,44.48 c 5.34,9.13 10.19,18.61 14.43,28.43 l 53.63,2.09"
         style="fill:#8ce6b2;fill-opacity:1;fill-rule:nonzero;stroke:none"
         id="path314" />
      <path
         d="m 5342.56,4493.46 c 5.11,-58.72 -38.31,-110.44 -96.99,-115.52 -58.67,-5.14 -110.42,38.32 -115.55,96.97 -5.08,58.68 38.34,110.41 97.02,115.49 58.7,5.13 110.45,-38.3 115.52,-96.94 z m -247.42,-9.28 c 0,-77.84 63.3,-141.15 141.15,-141.15 77.88,0 141.19,63.31 141.19,141.15 0,77.82 -63.31,141.15 -141.19,141.15 -77.85,0 -141.15,-63.33 -141.15,-141.15"
         style="fill:#e7a629;fill-opacity:1;fill-rule:nonzero;stroke:none"
         id="path316" />
      <path
         d="m 5749.96,4287.29 c 20.87,-35.28 9.18,-80.82 -26.11,-101.69 -35.75,-21.13 -81.94,-8.86 -102.47,27.42 -19.25,34.09 -7.71,78.98 25.58,99.58 35.47,21.96 81.85,10.35 103,-25.31 z m -185.77,-37.27 c -1.4,-67.06 52.03,-122.79 119.12,-124.18 67.09,-1.41 122.8,52.03 124.2,119.1 1.43,67.06 -52.01,122.78 -119.12,124.18 -67.09,1.42 -122.8,-52.01 -124.2,-119.1"
         style="fill:#ffffff;fill-opacity:1;fill-rule:nonzero;stroke:none"
         id="path318" />
      <path
         d="m 5682.79,4102.08 c -80.18,1.66 -144.05,68.26 -142.36,148.46 1.66,80.18 68.26,144.04 148.48,142.35 80.18,-1.67 144.05,-68.27 142.38,-148.47 -1.69,-80.16 -68.28,-144.03 -148.5,-142.34 z m 227.11,123.3 c 1.58,16.23 1.44,32.57 -0.5,48.91 l -37.93,9.07 c -2,9.96 -4.81,19.86 -8.35,29.58 l 27.8,27.42 c -3.36,7.39 -7.12,14.65 -11.34,21.75 -4.16,7.07 -8.72,13.84 -13.59,20.34 l -37.42,-11.19 c -6.81,7.85 -14.12,15.05 -21.95,21.55 l 10.36,37.62 c -13.4,9.57 -27.66,17.59 -42.63,24 l -26.86,-28.41 c -9.69,3.34 -19.62,5.89 -29.69,7.65 l -9.93,37.85 c -16.18,1.57 -32.55,1.4 -48.82,-0.61 l -9.14,-37.9 c -9.96,-1.94 -19.81,-4.75 -29.52,-8.34 l -27.46,27.75 c -7.31,-3.29 -14.66,-7.03 -21.75,-11.26 -7.08,-4.18 -13.87,-8.74 -20.34,-13.55 l 11.15,-37.49 c -7.83,-6.8 -15.04,-14.12 -21.53,-21.92 l -37.61,10.33 c -9.6,-13.35 -17.59,-27.64 -24.01,-42.54 l 28.39,-26.91 c -3.34,-9.68 -5.82,-19.61 -7.6,-29.69 l -37.81,-9.92 c -1.63,-16.18 -1.44,-32.56 0.51,-48.86 l 37.98,-9.04 c 1.94,-10 4.72,-19.85 8.27,-29.62 l -27.76,-27.4 c 3.32,-7.39 7.05,-14.64 11.27,-21.7 4.22,-7.12 8.75,-13.93 13.59,-20.38 l 37.48,11.15 c 6.78,-7.82 14.15,-15.02 21.92,-21.52 l -10.3,-37.65 c 13.36,-9.54 27.6,-17.59 42.51,-23.93 l 26.93,28.37 c 9.71,-3.38 19.55,-5.89 29.71,-7.63 l 9.9,-37.84 c 16.15,-1.53 32.56,-1.42 48.88,0.54 l 9.03,37.95 c 9.99,1.94 19.86,4.75 29.56,8.33 l 27.56,-27.77 c 7.31,3.28 14.56,7.06 21.66,11.27 7.12,4.17 13.84,8.75 20.34,13.61 l -11.14,37.4 c 7.82,6.82 15.02,14.16 21.52,21.93 l 37.65,-10.31 c 9.56,13.36 17.6,27.65 23.93,42.58 l -28.38,26.91 c 3.32,9.64 5.91,19.53 7.65,29.65 l 37.81,9.87"
         style="fill:#e7a629;fill-opacity:1;fill-rule:nonzero;stroke:none"
         id="path320" />
      <path
         d="m 8941.93,1558.64 c -9.14,0 -16.58,-7.44 -16.58,-16.58 V 960.922 c 0,-9.152 7.44,-16.582 16.58,-16.582 h 525.31 l 28.67,-26.61 c 3.19,-42.789 -3.07,-95.238 -36.35,-144.621 66.28,29.071 140.63,77.352 179.19,155.243 l 25.76,15.988 h 257.81 c 9.15,0 16.6,7.43 16.6,16.582 v 581.138 c 0,9.14 -7.45,16.58 -16.6,16.58 z m 394.6,-882.421 -16.77,54.242 c 75.13,36.879 115.07,89.398 119.07,156.398 h -496.9 c -40.84,0 -74.07,33.223 -74.07,74.063 v 581.138 c 0,40.84 33.23,74.06 74.07,74.06 h 980.39 c 40.85,0 74.09,-33.22 74.09,-74.06 V 960.922 c 0,-40.84 -33.24,-74.063 -74.09,-74.063 H 9681.75 C 9641.33,816.121 9571,757.949 9477.17,717.898 9402.41,686 9339.19,676.602 9336.53,676.219"
         style="fill:#8ce6b2;fill-opacity:1;fill-rule:nonzero;stroke:none"
         id="path322" />
      <path
         d="m 10184.5,1052.55 c -10.5,0 -19,-8.51 -19,-18.97 V 721.73 c 0,-10.449 8.5,-18.96 19,-18.96 h 260.3 l 25.9,-16.168 c 34.3,-70.563 100.1,-114.993 160.1,-142.262 -28.4,45.281 -33.5,92.922 -30.3,132.039 l 28.7,26.391 h 806.7 c 10.5,0 19,8.511 19,18.96 v 311.85 c 0,10.46 -8.5,18.97 -19,18.97 z m 565.8,-604.718 c -9.7,1.398 -231,35.199 -322.8,197.457 h -243 c -42.2,0 -76.5,34.293 -76.5,76.441 v 311.85 c 0,42.16 34.3,76.45 76.5,76.45 h 1251.4 c 42.2,0 76.5,-34.29 76.5,-76.45 V 721.73 c 0,-42.148 -34.3,-76.441 -76.5,-76.441 h -778.4 c 3.9,-61.277 40.6,-109.367 109.6,-143.219 l -16.8,-54.238"
         style="fill:#e7a629;fill-opacity:1;fill-rule:nonzero;stroke:none"
         id="path324" />
      <path
         d="m 10604.2,884.441 c 0,-28.441 -23.1,-51.5 -51.5,-51.5 -28.5,0 -51.5,23.059 -51.5,51.5 0,28.438 23,51.5 51.5,51.5 28.4,0 51.5,-23.062 51.5,-51.5"
         style="fill:#ce4339;fill-opacity:1;fill-rule:nonzero;stroke:none"
         id="path326" />
      <path
         d="m 10861.7,884.441 c 0,-28.441 -23,-51.5 -51.5,-51.5 -28.4,0 -51.5,23.059 -51.5,51.5 0,28.438 23.1,51.5 51.5,51.5 28.5,0 51.5,-23.062 51.5,-51.5"
         style="fill:#ce4339;fill-opacity:1;fill-rule:nonzero;stroke:none"
         id="path328" />
      <path
         d="m 11119.3,884.441 c 0,-28.441 -23.1,-51.5 -51.5,-51.5 -28.5,0 -51.5,23.059 -51.5,51.5 0,28.438 23,51.5 51.5,51.5 28.4,0 51.5,-23.062 51.5,-51.5"
         style="fill:#ce4339;fill-opacity:1;fill-rule:nonzero;stroke:none"
         id="path330" />
      <path
         d="m 9807.68,1427.6 h -751.1 v 57.47 h 751.1 v -57.47"
         style="fill:#e7a629;fill-opacity:1;fill-rule:nonzero;stroke:none"
         id="path332" />
      <path
         d="m 9807.68,1293.72 h -751.1 v 57.48 h 751.1 v -57.48"
         style="fill:#e7a629;fill-opacity:1;fill-rule:nonzero;stroke:none"
         id="path334" />
      <path
         d="m 9807.68,1159.84 h -751.1 v 57.48 h 751.1 v -57.48"
         style="fill:#e7a629;fill-opacity:1;fill-rule:nonzero;stroke:none"
         id="path336" />
      <path
         d="m 9807.68,1025.98 h -751.1 v 57.48 h 751.1 v -57.48"
         style="fill:#e7a629;fill-opacity:1;fill-rule:nonzero;stroke:none"
         id="path338" />
      <path
         d="m 8958.62,5899.14 h -49.99 v 1017.48 h 1061.9 v -49.98 H 8958.62 v -967.5"
         style="fill:#444e78;fill-opacity:1;fill-rule:nonzero;stroke:none"
         id="path340" />
      <path
         d="m 1809.16,3412.24 c 0,-67.37 -54.61,-121.98 -121.98,-121.98 -67.38,0 -121.99,54.61 -121.99,121.98 0,67.35 54.61,121.96 121.99,121.96 67.37,0 121.98,-54.61 121.98,-121.96"
         style="fill:#e7a629;fill-opacity:1;fill-rule:nonzero;stroke:none"
         id="path342" />
      <path
         d="m 4980.49,5711.46 c 0,-32.04 -25.97,-58 -58.01,-58 -32.04,0 -58.01,25.96 -58.01,58 0,32.03 25.97,58 58.01,58 32.04,0 58.01,-25.97 58.01,-58"
         style="fill:#6c7dc9;fill-opacity:1;fill-rule:nonzero;stroke:none"
         id="path344" />
      <path
         d="m 4980.49,5987.17 c 0,-32.03 -25.97,-58 -58.01,-58 -32.04,0 -58.01,25.97 -58.01,58 0,32.04 25.97,58.01 58.01,58.01 32.04,0 58.01,-25.97 58.01,-58.01"
         style="fill:#6c7dc9;fill-opacity:1;fill-rule:nonzero;stroke:none"
         id="path346" />
      <path
         d="m 4808.94,3333.84 c 0,-32.04 -25.98,-58.01 -58.02,-58.01 -32.03,0 -58,25.97 -58,58.01 0,32.03 25.97,58 58,58 32.04,0 58.02,-25.97 58.02,-58"
         style="fill:#6c7dc9;fill-opacity:1;fill-rule:nonzero;stroke:none"
         id="path348" />
      <path
         d="m 7132.52,6947.87 c 0,-31.06 -25.18,-56.24 -56.24,-56.24 -31.07,0 -56.25,25.18 -56.25,56.24 0,31.06 25.18,56.23 56.25,56.23 31.06,0 56.24,-25.17 56.24,-56.23"
         style="fill:#6c7dc9;fill-opacity:1;fill-rule:nonzero;stroke:none"
         id="path350" />
      <path
         d="m 7742.22,6947.87 c 0,-31.06 -25.19,-56.24 -56.25,-56.24 -31.06,0 -56.24,25.18 -56.24,56.24 0,31.06 25.18,56.23 56.24,56.23 31.06,0 56.25,-25.17 56.25,-56.23"
         style="fill:#6c7dc9;fill-opacity:1;fill-rule:nonzero;stroke:none"
         id="path352" />
      <path
         d="m 8036.49,6947.87 c 0,-31.06 -25.18,-56.24 -56.25,-56.24 -31.05,0 -56.24,25.18 -56.24,56.24 0,31.06 25.19,56.23 56.24,56.23 31.07,0 56.25,-25.17 56.25,-56.23"
         style="fill:#6c7dc9;fill-opacity:1;fill-rule:nonzero;stroke:none"
         id="path354" />
      <path
         d="m 11032.9,3534.2 c 0,-31.07 -25.1,-56.24 -56.2,-56.24 -31.1,0 -56.3,25.17 -56.3,56.24 0,31.05 25.2,56.23 56.3,56.23 31.1,0 56.2,-25.18 56.2,-56.23"
         style="fill:#6c7dc9;fill-opacity:1;fill-rule:nonzero;stroke:none"
         id="path356" />
      <path
         d="m 11000.5,4755.16 c 0,-32.04 -25.9,-58.01 -58,-58.01 -32,0 -58,25.97 -58,58.01 0,32.03 26,57.99 58,57.99 32.1,0 58,-25.96 58,-57.99"
         style="fill:#6c7dc9;fill-opacity:1;fill-rule:nonzero;stroke:none"
         id="path358" />
      <path
         d="m 6082.14,3210.11 c 31.06,0 56.24,-25.18 56.24,-56.23 0,-31.07 -25.18,-56.24 -56.24,-56.24 -31.07,0 -56.25,25.17 -56.25,56.24 0,31.05 25.18,56.23 56.25,56.23"
         style="fill:#6c7dc9;fill-opacity:1;fill-rule:nonzero;stroke:none"
         id="path360" />
      <path
         d="m 7069.99,2680.21 -463.41,455.84 35.06,35.64 463.41,-455.85 -35.06,-35.63"
         style="fill:#444e78;fill-opacity:1;fill-rule:nonzero;stroke:none"
         id="path362" />
      <path
         d="m 6624.1,3210.11 c 31.07,0 56.25,-25.18 56.25,-56.23 0,-31.07 -25.18,-56.24 -56.25,-56.24 -31.05,0 -56.24,25.17 -56.24,56.24 0,31.05 25.19,56.23 56.24,56.23"
         style="fill:#6c7dc9;fill-opacity:1;fill-rule:nonzero;stroke:none"
         id="path364" />
      <path
         d="m 9970.54,6947.87 c 31.06,0 56.26,-25.18 56.26,-56.24 0,-31.06 -25.2,-56.24 -56.26,-56.24 -31.07,0 -56.25,25.18 -56.25,56.24 0,31.06 25.18,56.24 56.25,56.24"
         style="fill:#6c7dc9;fill-opacity:1;fill-rule:nonzero;stroke:none"
         id="path366" />
      <path
         d="m 5753.39,965.66 c 31.07,0 56.25,-25.168 56.25,-56.23 0,-31.059 -25.18,-56.239 -56.25,-56.239 -31.06,0 -56.24,25.18 -56.24,56.239 0,31.062 25.18,56.23 56.24,56.23"
         style="fill:#6c7dc9;fill-opacity:1;fill-rule:nonzero;stroke:none"
         id="path368" />
      <path
         d="m 7998.8,1903.47 c 0,-50.36 -40.83,-91.19 -91.2,-91.19 -50.37,0 -91.2,40.83 -91.2,91.19 0,50.36 40.83,91.18 91.2,91.18 50.37,0 91.2,-40.82 91.2,-91.18"
         style="fill:#8ce6b2;fill-opacity:1;fill-rule:nonzero;stroke:none"
         id="path370" />
      <path
         d="m 8167.84,6070.61 c -404.53,0 -784.84,-157.5 -1070.88,-443.5 -286.04,-286 -443.58,-666.26 -443.58,-1070.72 0,-404.46 157.54,-784.72 443.58,-1070.72 286.04,-285.99 666.35,-443.5 1070.88,-443.5 404.52,0 784.84,157.51 1070.88,443.5 286.05,286 443.57,666.26 443.57,1070.72 0,404.46 -157.52,784.72 -443.57,1070.72 -286.04,286 -666.36,443.5 -1070.88,443.5 z m 0,-3090.92 c -421.22,0 -817.22,164.01 -1115.07,461.8 -297.85,297.81 -461.88,693.75 -461.88,1114.9 0,421.15 164.03,817.1 461.88,1114.89 297.85,297.81 693.85,461.81 1115.07,461.81 421.22,0 817.23,-164 1115.07,-461.81 297.84,-297.79 461.88,-693.74 461.88,-1114.89 0,-421.15 -164.04,-817.09 -461.88,-1114.9 -297.84,-297.79 -693.85,-461.8 -1115.07,-461.8"
         style="fill:#8ce6b2;fill-opacity:1;fill-rule:nonzero;stroke:none"
         id="path372" />
      <path
         d="m 8167.84,5912.2 c -362.21,0 -702.73,-141.03 -958.86,-397.11 -256.11,-256.08 -397.15,-596.55 -397.15,-958.7 0,-362.15 141.04,-702.62 397.15,-958.69 256.13,-256.09 596.65,-397.11 958.86,-397.11 362.21,0 702.74,141.02 958.85,397.11 256.11,256.07 397.17,596.54 397.17,958.69 0,362.15 -141.06,702.62 -397.17,958.7 -256.11,256.08 -596.64,397.11 -958.85,397.11 z m 0,-2761.6 c -375.55,0 -728.64,146.23 -994.2,411.74 -265.55,265.53 -411.81,618.55 -411.81,994.05 0,375.5 146.26,728.53 411.81,994.04 265.56,265.52 618.65,411.75 994.2,411.75 375.56,0 728.63,-146.23 994.2,-411.75 265.56,-265.51 411.81,-618.54 411.81,-994.04 0,-375.5 -146.25,-728.52 -411.81,-994.05 -265.57,-265.51 -618.64,-411.74 -994.2,-411.74"
         style="fill:#ce4339;fill-opacity:1;fill-rule:nonzero;stroke:none"
         id="path374" />
      <path
         d="m 7005.78,3980.56 h 205.62 v 472.3 h -205.62 z m 236.87,-62.47 h -268.12 l -31.24,31.23 v 534.78 l 31.24,31.23 h 268.12 l 31.24,-31.23 v -534.78 l -31.24,-31.23"
         style="fill:#8ce6b2;fill-opacity:1;fill-rule:nonzero;stroke:none"
         id="path376" />
      <path
         d="M 9407.06,3912.49 H 6928.61 v 62.48 h 2478.45 v -62.48"
         style="fill:#ce4339;fill-opacity:1;fill-rule:nonzero;stroke:none"
         id="path378" />
      <path
         d="m 6028.43,6325.07 c 0,-32.03 -25.97,-58 -58.01,-58 -32.04,0 -58.01,25.97 -58.01,58 0,32.03 25.97,58 58.01,58 32.04,0 58.01,-25.97 58.01,-58"
         style="fill:#6c7dc9;fill-opacity:1;fill-rule:nonzero;stroke:none"
         id="path380" />
      <path
         d="m 3197.55,6805.25 c -101.16,0 -183.47,-82.29 -183.47,-183.44 0,-101.15 82.31,-183.44 183.47,-183.44 h 801.83 c 78.5,0 142.36,63.85 142.36,142.33 0,78.48 -63.86,142.34 -142.36,142.34 l -3.03,-0.09 -30.13,24.44 c -16.26,86.53 -92.09,149.33 -180.3,149.33 -25.99,0 -51.12,-5.33 -74.66,-15.83 l -40.63,17.74 c -30.01,88.34 -112.93,147.69 -206.31,147.69 -117.35,0 -215.05,-95.39 -217.78,-212.63 l -32.63,-29.17 c -5.51,0.48 -11.01,0.73 -16.36,0.73 z m 801.83,-426.86 h -801.83 c -134.24,0 -243.46,109.2 -243.46,243.42 0,131.32 104.54,238.69 234.78,243.26 8.05,61.41 36.27,118.09 81.17,162.02 52.22,51.08 121.21,79.21 194.28,79.21 108.71,0 206.31,-63.1 251.61,-159.8 22.58,6.78 46.01,10.2 69.99,10.2 108.88,0 203.55,-72.15 233.61,-174.68 102.15,-10.13 182.2,-96.56 182.2,-201.32 0,-111.55 -90.77,-202.31 -202.35,-202.31"
         style="fill:#ffffff;fill-opacity:1;fill-rule:nonzero;stroke:none"
         id="path382" />
      <path
         d="m 5869.41,2706.04 c 0,-32.04 -25.97,-58 -58,-58 -32.04,0 -58.02,25.96 -58.02,58 0,32.03 25.98,58 58.02,58 32.03,0 58,-25.97 58,-58"
         style="fill:#6c7dc9;fill-opacity:1;fill-rule:nonzero;stroke:none"
         id="path384" />
      <path
         d="m 3830.59,4085.78 c 41.59,54.31 74.3,109.17 100.04,162.23 h 120.85 C 3991,4178.96 3915.7,4123.22 3830.59,4085.78 Z m -726.25,162.23 h 135.69 c 27.21,-56.08 62.25,-114.16 107.28,-171.49 -94.19,37.21 -177.31,96.52 -242.97,171.49 z m 318.37,1024.16 c -29.38,-27.74 -63.81,-64.03 -98.32,-108.93 -16.56,-21.56 -33.77,-46.06 -50.68,-73.33 h -157.1 c 81.21,87.49 186.91,151.93 306.1,182.26 z m 616.5,-182.26 h -142.25 c -16.91,27.27 -34.12,51.77 -50.69,73.33 -32.18,41.89 -64.31,76.28 -92.33,103.22 110.68,-32.28 208.83,-94.2 285.27,-176.55 z m -16.25,-391.51 c -7.82,125.58 -42.71,232.48 -85.64,319.04 h 159.9 c 63.04,-91.84 102.37,-201.14 109.1,-319.04 z m 1.86,-72.47 h 181.5 c -6.4,-112.14 -42.29,-216.5 -100.02,-305.45 h -144.14 c 54.2,140.25 61.97,258.47 62.66,305.45 z m -410.66,-305.45 v 305.45 h 338.06 c -1.01,-44.17 -9.64,-164.99 -68.94,-305.45 z m 0,-72.47 h 234.59 c -36.11,-67.63 -84.79,-137.4 -150.3,-203.6 -27.51,-5.35 -55.64,-8.92 -84.29,-10.56 z m -72.49,0 v -214.16 c -22.43,1.28 -44.54,3.75 -66.28,7.33 -67.02,67.03 -116.6,138.01 -153.26,206.83 z m -323.16,377.92 h 323.16 v -305.45 h -254.01 c -59.16,140.32 -68.04,261.25 -69.15,305.45 z m -70.8,72.47 H 2949.5 c 6.73,117.9 46.06,227.2 109.1,319.04 h 174.75 c -42.93,-86.56 -77.82,-193.46 -85.64,-319.04 z m 393.96,319.04 V 4698.4 h -321.41 c 7.48,113.05 39.15,219.83 94.54,319.04 z m 0,259.61 v -187.14 h -181.26 c 6.4,9.08 13,18.1 19.83,27.04 73.1,95.76 147.3,150.16 161.43,160.1 z m 0,5.28 -5.19,7.82 c 1.73,0.11 3.46,0.23 5.19,0.32 z m 314.2,-264.89 c 55.39,-99.21 87.05,-205.99 94.54,-319.04 h -336.25 v 319.04 z m -65.44,99.51 c 6.83,-8.94 13.43,-17.96 19.83,-27.04 h -196.1 v 200.56 c 6.46,-0.36 12.89,-0.84 19.3,-1.4 l -6.86,-10.36 c 0.82,-0.55 83.01,-55.89 163.83,-161.76 z M 2949.5,4625.93 h 196.35 c 0.69,-46.98 8.46,-165.2 62.67,-305.45 h -159 c -57.73,88.95 -93.62,193.31 -100.02,305.45 z m 628.41,738.09 c -387.06,0 -701.96,-314.85 -701.96,-701.85 0,-387.01 314.9,-701.86 701.96,-701.86 387.07,0 701.96,314.85 701.96,701.86 0,387 -314.89,701.85 -701.96,701.85"
         style="fill:#e7a629;fill-opacity:1;fill-rule:nonzero;stroke:none"
         id="path386" />
    </g>
  </g>
</svg>
