<?xml version="1.0" encoding="UTF-8" standalone="no"?>
<!-- Created with Inkscape (http://www.inkscape.org/) -->

<svg
   version="1.1"
   id="svg2"
   width="4000"
   height="2666.6667"
   viewBox="0 0 4000 2666.6667"
   sodipodi:docname="Business data analysis and hand holding megaphone.eps"
   xmlns:inkscape="http://www.inkscape.org/namespaces/inkscape"
   xmlns:sodipodi="http://sodipodi.sourceforge.net/DTD/sodipodi-0.dtd"
   xmlns="http://www.w3.org/2000/svg"
   xmlns:svg="http://www.w3.org/2000/svg">
  <defs
     id="defs6" />
  <sodipodi:namedview
     id="namedview4"
     pagecolor="#ffffff"
     bordercolor="#000000"
     borderopacity="0.25"
     inkscape:showpageshadow="2"
     inkscape:pageopacity="0.0"
     inkscape:pagecheckerboard="0"
     inkscape:deskcolor="#d1d1d1" />
  <g
     id="g8"
     inkscape:groupmode="layer"
     inkscape:label="ink_ext_XXXXXX"
     transform="matrix(1.3333333,0,0,-1.3333333,0,2666.6667)">
    <g
       id="g10"
       transform="scale(0.1)">
      <path
         d="M 30000,0 H 0 V 20000 H 30000 V 0"
         style="fill:#ffffff;fill-opacity:1;fill-rule:nonzero;stroke:none"
         id="path12" />
      <path
         d="m 24373.4,2113.3 c -815.2,-313.8 -3212.1,346.5 -4037.9,396.1 L 5421.55,2056.3 C 1930.62,3017.4 -971.484,8447.6 3526.21,10866 5792.86,12084.7 1656.93,16277.5 6350.43,17857.8 9672.17,18976.1 11414.3,16083.5 17738.6,18182.5 23673,20152.1 25627,16782.2 24373.4,13422.9 22975.8,9677.7 25269,10397 26235.5,8940.8 27662.9,6790.2 27711.4,3398.1 24373.4,2113.3"
         style="fill:#dde7fe;fill-opacity:1;fill-rule:nonzero;stroke:none"
         id="path14" />
      <path
         d="m 25349,2113.3 c 0,433.5 -4776.2,785 -10668.1,785 -5891.77,0 -10668.03,-351.5 -10668.03,-785 0,-433.5 4776.26,-785 10668.03,-785 5891.9,0 10668.1,351.5 10668.1,785"
         style="fill:#bdd1f9;fill-opacity:1;fill-rule:nonzero;stroke:none"
         id="path16" />
      <path
         d="m 11026.2,6202.1 c 0,0 105.8,4251.2 -7153.12,3216.9 0,0 3769.87,-6543.7 7153.12,-3216.9"
         style="fill:#7c9af2;fill-opacity:1;fill-rule:nonzero;stroke:none"
         id="path18" />
      <path
         d="M 3859.72,9425.2 10946.7,6732.4 C 10697,7835.1 9507.62,10229.9 3859.72,9425.2"
         style="fill:#91b5f8;fill-opacity:1;fill-rule:nonzero;stroke:none"
         id="path20" />
      <path
         d="m 10653.5,6835.2 c 2.4,1.4 4.5,3.6 5.5,6.5 2.5,6.3 -0.8,13.5 -7.1,15.9 L 3864.11,9436.8 c -6.42,2.4 -13.54,-0.8 -15.94,-7.2 -2.44,-6.4 0.79,-13.5 7.16,-15.9 L 10643.1,6834.5 c 3.5,-1.3 7.3,-1 10.4,0.7"
         style="fill:#060633;fill-opacity:1;fill-rule:nonzero;stroke:none"
         id="path22" />
      <path
         d="m 7409.22,8068 c 5.32,2.9 7.79,9.4 5.5,15.3 -2.47,6.3 -9.63,9.5 -15.98,7 L 5519.51,7357.5 c -6.28,-2.5 -9.51,-9.7 -7.01,-16 2.47,-6.4 9.64,-9.5 15.98,-7.1 l 1879.23,732.9 c 0.52,0.2 1.03,0.4 1.51,0.7"
         style="fill:#060633;fill-opacity:1;fill-rule:nonzero;stroke:none"
         id="path24" />
      <path
         d="m 8863.18,7515.5 c 0.72,0.4 1.41,0.9 2.05,1.4 5.2,4.4 5.82,12.2 1.4,17.4 L 7582.16,9041.2 c -4.45,5.2 -12.4,5.8 -17.42,1.4 -5.19,-4.4 -5.81,-12.2 -1.4,-17.4 L 8847.82,7518.3 c 3.89,-4.6 10.33,-5.6 15.36,-2.8"
         style="fill:#060633;fill-opacity:1;fill-rule:nonzero;stroke:none"
         id="path26" />
      <path
         d="m 12319,5440.9 c 0,0 -1796.7,4351.2 -8682.37,53.3 0,0 6747.17,-4936.501 8682.37,-53.3"
         style="fill:#7c9af2;fill-opacity:1;fill-rule:nonzero;stroke:none"
         id="path28" />
      <path
         d="m 3620.32,5494.5 8380.78,447.6 C 11254.4,6946.7 8977.83,8838.5 3620.32,5494.5"
         style="fill:#91b5f8;fill-opacity:1;fill-rule:nonzero;stroke:none"
         id="path30" />
      <path
         d="m 11658.2,5915 c 1.8,2.4 2.9,5.6 2.7,9 -0.4,7.5 -6.8,13.3 -14.4,12.9 L 3619.59,5508.2 c -7.57,-0.5 -13.34,-6.9 -12.92,-14.4 0.39,-7.6 6.84,-13.3 14.38,-13 L 11648,5909.6 c 4.2,0.2 7.8,2.3 10.2,5.4"
         style="fill:#060633;fill-opacity:1;fill-rule:nonzero;stroke:none"
         id="path32" />
      <path
         d="m 7821.64,5710.1 c 4.06,5.3 3.64,13 -1.28,17.9 -5.36,5.3 -14.01,5.3 -19.33,0 L 6226.71,4144.4 c -5.24,-5.3 -5.3,-14 0.07,-19.3 5.35,-5.3 14.02,-5.3 19.33,0 l 1574.31,1583.6 c 0.44,0.4 0.85,0.9 1.22,1.4"
         style="fill:#060633;fill-opacity:1;fill-rule:nonzero;stroke:none"
         id="path34" />
      <path
         d="m 9541.04,5801.9 c 0.55,0.7 1.04,1.5 1.45,2.3 3.27,6.8 0.41,15 -6.39,18.3 l -1975.26,950.3 c -6.82,3.3 -15.12,0.3 -18.25,-6.4 -3.28,-6.8 -0.42,-14.9 6.38,-18.2 l 1975.26,-950.4 c 5.98,-2.8 12.97,-1 16.81,4.1"
         style="fill:#060633;fill-opacity:1;fill-rule:nonzero;stroke:none"
         id="path36" />
      <path
         d="m 17845,7205 c 0,0 -925.4,3814.1 5824.5,4298.4 0,0 -2123,-6638.9 -5824.5,-4298.4"
         style="fill:#7c9af2;fill-opacity:1;fill-rule:nonzero;stroke:none"
         id="path38" />
      <path
         d="M 23680.4,11511.6 17813.2,7698.8 c 10,1043.5 615.3,3436 5867.2,3812.8"
         style="fill:#91b5f8;fill-opacity:1;fill-rule:nonzero;stroke:none"
         id="path40" />
      <path
         d="m 18057.7,7848.9 c -2.5,0.7 -4.8,2.3 -6.3,4.7 -3.5,5.3 -1.9,12.3 3.3,15.8 l 5619.4,3651.8 c 5.4,3.4 12.4,1.9 15.8,-3.3 3.5,-5.3 1.9,-12.4 -3.3,-15.8 L 18067.2,7850.2 c -3,-1.9 -6.4,-2.3 -9.5,-1.3"
         style="fill:#060633;fill-opacity:1;fill-rule:nonzero;stroke:none"
         id="path42" />
      <path
         d="m 20743.5,9594.3 c -5.4,1.6 -8.9,7 -8,12.7 1,6.2 6.9,10.5 13.1,9.5 l 1838.2,-294.2 c 6.2,-1 10.5,-6.8 9.5,-13 -1,-6.3 -6.9,-10.5 -13.1,-9.5 L 20745,9594 c -0.5,0 -1,0.2 -1.5,0.3"
         style="fill:#060633;fill-opacity:1;fill-rule:nonzero;stroke:none"
         id="path44" />
      <path
         d="m 19539.8,8812 c -0.7,0.3 -1.5,0.6 -2.1,0.9 -5.6,3 -7.7,9.9 -4.7,15.5 l 864.5,1610.1 c 2.9,5.5 10,7.6 15.4,4.6 5.5,-2.9 7.6,-9.8 4.7,-15.4 l -864.5,-1610.1 c -2.6,-4.9 -8.2,-7.1 -13.3,-5.6"
         style="fill:#060633;fill-opacity:1;fill-rule:nonzero;stroke:none"
         id="path46" />
      <path
         d="m 18256.3,6303 c 0,0 2145.6,3799.1 7992.9,-934.4 0,0 -6765.8,-3776.8 -7992.9,934.4"
         style="fill:#7c9af2;fill-opacity:1;fill-rule:nonzero;stroke:none"
         id="path48" />
      <path
         d="m 26264.2,5367 -7658.7,1361 c 800.7,839.5 3109.2,2322 7658.7,-1361"
         style="fill:#91b5f8;fill-opacity:1;fill-rule:nonzero;stroke:none"
         id="path50" />
      <path
         d="m 18917.9,6664.2 c -1.4,2.5 -2,5.5 -1.5,8.6 1.2,6.9 7.8,11.5 14.7,10.2 l 7335.3,-1303.5 c 6.9,-1.3 11.5,-7.9 10.3,-14.7 -1.2,-6.9 -7.8,-11.5 -14.7,-10.3 l -7335.3,1303.6 c -3.8,0.7 -7,3 -8.8,6.1"
         style="fill:#060633;fill-opacity:1;fill-rule:nonzero;stroke:none"
         id="path52" />
      <path
         d="m 22423.9,6041.2 c -3.1,5.3 -1.9,12.4 3.2,16.3 5.5,4.3 13.5,3.3 17.8,-2.2 l 1268.8,-1635 c 4.2,-5.5 3.3,-13.5 -2.3,-17.8 -5.5,-4.3 -13.5,-3.3 -17.7,2.2 l -1268.9,1635 c -0.3,0.5 -0.6,1 -0.9,1.5"
         style="fill:#060633;fill-opacity:1;fill-rule:nonzero;stroke:none"
         id="path54" />
      <path
         d="m 20852.6,6320.4 c -0.4,0.7 -0.8,1.5 -1,2.3 -2.3,6.6 1.3,13.8 7.9,16.1 l 1924.7,650.4 c 6.6,2.3 13.9,-1.4 16,-7.9 2.3,-6.6 -1.3,-13.8 -7.9,-16.1 l -1924.7,-650.5 c -5.8,-1.9 -12,0.6 -15,5.7"
         style="fill:#060633;fill-opacity:1;fill-rule:nonzero;stroke:none"
         id="path56" />
      <path
         d="M 15472.9,2698 H 13557 v 1825.5 h 1915.9 V 2698"
         style="fill:#060633;fill-opacity:1;fill-rule:nonzero;stroke:none"
         id="path58" />
      <path
         d="M 19744.6,11523 H 9418.75 c -97.49,0 -176.51,-79 -176.51,-176.5 V 4560.1 c 0,-97.5 79.02,-176.5 176.5,-176.5 H 19744.6 c 97.4,0 176.5,79 176.5,176.5 v 6786.4 c 0,97.5 -79.1,176.5 -176.5,176.5"
         style="fill:#0c0c4c;fill-opacity:1;fill-rule:nonzero;stroke:none"
         id="path60" />
      <path
         d="M 19638.4,11333.8 V 4921.2 H 9514.43 v 6412.6 H 19638.4"
         style="fill:#d4e4fc;fill-opacity:1;fill-rule:nonzero;stroke:none"
         id="path62" />
      <path
         d="M 16150.8,2875.9 H 12879 v -418.7 h 3271.8 v 418.7"
         style="fill:#0c0c4c;fill-opacity:1;fill-rule:nonzero;stroke:none"
         id="path64" />
      <path
         d="m 17986.1,5642 c -276.6,369.6 -447.6,600 -505.6,677.5 -78.7,105.2 -230.6,414.9 -401.3,760.1 -231.2,467.8 -496.7,1000.5 -660.3,1176.4 -66.1,71 -193.9,131.7 -342.2,183 -122.2,42.3 -435.8,-457.8 -1632.6,-332.9 0.2,-0.5 517.3,-321.6 537.3,-374.6 37.4,-98.7 63.7,-172.4 71.3,-202.2 1.6,-6.4 2.3,-10.8 2,-13 -1.2,-13 -2.5,-25.9 -3.8,-38.6 0,-0.1 0,-0.1 0,-0.1 -4.9,-49.2 -9.6,-96.1 -13.8,-139.9 -0.2,-1.5 -0.2,-3.1 -0.4,-4.6 -2.1,-21.8 -4.1,-42.8 -6,-62.8 -0.3,-3.7 -0.6,-7.2 -1,-10.8 -8.1,-84.6 -14.1,-151.4 -17.7,-190.9 -0.3,-3.1 -0.6,-6.2 -0.8,-8.8 -1.8,-20.4 -2.8,-31.4 -2.8,-31.4 0,0 -112.1,26.6 -209.2,-16.6 -30.5,-13.4 -59.2,-33.8 -82.7,-63.7 -6.2,-7.9 -12.1,-16.6 -17.6,-25.9 -5.2,-9 -22.6,-49.1 -45.1,-104.6 -0.4,-1.1 -0.8,-2.1 -1.3,-3.2 -67.3,-166.8 -83.4,-447.4 -45.7,-473.2 0.1,-0.1 44.8,-66.6 64.1,-85 59.4,-56.7 253.2,-253.9 755.3,-409.6 55.7,-17.3 107.2,-43.1 159,-61.4 408.9,-144.8 350.5,-186.2 619.5,-433.2 5.2,-4.7 15.2,-20.7 29.5,-46.6 37.6,-67.9 105.4,-204 196.4,-384.2 h 2096.8 c -210.6,279.7 -391.5,520.7 -541.3,720.8"
         style="fill:#f09684;fill-opacity:1;fill-rule:nonzero;stroke:none"
         id="path66" />
      <path
         d="m 16393.3,6535.3 c 42.9,-10.8 70.8,-10.2 73.2,-10.1 l -0.6,16.3 c -1.1,-0.1 -114.8,-2.3 -240.8,97 -116.7,92 -268.3,292.5 -327.3,724.8 l -16.1,-2.2 c 33,-242.1 117.9,-566.4 334.4,-736.2 67.7,-53.1 131.1,-77.9 177.2,-89.6"
         style="fill:#d97d6b;fill-opacity:1;fill-rule:nonzero;stroke:none"
         id="path68" />
      <path
         d="m 15627.6,9554.4 c 52.1,-11.4 121.2,63.1 121.2,63.1 -34.4,96.6 -68.9,196.8 -104.6,293.8 -32.8,-11.1 -75.7,-34 -87.7,-78.2 -20.2,-74.3 18.9,-267.2 71.1,-278.7"
         style="fill:#f3b2a3;fill-opacity:1;fill-rule:nonzero;stroke:none"
         id="path70" />
      <path
         d="m 18871.5,4921.2 c -412.1,581.1 -793.2,1098.9 -836.5,1079.3 -42,-19.4 -79.5,-39.6 -115.4,-61.9 -56.4,-33.7 -106.5,-72.3 -152,-111.5 -0.1,-0.1 -0.1,-0.1 -0.3,-0.1 -291,-253.4 -393.3,-581.6 -891.5,-651.9 -245.7,-34.8 -435,-106.4 -560.6,-200.1 -9.5,-6.8 -17.8,-13.4 -26,-21.1 -0.1,-0.1 -0.1,-0.2 -0.2,-0.2 -12.9,-10.7 -24.6,-21.5 -35.4,-32.5 h 2617.9"
         style="fill:#3862bf;fill-opacity:1;fill-rule:nonzero;stroke:none"
         id="path72" />
      <path
         d="m 15289.4,6205.4 v 0 c 210.6,-23.9 398.5,108.6 419.8,296 l 314.2,2765.5 c 21.3,187.4 -132.2,358.7 -342.8,382.6 v 0 c -210.6,23.9 -398.6,-108.6 -419.9,-296 L 14946.6,6588 c -21.3,-187.3 132.2,-358.6 342.8,-382.6"
         style="fill:#060633;fill-opacity:1;fill-rule:nonzero;stroke:none"
         id="path74" />
      <path
         d="m 12715.9,13719.5 4421.7,-3388.5 263.6,-551.7 -492.2,-463 -5621.6,-327.4 1428.5,4730.6"
         style="fill:#fa7267;fill-opacity:1;fill-rule:nonzero;stroke:none"
         id="path76" />
      <path
         d="m 11434.3,11526.7 c -361,-1220.2 -89.1,-2376.4 607.3,-2582.4 696.3,-206 1553.5,616.2 1914.5,1836.4 360.9,1220.2 89,2376.4 -607.3,2582.4 -696.4,206 -1553.6,-616.2 -1914.5,-1836.4"
         style="fill:#3862bf;fill-opacity:1;fill-rule:nonzero;stroke:none"
         id="path78" />
      <path
         d="m 17137.6,10331 786.4,-398.6 c 0,0 152.1,-12.9 45.5,-432.8 -106.6,-420 -251.2,-245.8 -1060.5,-183.3 0,0 544.8,425.8 228.6,1014.7"
         style="fill:#0c0755;fill-opacity:1;fill-rule:nonzero;stroke:none"
         id="path80" />
      <path
         d="m 12176.4,8917.3 -969,75.1 1356.2,4811.2 930.3,-500.3 -372.2,-2824.7 -945.3,-1561.3"
         style="fill:#3862bf;fill-opacity:1;fill-rule:nonzero;stroke:none"
         id="path82" />
      <path
         d="m 10528.2,11794.8 c -392.8,-1327.7 -146.7,-2571 549.7,-2777 696.4,-206 1579.3,703.3 1972.1,2031 392.7,1327.6 146.6,2570.9 -549.8,2776.9 -696.4,206 -1579.3,-703.3 -1972,-2030.9"
         style="fill:#5d80d6;fill-opacity:1;fill-rule:nonzero;stroke:none"
         id="path84" />
      <path
         d="m 10676.5,11750.9 c -346.6,-1171.5 -141.3,-2265.1 458.6,-2442.5 599.8,-177.5 1367.1,628.4 1713.6,1799.9 346.6,1171.5 141.3,2265 -458.6,2442.5 -599.8,177.4 -1367.1,-628.4 -1713.6,-1799.9"
         style="fill:#0c0755;fill-opacity:1;fill-rule:nonzero;stroke:none"
         id="path86" />
      <path
         d="m 12295.6,12058.9 -1150.1,-152.6 -153.4,-713.5 1018,-666.1 c 105.9,-86 254,-72.3 345.3,31.2 215.9,244.6 517.1,736.8 200.5,1356.9 -51.5,101 -154.6,158.1 -260.3,144.1"
         style="fill:#fa7267;fill-opacity:1;fill-rule:nonzero;stroke:none"
         id="path88" />
      <path
         d="m 10919.2,11565.5 c -36,-205.7 5.8,-387.3 93.5,-405.4 87.7,-18.2 188,133.9 224.1,339.7 36,205.7 -5.8,387.3 -93.5,405.4 -87.7,18.2 -188,-133.9 -224.1,-339.7"
         style="fill:#f09684;fill-opacity:1;fill-rule:nonzero;stroke:none"
         id="path90" />
      <path
         d="m 14071.8,7490.9 -9.7,79.5 c -20.7,155.7 189.6,264.7 468.7,286.5 l 679.6,52.4 c 286.2,22.4 443.3,-32.6 500.3,-184.3 10.2,-27.1 15.5,-67.1 13.9,-97 -8.3,-158.7 -122.1,-267.8 -408.3,-290.2 l -708.7,-58.7 c -279.1,-21.8 -515.1,56.2 -535.8,211.8"
         style="fill:#f1a38d;fill-opacity:1;fill-rule:nonzero;stroke:none"
         id="path92" />
      <path
         d="m 14189.4,6925.8 -13.2,81.3 c -23.4,145.3 174.5,253.9 440.3,284.9 l 702.3,81.8 c 272.5,31.7 479.7,-20.3 533.3,-163.4 10.1,-27 14.6,-59.6 13,-90.6 -8.1,-150.1 -186.9,-253.6 -459.5,-285.3 l -702.3,-81.8 c -265.8,-31 -490.5,27.8 -513.9,173.1"
         style="fill:#f1a38d;fill-opacity:1;fill-rule:nonzero;stroke:none"
         id="path94" />
      <path
         d="m 14342.2,6518.4 1,62 c 2,120.8 176.7,206.6 393.9,223.1 l 445.6,18.2 c 174.3,8.9 395.7,-1.7 412.7,-158.2 20.4,-189.1 -277.7,-269.4 -379.8,-271.6 l -486,-37 c -217.2,-16.5 -389.4,42.7 -387.4,163.5"
         style="fill:#f1a38d;fill-opacity:1;fill-rule:nonzero;stroke:none"
         id="path96" />
      <path
         d="m 15634.2,7665.9 c -11.2,123.9 -113.9,151.7 -220.8,140.6 l -135,-13.9 c -51,-5.3 -87.1,-44.1 -80.2,-86.3 l 24.7,-150.5 c 7.7,-46.8 60.3,-80.3 116.9,-74.5 l 153.6,15.9 c 91.1,9.4 145.7,113.3 140.8,168.7"
         style="fill:#f3b2a3;fill-opacity:1;fill-rule:nonzero;stroke:none"
         id="path98" />
      <path
         d="m 14210.2,8003.2 c -1.9,14.3 -10.5,106.1 -10.5,106.1 -9.3,132 167.4,201.1 386.9,205.7 l 491.1,10.2 c 225.1,4.7 364.5,6.5 414.7,-125.2 13.3,-34.8 16.1,-109.2 9.9,-148.4 -26.5,-167 -194.7,-181.2 -419.8,-185.9 l -461.3,-40.9 c -219.5,-4.6 -393.8,46.9 -411,178.4"
         style="fill:#f1a38d;fill-opacity:1;fill-rule:nonzero;stroke:none"
         id="path100" />
      <path
         d="m 15774.5,7128.5 v 9.9 c -0.2,89.3 -75.6,154.9 -167.7,145.8 l -121.1,-12.1 c -43.9,-4.3 -79.8,-42.8 -79.8,-85.4 l 0.2,-147.2 c 0.1,-47.3 40,-82 88.8,-77.2 l 137.2,13.7 c 78.4,7.8 142.5,76.4 142.4,152.5"
         style="fill:#f3b2a3;fill-opacity:1;fill-rule:nonzero;stroke:none"
         id="path102" />
      <path
         d="m 15502.8,6654.1 0.2,-2.8 c 5.8,-72.2 -41.1,-136.3 -104.1,-142.4 l -109.3,-10.6 c -30,-2.9 -56.9,22.9 -59.7,57.3 l -9,113.8 c -3.1,38.3 21.7,72.2 55.1,75.4 l 120.3,11.7 c 53.7,5.2 101.6,-40.9 106.5,-102.4"
         style="fill:#f3b2a3;fill-opacity:1;fill-rule:nonzero;stroke:none"
         id="path104" />
      <path
         d="m 15464.7,8102.7 -2.2,22.1 c -7.6,76.3 -82.4,136 -166.1,132.8 l -95.5,-3.7 c -40,-1.6 -69.8,-32.6 -66.1,-69 l 13.9,-139.4 c 4,-40.4 43.6,-72 87.9,-70.3 l 110.1,4.3 c 71.4,2.8 124.5,58.2 118,123.2"
         style="fill:#f3b2a3;fill-opacity:1;fill-rule:nonzero;stroke:none"
         id="path106" />
      <path
         d="m 14510.8,7271.2 c 0.5,-0.1 1,-0.1 1.5,-0.1 l 1011.3,102.8 c 2.5,0.3 4.4,2.5 4.1,5 -0.2,2.5 -2.5,4.4 -5,4.1 l -1011.3,-102.8 c -2.5,-0.2 -4.3,-2.5 -4.1,-5 0.2,-1.9 1.7,-3.5 3.5,-4"
         style="fill:#d97d6b;fill-opacity:1;fill-rule:nonzero;stroke:none"
         id="path108" />
      <path
         d="m 14422.5,7839.1 c 0.4,-0.2 0.9,-0.2 1.4,-0.2 l 980,70.1 c 2.5,0.2 4.4,2.4 4.2,4.9 -0.1,2.5 -2.3,4.4 -4.9,4.2 l -979.9,-70 c -2.6,-0.2 -4.5,-2.4 -4.3,-4.9 0.2,-2 1.6,-3.7 3.5,-4.1"
         style="fill:#d97d6b;fill-opacity:1;fill-rule:nonzero;stroke:none"
         id="path110" />
      <path
         d="m 14492.5,6743.3 c 0.5,-0.2 1,-0.2 1.5,-0.2 l 824.8,75.1 c 2.5,0.2 4.3,2.5 4.1,5 -0.2,2.5 -2.4,4.4 -5,4.1 l -824.7,-75 c -2.5,-0.3 -4.4,-2.5 -4.2,-5 0.2,-2 1.7,-3.6 3.5,-4"
         style="fill:#d97d6b;fill-opacity:1;fill-rule:nonzero;stroke:none"
         id="path112" />
      <path
         d="m 16916.9,7405.5 c 0,0 -584.8,1798.5 -1521.9,1529.9 -128.1,-36.7 -352.4,-8.3 -595.5,29.2 -101.3,15.6 -205.9,32.8 -308.1,47.4 -14.1,2.1 -28,4 -41.9,6 -175.5,24 -186.6,-543.7 606.4,-587.5 186.9,-10.4 663.9,-109.9 857.5,-559.7 123.5,-286.6 793.9,-894.5 1003.5,-465.3"
         style="fill:#f09684;fill-opacity:1;fill-rule:nonzero;stroke:none"
         id="path114" />
      <path
         d="m 7840.12,13196.4 c -1.94,-49.9 -8.41,-98.8 -18.87,-146.2 -9.38,-42.9 -22.22,-84.6 -37.96,-124.8 -124.45,-317.7 -437.86,-543 -804.74,-543 -61.47,0 -121.54,6.4 -179.34,18.3 -99.98,20.8 -193.58,58.7 -277.49,110.5 -243.51,149.7 -405.49,415.9 -405.49,719.3 0,133.3 31.27,259.3 87.03,371.6 127.15,256.5 382.09,440.4 683.19,471.8 30.31,3.2 61.05,4.8 92.1,4.8 142.68,0 277.27,-34.1 395.79,-94.5 156.16,-79.4 284.39,-204.4 366.56,-357.2 38.4,-71.2 66.76,-148.3 83.15,-229.7 11.11,-53.8 16.82,-109.7 16.82,-166.8 0,-11.5 -0.21,-22.8 -0.75,-34.1 z m 693.22,341 c -28.14,138.6 -74.95,270.7 -137.71,393.4 -65.79,128.6 -149.15,247 -246.96,352.1 -290,311.7 -706.82,507.2 -1170.12,507.2 -30.95,0 -61.68,-0.9 -92.1,-2.7 -592.39,-33.3 -1097.53,-386.5 -1339.85,-886.7 -98.47,-203 -153.47,-430.3 -153.47,-670.2 0,-565.7 306.28,-1061 764.51,-1334.4 171.91,-102.6 365.38,-173.9 572.01,-205.9 81.1,-12.6 164.25,-19.2 248.9,-19.2 674.68,0 1250.78,414.4 1479.84,998.4 17.69,45.2 33.33,91.3 46.7,138.4 33,115.1 52.74,235.6 57.7,359.9 0.86,20.8 1.29,41.8 1.29,62.8 0,105 -10.57,207.6 -30.74,306.9"
         style="fill:#f5f5fc;fill-opacity:1;fill-rule:nonzero;stroke:none"
         id="path116" />
      <path
         d="m 6799.21,12400.7 -69.56,-710.5 c -206.63,32 -400.1,103.3 -572.01,205.9 -458.23,273.4 -764.51,768.7 -764.51,1334.4 0,239.9 55,467.2 153.47,670.2 l 656.66,-298.6 c -55.76,-112.3 -87.03,-238.3 -87.03,-371.6 0,-303.4 161.98,-569.6 405.49,-719.3 83.91,-51.8 177.51,-89.7 277.49,-110.5"
         style="fill:#4f7bc5;fill-opacity:1;fill-rule:nonzero;stroke:none"
         id="path118" />
      <path
         d="m 8505.09,12807.8 c -13.37,-47.1 -29.01,-93.2 -46.7,-138.4 -229.06,-584 -805.16,-998.4 -1479.84,-998.4 -300.45,0 -581.49,82.2 -820.91,225.1 105.58,179 236.61,400.5 364.08,615.1 132.44,-81.7 289.03,-128.8 456.83,-128.8 366.88,0 680.29,225.3 804.74,543 15.74,40.2 28.58,81.9 37.96,124.8 l 530.27,-179.5 153.57,-62.9"
         style="fill:#7c98f0;fill-opacity:1;fill-rule:nonzero;stroke:none"
         id="path120" />
      <path
         d="m 8564.08,13230.5 c 0,-21 -0.43,-42 -1.29,-62.8 -7.01,-175 -43.36,-342.6 -104.4,-498.3 l -675.1,256 c 33.21,84.7 53.06,175.8 56.83,271 0.54,11.3 0.75,22.6 0.75,34.1 0,57.1 -5.71,113 -16.82,166.8 l 709.29,140.1 c 20.17,-99.3 30.74,-201.9 30.74,-306.9"
         style="fill:#4851ea;fill-opacity:1;fill-rule:nonzero;stroke:none"
         id="path122" />
      <path
         d="m 8564.08,13230.5 c 0,-21 -0.43,-42 -1.29,-62.8 l -722.67,28.7 c 0.54,11.3 0.75,22.6 0.75,34.1 0,143.2 -36.12,278.1 -99.97,396.5 -82.17,152.8 -210.4,277.8 -366.56,357.2 l 110.65,210.6 663.68,88.1 c 97.81,-105.1 181.17,-223.5 246.96,-352.1 107.73,-210.5 168.45,-448.5 168.45,-700.3"
         style="fill:#6c79f6;fill-opacity:1;fill-rule:nonzero;stroke:none"
         id="path124" />
      <path
         d="M 8395.63,13930.8 7740.9,13627 c -144.62,268.7 -431.7,451.7 -762.35,451.7 -31.05,0 -61.79,-1.6 -92.1,-4.8 v 713.5 c 30.42,1.8 61.15,2.7 92.1,2.7 619.68,0 1156.2,-349.7 1417.08,-859.3"
         style="fill:#ec5e57;fill-opacity:1;fill-rule:nonzero;stroke:none"
         id="path126" />
      <path
         d="m 7667.15,14051.5 c 0,53.9 43.71,97.6 97.64,97.6 53.93,0 97.65,-43.7 97.65,-97.6 0,-53.9 -43.72,-97.6 -97.65,-97.6 -53.93,0 -97.64,43.7 -97.64,97.6"
         style="fill:#0c0755;fill-opacity:1;fill-rule:nonzero;stroke:none"
         id="path128" />
      <path
         d="m 10015.6,14887.7 c 0,53.9 43.7,97.6 97.6,97.6 54,0 97.7,-43.7 97.7,-97.6 0,-53.9 -43.7,-97.6 -97.7,-97.6 -53.9,0 -97.6,43.7 -97.6,97.6"
         style="fill:#0c0755;fill-opacity:1;fill-rule:nonzero;stroke:none"
         id="path130" />
      <path
         d="m 7773.03,14046.5 -16.49,10 509.51,840.8 h 1847.15 v -19.2 H 8276.91 l -503.88,-831.6"
         style="fill:#0c0755;fill-opacity:1;fill-rule:nonzero;stroke:none"
         id="path132" />
      <path
         d="M 9911.53,15417.8 H 8261.05 v 93.3 h 1650.48 v -93.3"
         style="fill:#0c0755;fill-opacity:1;fill-rule:nonzero;stroke:none"
         id="path134" />
      <path
         d="m 9246.19,15204.3 h -985.14 v 93.3 h 985.14 v -93.3"
         style="fill:#0c0755;fill-opacity:1;fill-rule:nonzero;stroke:none"
         id="path136" />
      <path
         d="m 16303.3,14992.9 c 0,441 387.1,798.5 864.7,798.5 477.5,0 864.6,-357.5 864.6,-798.5 0,-213.8 -91.1,-408.1 -239.4,-551.4 -134.3,-129.9 -211.5,-307.7 -211.5,-494.6 v 0 c 0,-151.1 -122.6,-273.7 -273.7,-273.7 h -280 c -151.2,0 -273.7,122.6 -273.7,273.7 v 0 c 0,186.9 -77.3,364.7 -211.6,494.6 -148.3,143.3 -239.4,337.6 -239.4,551.4"
         style="fill:#e97a6d;fill-opacity:1;fill-rule:nonzero;stroke:none"
         id="path138" />
      <path
         d="m 17016.3,13573.8 c 5.4,0 9.9,4.2 10.2,9.6 4.8,89 -130.2,1479.6 -135.9,1538.8 -0.6,5.6 -5.5,9.7 -11.1,9.1 -5.6,-0.5 -9.7,-5.5 -9.2,-11.1 1.4,-14.5 140.5,-1448.2 135.8,-1535.7 -0.3,-5.6 4,-10.4 9.7,-10.7 0.1,0 0.3,0 0.5,0"
         style="fill:#050731;fill-opacity:1;fill-rule:nonzero;stroke:none"
         id="path140" />
      <path
         d="m 17327.4,13573.8 c 0.1,0 0.3,0 0.5,0 5.6,0.3 9.9,5.1 9.6,10.7 -4.7,87.5 134.5,1521.2 135.8,1535.7 0.6,5.6 -3.5,10.6 -9.1,11.1 -5.6,0.6 -10.6,-3.5 -11.1,-9.1 -5.8,-59.2 -140.7,-1449.8 -135.9,-1538.8 0.3,-5.4 4.8,-9.6 10.2,-9.6"
         style="fill:#050731;fill-opacity:1;fill-rule:nonzero;stroke:none"
         id="path142" />
      <path
         d="m 16983.2,15053.6 c -10.3,-15.9 -12.6,-36.1 -13.9,-53.8 -2.5,-32.1 -3.5,-73.9 10.5,-112.4 8.1,-22.5 21.1,-41.8 37,-55.9 6.6,10.4 11.1,21.1 13.6,27.9 24.8,68.7 22.9,146.6 -5.1,214 -16.3,4.3 -33.6,-6.7 -42.1,-19.8 z m 132.2,-43.5 c -7.4,-9.8 -10.3,-22.7 -12.7,-35 -6,-31.1 -11.8,-71.6 -3,-109.6 4.1,-18 11.3,-34.2 20.9,-47.8 11.6,6.8 21,16.4 26.6,28.1 6.4,13.5 8,28.9 8.8,43.6 2.4,45 -2.3,89.8 -14.1,133.3 -9.8,1.7 -20.7,-4.7 -26.5,-12.6 z m 117.4,-0.9 c -11.1,-22.4 -9.9,-49.1 -7.7,-74.5 2.7,-32.3 7,-69.3 24.5,-99.9 6,-10.5 14.4,-20.7 24.4,-29.1 0.5,0.4 1,0.9 1.5,1.3 35.1,32.1 48.2,77.5 53,110 6,39.8 0.9,73.9 -14.6,98.8 -6.8,10.8 -14.6,18.1 -23.2,21.6 -4.2,1.8 -8.6,2.5 -13,2.5 -18.3,0 -36.6,-13.8 -44.9,-30.7 z m -74.2,-235.7 c -15.6,6.6 -29.6,17.4 -41,31.4 -20,-9.2 -44.2,-11.5 -66.5,-4.6 -11.4,3.5 -22.3,9.1 -32.3,16.5 -10.3,-12.9 -24.2,-23.4 -42.5,-24.9 -11.9,-1 -24.4,2.2 -36.3,9.2 -28.5,16.6 -44.7,51 -39.5,83.6 0.5,2.8 3.1,4.7 5.9,4.2 2.7,-0.4 4.6,-3 4.2,-5.8 -4.5,-28.1 10,-58.9 34.5,-73.3 7.1,-4.1 18,-8.7 30.3,-7.8 14.9,1.3 26.6,10.3 35.4,21.3 -17.5,15.2 -31.7,36.2 -40.6,60.6 -14.6,40.4 -13.6,83.5 -11.1,116.7 1.4,18.9 3.9,40.7 15.6,58.5 11.3,17.4 34.2,30.9 56.1,23.3 1.3,-0.5 2.4,-1.5 3,-2.8 29.8,-70.3 32.1,-151.8 6.1,-223.6 -3.2,-8.9 -8.1,-20.3 -15.1,-31 9.1,-6.7 19,-11.8 29.3,-15 19.2,-5.9 39.9,-4.3 57.3,3.1 -9.9,14.4 -17.4,31.4 -21.7,50.1 -9.1,39.9 -3.2,81.8 3,113.8 2.6,13.5 5.9,27.7 14.5,39.2 8.3,11.1 24.4,20.7 40.4,15.5 1.6,-0.5 2.9,-1.8 3.3,-3.4 12.7,-45.5 17.8,-92.4 15.3,-139.5 -0.9,-15.7 -2.6,-32.3 -9.8,-47.4 -6.3,-13.1 -16.8,-23.9 -29.6,-31.7 10.1,-11.9 22.3,-21.1 35.7,-26.8 32,-13.6 72.3,-7 103.5,16.3 -10.4,9 -19,19.6 -25.2,30.5 -18.5,32.4 -23.1,70.7 -25.9,104.1 -2.3,26.8 -3.4,55.1 8.7,79.9 12.4,25 43.9,44.3 71,33.1 10.6,-4.4 20,-13 27.9,-25.6 17.1,-27.3 22.5,-62.9 16.1,-105.7 -5.1,-34.1 -18.9,-81.9 -56.2,-116 0,0 -0.1,-0.1 -0.1,-0.1 14.1,-9.5 30.8,-15.3 48.4,-13.7 25.6,2.3 50.5,20.2 66.6,47.9 14.2,24.3 38.2,111.8 44.9,143.8 0.6,2.8 3.4,4.5 6.1,4 2.7,-0.6 4.5,-3.3 3.9,-6.1 -6.5,-30.8 -30.8,-120.5 -46.1,-146.8 -17.8,-30.6 -45.6,-50.4 -74.5,-53 -21.2,-1.9 -40.9,5.4 -57.3,17.1 -22.7,-17.5 -50,-26.9 -76.3,-26.9 -13.7,0 -27.1,2.6 -39.4,7.8"
         style="fill:#050731;fill-opacity:1;fill-rule:nonzero;stroke:none"
         id="path144" />
      <path
         d="m 16893.1,13234.7 h 549.7 c 40.1,0 72.7,32.6 72.7,72.7 v 125.9 h -695 v -125.9 c 0,-40.1 32.5,-72.7 72.6,-72.7"
         style="fill:#4050d8;fill-opacity:1;fill-rule:nonzero;stroke:none"
         id="path146" />
      <path
         d="m 17125.2,13337.2 c 204.7,0 386.9,58.4 398.4,62.1 34.8,11.4 53.7,48.7 42.4,83.5 -11.4,34.8 -48.7,53.7 -83.5,42.4 -6.1,-2 -383.9,-121.8 -620,-3.7 -32.7,16.3 -72.5,3.1 -88.8,-29.6 -16.4,-32.7 -3.1,-72.5 29.6,-88.8 98.9,-49.5 213.6,-65.9 321.9,-65.9"
         style="fill:#050731;fill-opacity:1;fill-rule:nonzero;stroke:none"
         id="path148" />
      <path
         d="m 17125.2,13444.8 c 204.7,0 386.9,58.3 398.4,62.1 34.8,11.3 53.7,48.7 42.4,83.5 -11.4,34.7 -48.7,53.7 -83.5,42.3 -6.1,-1.9 -383.9,-121.8 -620,-3.7 -32.7,16.4 -72.5,3.1 -88.8,-29.6 -16.4,-32.7 -3.1,-72.5 29.6,-88.8 98.9,-49.4 213.6,-65.8 321.9,-65.8"
         style="fill:#4050d8;fill-opacity:1;fill-rule:nonzero;stroke:none"
         id="path150" />
      <path
         d="m 17125.2,13552.4 c 204.7,0 386.9,58.3 398.4,62 34.8,11.4 53.7,48.8 42.4,83.5 -11.4,34.8 -48.7,53.8 -83.5,42.4 -6.1,-2 -383.9,-121.8 -620,-3.7 -32.7,16.3 -72.5,3.1 -88.8,-29.6 -16.4,-32.7 -3.1,-72.5 29.6,-88.8 98.9,-49.5 213.6,-65.8 321.9,-65.8"
         style="fill:#050731;fill-opacity:1;fill-rule:nonzero;stroke:none"
         id="path152" />
      <path
         d="m 21960.1,14693.3 c -336.3,0 -608.9,272.6 -608.9,608.9 0,336.3 272.6,608.9 608.9,608.9 336.3,0 609,-272.6 609,-608.9 0,-336.3 -272.7,-608.9 -609,-608.9 z m -18.7,1431.5 c -454.3,0 -822.6,-368.3 -822.6,-822.6 0,-454.3 368.3,-822.6 822.6,-822.6 454.4,0 822.6,368.3 822.6,822.6 0,454.3 -368.2,822.6 -822.6,822.6"
         style="fill:#7c9af2;fill-opacity:1;fill-rule:nonzero;stroke:none"
         id="path154" />
      <path
         d="m 22053.6,16370.5 h -224.3 V 16050 h 224.3 v 320.5"
         style="fill:#7c9af2;fill-opacity:1;fill-rule:nonzero;stroke:none"
         id="path156" />
      <path
         d="m 22476.8,16254.6 -203.3,94.9 -135.6,-290.4 203.3,-94.9 135.6,290.4"
         style="fill:#7c9af2;fill-opacity:1;fill-rule:nonzero;stroke:none"
         id="path158" />
      <path
         d="m 22800.8,15976.5 -149.1,167.7 -239.5,-213 149.1,-167.6 239.5,212.9"
         style="fill:#7c9af2;fill-opacity:1;fill-rule:nonzero;stroke:none"
         id="path160" />
      <path
         d="m 22979.8,15626.8 -89.8,205.6 -293.7,-128.3 89.9,-205.6 293.6,128.3"
         style="fill:#7c9af2;fill-opacity:1;fill-rule:nonzero;stroke:none"
         id="path162" />
      <path
         d="m 20881.1,15184.7 v 224.3 h 320.5 v -224.3 h -320.5"
         style="fill:#7c9af2;fill-opacity:1;fill-rule:nonzero;stroke:none"
         id="path164" />
      <path
         d="m 22996.4,15184.7 v 224.3 h -320.5 v -224.3 h 320.5"
         style="fill:#7c9af2;fill-opacity:1;fill-rule:nonzero;stroke:none"
         id="path166" />
      <path
         d="m 21400.8,16254.6 203.3,94.9 135.5,-290.4 -203.3,-94.9 -135.5,290.4"
         style="fill:#7c9af2;fill-opacity:1;fill-rule:nonzero;stroke:none"
         id="path168" />
      <path
         d="m 21076.8,15976.5 149.1,167.7 239.5,-213 -149.1,-167.6 -239.5,212.9"
         style="fill:#7c9af2;fill-opacity:1;fill-rule:nonzero;stroke:none"
         id="path170" />
      <path
         d="m 20897.7,15626.8 89.8,205.6 293.7,-128.3 -89.8,-205.6 -293.7,128.3"
         style="fill:#7c9af2;fill-opacity:1;fill-rule:nonzero;stroke:none"
         id="path172" />
      <path
         d="m 22056.3,14223.2 h -224.4 v 320.5 h 224.4 v -320.5"
         style="fill:#7c9af2;fill-opacity:1;fill-rule:nonzero;stroke:none"
         id="path174" />
      <path
         d="m 22479.4,14339.1 -203.2,-94.9 -135.6,290.4 203.3,94.9 135.5,-290.4"
         style="fill:#7c9af2;fill-opacity:1;fill-rule:nonzero;stroke:none"
         id="path176" />
      <path
         d="m 22803.4,14617.2 -149.1,-167.7 -239.4,213 149,167.7 239.5,-213"
         style="fill:#7c9af2;fill-opacity:1;fill-rule:nonzero;stroke:none"
         id="path178" />
      <path
         d="m 22982.5,14966.9 -89.8,-205.6 -293.7,128.4 89.8,205.5 293.7,-128.3"
         style="fill:#7c9af2;fill-opacity:1;fill-rule:nonzero;stroke:none"
         id="path180" />
      <path
         d="m 21403.4,14339.1 203.3,-94.9 135.6,290.4 -203.3,94.9 -135.6,-290.4"
         style="fill:#7c9af2;fill-opacity:1;fill-rule:nonzero;stroke:none"
         id="path182" />
      <path
         d="m 21079.5,14617.2 149,-167.7 239.5,213 -149.1,167.7 -239.4,-213"
         style="fill:#7c9af2;fill-opacity:1;fill-rule:nonzero;stroke:none"
         id="path184" />
      <path
         d="m 20900.4,14966.9 89.8,-205.6 293.7,128.4 -89.8,205.5 -293.7,-128.3"
         style="fill:#7c9af2;fill-opacity:1;fill-rule:nonzero;stroke:none"
         id="path186" />
      <path
         d="m 19823.5,14169.1 c -162.9,70.4 -237.9,259.5 -167.5,422.4 70.3,162.9 259.4,237.9 422.4,167.6 162.9,-70.4 237.9,-259.5 167.5,-422.4 -70.3,-163 -259.5,-238 -422.4,-167.6 z m 867.1,-153.5 129.7,300.2 -255.9,110.5 c 2.8,45 0.5,89.9 -6.5,133.8 l 257.7,131.1 -148.3,291.4 -244.7,-124.5 c -25.7,30.8 -54.7,59.4 -86.7,85 l 104.9,242.8 -300.2,129.6 -104.8,-242.7 c -40.6,5.6 -81.2,7.2 -121.3,4.8 l -77.1,263.5 -313.8,-91.8 81.1,-277.5 c -36.7,-25 -70.9,-54.1 -101.8,-87 l -255.9,110.5 -129.6,-300.1 233,-100.7 c -14.9,-68 -17.7,-136.9 -9.6,-203.8 l -241.1,-122.7 148.3,-291.4 217.5,110.7 c 29,-37.5 62.6,-71.9 100.4,-102.3 l -91.4,-211.7 300.1,-129.6 91.5,211.7 c 48,-6.7 96.1,-7.6 143.3,-3.1 l 68.5,-234.2 313.8,91.8 -75.9,259.7 c 54.3,39.9 102.4,89.2 141.8,146.7 l 233,-100.7"
         style="fill:#4851ea;fill-opacity:1;fill-rule:nonzero;stroke:none"
         id="path188" />
      <path
         d="m 21351.2,13171.5 c -122.5,0 -221.9,99.3 -221.9,221.8 0,122.6 99.4,221.9 221.9,221.9 122.5,0 221.8,-99.3 221.8,-221.9 0,-122.5 -99.3,-221.8 -221.8,-221.8 z m 591.6,140.1 v 225.7 h -192.5 c -10.5,29.3 -24.2,57.1 -40.7,83 l 127.5,153.7 -173.8,144.1 -121,-145.9 c -24.8,12.5 -51,22.7 -78.2,30.2 v 182.5 h -225.8 v -182.5 c -27.2,-7.5 -53.4,-17.7 -78.2,-30.2 l -121,145.9 -173.8,-144.1 127.5,-153.7 c -16.5,-25.9 -30.2,-53.7 -40.7,-83 h -192.5 v -225.7 h 175.3 c 9.2,-47.2 26.2,-91.6 49.7,-131.8 l -119.3,-143.8 173.8,-144.1 107.6,129.7 c 28.7,-15.8 59.4,-28.4 91.6,-37.3 v -159.2 h 225.8 v 159.2 c 32.2,8.9 63,21.5 91.6,37.3 l 107.6,-129.7 173.8,144.1 -119.3,143.8 c 23.5,40.2 40.5,84.6 49.7,131.8 h 175.3"
         style="fill:#0c0755;fill-opacity:1;fill-rule:nonzero;stroke:none"
         id="path190" />
      <path
         d="m 12709.3,6602 c -8.5,593.2 -482.8,1067.4 -1059.5,1059.2 -576.6,-8.2 -1037.3,-495.7 -1028.9,-1088.9 8.5,-593.2 482.8,-1067.4 1059.5,-1059.2 576.7,8.1 1037.3,495.7 1028.9,1088.9"
         style="fill:#ed7066;fill-opacity:1;fill-rule:nonzero;stroke:none"
         id="path192" />
      <path
         d="m 11724.6,6681.7 c -89.6,37.3 -151.9,68.5 -191.2,104.7 -4,3 -7,6 -10,10.1 -29.2,31.1 -43.3,65.3 -44.3,110.6 -1,80.5 54.3,174.1 204.2,176.1 125.8,2 206.3,-41.2 247.6,-65.4 l 46.2,133.8 c -56.3,33.2 -136.8,64.4 -254.5,66.4 l -2,195.2 h -26.2 l -95.6,-2 2,-101.6 1,-101.6 c -179.1,-32.2 -292.8,-160 -289.7,-327 0,-38.3 7,-72.5 19.1,-102.7 1,-5 3,-9 5,-14.1 45.3,-102.6 153,-168 302.9,-226.3 144.9,-58.4 222.3,-124.8 223.3,-235.5 2.1,-114.7 -90.5,-198.2 -229.4,-200.2 -108.6,-2 -211.3,35.2 -281.7,82.5 l -43.3,-130.8 -2,-5 c 69.5,-49.3 187.2,-83.5 299.9,-83.5 l 3,-203.3 122.7,2 -3,209.3 c 57.4,10.1 107.7,30.2 148.9,57.4 103.7,65.4 156,174 155,287.7 -3,179.1 -105.7,281.8 -307.9,363.2"
         style="fill:#ffffff;fill-opacity:1;fill-rule:nonzero;stroke:none"
         id="path194" />
      <path
         d="m 10418.3,4564 c -6.3,439.9 -358,791.6 -785.65,785.5 -427.64,-6.1 -769.24,-367.6 -762.99,-807.5 6.26,-439.9 358,-791.6 785.64,-785.5 427.6,6.1 769.2,367.6 763,807.5"
         style="fill:#ed7066;fill-opacity:1;fill-rule:nonzero;stroke:none"
         id="path196" />
      <path
         d="m 9688.09,4623.1 c -66.41,27.7 -112.67,50.8 -141.76,77.6 -2.99,2.3 -5.23,4.5 -7.47,7.5 -21.63,23.1 -32.08,48.5 -32.82,82.1 -0.75,59.7 40.29,129.1 151.46,130.6 93.27,1.5 152.96,-30.6 183.54,-48.5 l 34.33,99.2 c -41.78,24.6 -101.47,47.7 -188.77,49.2 l -1.49,144.8 h -19.4 l -70.89,-1.5 1.5,-75.4 0.75,-75.3 c -132.82,-23.9 -217.13,-118.7 -214.89,-242.5 0,-28.4 5.22,-53.7 14.17,-76.1 0.75,-3.7 2.24,-6.7 3.73,-10.5 33.58,-76.1 113.42,-124.6 224.59,-167.8 107.44,-43.3 164.9,-92.6 165.64,-174.6 1.5,-85.1 -67.15,-147 -170.11,-148.5 -80.59,-1.5 -156.69,26.1 -208.92,61.2 l -32.09,-97 -1.49,-3.8 c 51.48,-36.5 138.78,-61.9 222.35,-61.9 l 2.24,-150.7 91.03,1.5 -2.24,155.2 c 42.52,7.4 79.83,22.4 110.42,42.5 76.85,48.5 115.65,129.1 114.91,213.4 -2.24,132.8 -78.35,208.9 -228.32,269.3"
         style="fill:#ffffff;fill-opacity:1;fill-rule:nonzero;stroke:none"
         id="path198" />
      <path
         d="m 13246.9,16159.2 h -189.5 v 340.1 h -651.2 v -340.1 h -189.5 v 359.6 c 0,93.7 69.5,170 154.8,170 h 720.6 c 85.4,0 154.8,-76.3 154.8,-170 v -359.6"
         style="fill:#05377f;fill-opacity:1;fill-rule:nonzero;stroke:none"
         id="path200" />
      <path
         d="m 14165.2,16192.8 h -2765.8 c -11,0 -20,-9 -20,-20 v -1804 c 0,-11.1 9,-20 20,-20 h 2765.8 c 11,0 19.9,8.9 19.9,20 v 1804 c 0,11 -8.9,20 -19.9,20"
         style="fill:#040466;fill-opacity:1;fill-rule:nonzero;stroke:none"
         id="path202" />
      <path
         d="m 12861.9,15193.1 c -1.6,0 -3.2,0.2 -4.8,0.7 l -1475.2,465.8 c -8.3,2.6 -12.9,11.5 -10.3,19.8 2.6,8.3 11.4,12.9 19.8,10.3 l 1470.2,-464.2 1307.6,467.7 c 8.2,2.9 17.2,-1.3 20.2,-9.5 2.9,-8.2 -1.4,-17.3 -9.6,-20.2 L 12867.2,15194 c -1.7,-0.6 -3.5,-0.9 -5.3,-0.9"
         style="fill:#050731;fill-opacity:1;fill-rule:nonzero;stroke:none"
         id="path204" />
      <path
         d="m 12948.5,15368.8 h -167.9 v -304.2 h 167.9 v 304.2"
         style="fill:#ffffff;fill-opacity:1;fill-rule:nonzero;stroke:none"
         id="path206" />
      <path
         d="m 22677.5,3285.9 c -146.8,-29.4 -625.4,107.6 -633.8,149.5 -8.4,41.9 380.5,352.7 527.3,382.1 146.8,29.4 289.6,-65.8 319,-212.5 29.4,-146.8 -65.7,-289.7 -212.5,-319.1"
         style="fill:#8fb3f6;fill-opacity:1;fill-rule:nonzero;stroke:none"
         id="path208" />
      <path
         d="m 21404.7,3286.3 c 52.7,-140.1 -5.2,-634.6 -45.2,-649.6 -40,-15.1 -409.5,318.5 -462.3,458.6 -52.7,140.2 18.1,296.5 158.3,349.2 140.1,52.8 296.4,-18.1 349.2,-158.2"
         style="fill:#8fb3f6;fill-opacity:1;fill-rule:nonzero;stroke:none"
         id="path210" />
      <path
         d="m 21880.1,2207 c -148.6,-18.1 -615.4,154.9 -620.5,197.3 -5.2,42.4 406.2,322.7 554.8,340.9 148.6,18.1 283.8,-87.6 302,-236.2 18.1,-148.6 -87.6,-283.8 -236.3,-302"
         style="fill:#8fb3f6;fill-opacity:1;fill-rule:nonzero;stroke:none"
         id="path212" />
      <path
         d="m 21079.9,1938.1 c 6.2,-1.3 12.4,-2.7 18.7,-3.9 3.1,11.3 6.8,23.8 10.9,37.6 28.2,95.3 78.7,248.4 155.2,424 6.1,14 12.3,28 18.7,42.2 153,339 400.4,748.4 769,987 2.3,1.8 4.9,3.3 7.2,4.9 l -10.1,16.2 c -1.4,-1 -2.9,-2 -4.3,-2.8 -295,-190.1 -513.2,-488 -667.9,-773.4 -6.2,-11.1 -12,-22.2 -17.9,-33.3 -142.6,-270.3 -228.3,-524.9 -268.6,-660.9 -4.1,-13.8 -7.8,-26.3 -10.9,-37.6"
         style="fill:#8fb3f6;fill-opacity:1;fill-rule:nonzero;stroke:none"
         id="path214" />
      <path
         d="m 20926.5,1967.7 c -0.8,13.3 -1.3,26.7 -1.7,40 -14.3,342.9 6.8,670 48.1,970.8 22.4,163.8 50.7,319.7 82.4,466 93.1,429.2 215.5,776 304.5,996.7 48.5,120.2 87.1,203 105.8,241.6 4.3,8.9 7.4,15.4 9.6,19.5 0.9,1.9 1.5,3.3 1.9,4.1 0.4,0.6 0.6,0.8 0.6,0.9 l 2.9,-1.5 3.5,-1.8 7,-3.7 2.2,-1.1 1.3,-0.6 c -0.2,-0.2 -0.5,-1 -1.3,-2.4 0,-0.2 0,-0.2 0,-0.2 -0.8,-1.7 -2,-4 -3.7,-7.4 v -0.2 c -1.6,-3.1 -3.3,-7 -5.5,-11.4 -18.5,-38 -59,-124.7 -110.3,-252 -87.6,-218.3 -206.3,-556.6 -297.6,-973.7 -33.7,-154.1 -63.6,-319.1 -86.9,-492.7 -39.6,-296.1 -59.5,-617.6 -45.2,-954.2 0.5,-13.3 1.1,-26.5 1.7,-40 l -19.3,3.3"
         style="fill:#8fb3f6;fill-opacity:1;fill-rule:nonzero;stroke:none"
         id="path216" />
      <path
         d="m 21704.4,4783.2 c -39.7,-39.3 -217.1,-94.7 -228.4,-83.3 -11.2,11.3 46.4,188 86.2,227.3 39.7,39.3 103.8,38.9 143.1,-0.9 39.3,-39.7 38.9,-103.8 -0.9,-143.1"
         style="fill:#ffffff;fill-opacity:1;fill-rule:nonzero;stroke:none"
         id="path218" />
      <path
         d="m 21449.6,4947.1 c 30.2,-47 48,-232 34.6,-240.7 -13.4,-8.6 -174.5,84.1 -204.8,131.1 -30.2,47 -16.7,109.6 30.3,139.9 47,30.2 109.6,16.7 139.9,-30.3"
         style="fill:#ffffff;fill-opacity:1;fill-rule:nonzero;stroke:none"
         id="path220" />
      <path
         d="m 21237.5,4766.2 c 54.8,11 233.5,-40.2 236.6,-55.8 3.2,-15.7 -142,-131.7 -196.8,-142.7 -54.8,-11 -108.2,24.6 -119.2,79.4 -10.9,54.8 24.6,108.1 79.4,119.1"
         style="fill:#ffffff;fill-opacity:1;fill-rule:nonzero;stroke:none"
         id="path222" />
      <path
         d="m 21343.4,4515.3 c 9.2,55.1 120.4,204 136.1,201.4 15.7,-2.6 72.7,-179.5 63.6,-234.6 -9.2,-55.2 -61.3,-92.4 -116.4,-83.3 -55.2,9.2 -92.5,61.3 -83.3,116.5"
         style="fill:#ffffff;fill-opacity:1;fill-rule:nonzero;stroke:none"
         id="path224" />
      <path
         d="m 21619.3,4508.4 c -47.6,29.3 -143.6,188.4 -135.2,202 8.4,13.6 193.7,-0.4 241.3,-29.7 47.6,-29.3 62.4,-91.6 33.1,-139.2 -29.3,-47.6 -91.6,-62.4 -139.2,-33.1"
         style="fill:#ffffff;fill-opacity:1;fill-rule:nonzero;stroke:none"
         id="path226" />
      <path
         d="m 21517.3,4713.4 c -1.7,18.3 -17.9,31.9 -36.2,30.2 -18.3,-1.6 -31.8,-17.8 -30.2,-36.2 1.6,-18.3 17.9,-31.8 36.2,-30.2 18.3,1.7 31.8,17.9 30.2,36.2"
         style="fill:#8fb3f6;fill-opacity:1;fill-rule:nonzero;stroke:none"
         id="path228" />
      <path
         d="m 19338.8,3001.5 c 102,-20.4 434.6,74.8 440.4,103.9 5.9,29.1 -264.4,245.1 -366.4,265.5 -102,20.4 -201.3,-45.7 -221.7,-147.7 -20.4,-102 45.7,-201.3 147.7,-221.7"
         style="fill:#8fb3f6;fill-opacity:1;fill-rule:nonzero;stroke:none"
         id="path230" />
      <path
         d="m 20223.3,3001.8 c -36.7,-97.4 3.6,-441 31.3,-451.4 27.9,-10.5 284.6,221.3 321.2,318.7 36.7,97.4 -12.5,206 -109.9,242.6 -97.4,36.7 -206,-12.6 -242.6,-109.9"
         style="fill:#8fb3f6;fill-opacity:1;fill-rule:nonzero;stroke:none"
         id="path232" />
      <path
         d="m 19892.9,2251.8 c 103.2,-12.6 427.6,107.7 431.2,137.1 3.6,29.5 -282.3,224.3 -385.6,236.9 -103.2,12.6 -197.2,-60.9 -209.8,-164.1 -12.6,-103.3 60.9,-197.2 164.2,-209.9"
         style="fill:#8fb3f6;fill-opacity:1;fill-rule:nonzero;stroke:none"
         id="path234" />
      <path
         d="m 20449,2065 c -4.4,-1 -8.7,-1.9 -13,-2.7 -2.2,7.8 -4.8,16.5 -7.6,26.1 -19.6,66.2 -54.7,172.6 -107.9,294.6 -4.2,9.7 -8.6,19.5 -13,29.4 -106.3,235.5 -278.2,519.9 -534.3,685.8 -1.7,1.2 -3.4,2.3 -5.1,3.4 l 7.1,11.2 c 0.9,-0.7 2,-1.4 3,-1.9 204.9,-132.1 356.5,-339.1 464,-537.5 4.4,-7.7 8.4,-15.4 12.5,-23.1 99.1,-187.8 158.6,-364.7 186.7,-459.2 2.8,-9.6 5.4,-18.3 7.6,-26.1"
         style="fill:#8fb3f6;fill-opacity:1;fill-rule:nonzero;stroke:none"
         id="path236" />
      <path
         d="m 20555.5,2085.6 c 0.5,9.2 0.9,18.5 1.2,27.7 9.9,238.3 -4.7,465.6 -33.4,674.6 -15.6,113.8 -35.2,222.1 -57.3,323.8 -64.7,298.2 -149.7,539.2 -211.6,692.6 -33.7,83.5 -60.5,141.1 -73.5,167.9 -3,6.2 -5.1,10.7 -6.6,13.5 -0.7,1.4 -1.1,2.3 -1.4,2.9 -0.3,0.4 -0.4,0.5 -0.4,0.6 l -2,-1.1 -2.5,-1.2 -4.8,-2.5 -1.5,-0.9 -1,-0.4 c 0.2,-0.1 0.4,-0.6 1,-1.6 0,-0.1 0,-0.1 0,-0.1 0.5,-1.2 1.3,-2.9 2.5,-5.2 v -0.1 c 1.1,-2.2 2.4,-4.9 3.8,-8 12.9,-26.4 41.1,-86.6 76.7,-175 60.9,-151.8 143.3,-386.8 206.8,-676.7 23.4,-107 44.2,-221.7 60.4,-342.3 27.5,-205.8 41.3,-429.2 31.4,-663.1 -0.4,-9.2 -0.8,-18.4 -1.2,-27.7 l 13.4,2.3"
         style="fill:#8fb3f6;fill-opacity:1;fill-rule:nonzero;stroke:none"
         id="path238" />
      <path
         d="m 20015,4041.9 c 27.6,-27.3 150.9,-65.8 158.7,-57.9 7.7,7.9 -32.3,130.7 -59.9,158 -27.6,27.3 -72.1,27 -99.4,-0.6 -27.3,-27.6 -27.1,-72.2 0.6,-99.5"
         style="fill:#ffffff;fill-opacity:1;fill-rule:nonzero;stroke:none"
         id="path240" />
      <path
         d="m 20192,4155.8 c -21,-32.6 -33.3,-161.2 -24,-167.2 9.3,-6 121.2,58.4 142.3,91.1 21,32.6 11.6,76.1 -21.1,97.2 -32.6,21 -76.1,11.6 -97.2,-21.1"
         style="fill:#ffffff;fill-opacity:1;fill-rule:nonzero;stroke:none"
         id="path242" />
      <path
         d="m 20339.4,4030.1 c -38.1,7.6 -162.2,-27.9 -164.4,-38.8 -2.2,-10.8 98.7,-91.5 136.8,-99.1 38.1,-7.6 75.1,17.1 82.8,55.1 7.6,38.1 -17.1,75.2 -55.2,82.8"
         style="fill:#ffffff;fill-opacity:1;fill-rule:nonzero;stroke:none"
         id="path244" />
      <path
         d="m 20265.8,3855.8 c -6.4,38.3 -83.6,141.8 -94.5,139.9 -11,-1.8 -50.6,-124.7 -44.2,-163 6.3,-38.3 42.6,-64.2 80.9,-57.8 38.3,6.3 64.2,42.5 57.8,80.9"
         style="fill:#ffffff;fill-opacity:1;fill-rule:nonzero;stroke:none"
         id="path246" />
      <path
         d="m 20074.1,3851 c 33.1,20.3 99.8,130.9 94,140.4 -5.9,9.4 -134.6,-0.3 -167.7,-20.7 -33.1,-20.3 -43.4,-63.6 -23,-96.7 20.3,-33.1 63.6,-43.4 96.7,-23"
         style="fill:#ffffff;fill-opacity:1;fill-rule:nonzero;stroke:none"
         id="path248" />
      <path
         d="m 20145,3993.4 c 1.1,12.8 12.4,22.2 25.1,21 12.8,-1.1 22.2,-12.4 21,-25.1 -1.1,-12.7 -12.4,-22.1 -25.1,-21 -12.8,1.2 -22.2,12.4 -21,25.1"
         style="fill:#8fb3f6;fill-opacity:1;fill-rule:nonzero;stroke:none"
         id="path250" />
    </g>
  </g>
</svg>
